<svg xmlns="http://www.w3.org/2000/svg" xmlns:xlink="http://www.w3.org/1999/xlink" width="750" zoomAndPan="magnify" viewBox="0 0 562.5 374.999991" height="500" preserveAspectRatio="xMidYMid meet" version="1.0"><path fill="#dec8ff" d="M 304.175781 237.257812 C 298.976562 239.695312 292.691406 238.054688 287.824219 235.003906 C 282.964844 231.957031 279.035156 227.644531 274.5 224.125 C 272.183594 222.335938 269.644531 220.714844 266.785156 220.105469 C 259.628906 218.5625 252.589844 223.667969 248.53125 229.753906 C 244.464844 235.835938 242.296875 243.019531 238.277344 249.128906 C 236.710938 251.503906 234.816406 253.75 232.335938 255.152344 C 228.980469 257.042969 224.941406 257.199219 221.246094 258.285156 C 214.808594 260.171875 209.351562 265.105469 206.816406 271.3125 C 205.59375 274.316406 205.019531 277.589844 203.382812 280.378906 C 200.09375 285.972656 193.433594 288.398438 187.957031 291.878906 C 177.703125 298.417969 170.851562 309.980469 170.03125 322.101562 L 322.496094 322.101562 L 304.167969 237.242188 Z M 304.175781 237.257812 " fill-opacity="1" fill-rule="nonzero"/><path fill="#dec8ff" d="M 423.101562 307.324219 C 423.101562 307.324219 443.714844 283.007812 453.199219 257.460938 C 462.679688 231.910156 460.621094 219.964844 460.207031 208.835938 C 459.796875 197.714844 466.398438 179.992188 470.925781 171.75 C 475.460938 163.503906 465.566406 157.742188 458.5625 165.976562 C 451.550781 174.21875 447.019531 188.640625 446.195312 200.183594 C 445.371094 211.71875 447.019531 226.144531 444.957031 233.976562 C 442.898438 241.808594 437.535156 254.992188 426.816406 269.417969 C 416.097656 283.847656 401.253906 301.558594 401.253906 301.558594 L 423.101562 307.332031 Z M 423.101562 307.324219 " fill-opacity="1" fill-rule="nonzero"/><path fill="#dec8ff" d="M 436.570312 272.761719 C 436.523438 272.761719 436.480469 272.746094 436.441406 272.714844 C 436.367188 272.648438 436.367188 272.527344 436.433594 272.453125 C 451.21875 256.4375 452.476562 227.390625 453.390625 206.171875 C 453.496094 203.8125 453.585938 201.589844 453.699219 199.484375 C 454.792969 178.769531 466.015625 167.875 466.128906 167.769531 C 466.203125 167.707031 466.316406 167.707031 466.382812 167.769531 C 466.449219 167.84375 466.449219 167.957031 466.382812 168.03125 C 466.269531 168.136719 455.152344 178.941406 454.066406 199.507812 C 453.953125 201.613281 453.855469 203.835938 453.757812 206.195312 C 452.839844 227.464844 451.578125 256.59375 436.703125 272.707031 C 436.667969 272.746094 436.621094 272.765625 436.570312 272.765625 Z M 436.570312 272.761719 " fill-opacity="1" fill-rule="nonzero"/><path fill="#dec8ff" d="M 418.675781 303.703125 C 418.675781 303.703125 433.046875 281.839844 438.226562 260.074219 C 443.398438 238.308594 440.53125 228.78125 439.085938 219.761719 C 437.640625 210.738281 441.25 195.644531 444.121094 188.472656 C 446.996094 181.308594 438.359375 177.59375 433.46875 185.007812 C 428.578125 192.417969 426.324219 204.621094 426.800781 214.109375 C 427.28125 223.59375 430.0625 235.175781 429.164062 241.765625 C 428.265625 248.34375 425.214844 259.628906 417.917969 272.445312 C 410.625 285.261719 400.296875 301.175781 400.296875 301.175781 Z M 418.675781 303.703125 " fill-opacity="1" fill-rule="nonzero"/><path fill="#dec8ff" d="M 426.1875 274.230469 C 426.1875 274.230469 426.113281 274.21875 426.082031 274.195312 C 426 274.136719 425.984375 274.023438 426.039062 273.941406 C 436.480469 259.433594 434.605469 235.648438 433.242188 218.277344 C 433.09375 216.351562 432.949219 214.519531 432.832031 212.796875 C 431.65625 195.800781 439.71875 185.792969 439.800781 185.695312 C 439.867188 185.621094 439.980469 185.605469 440.054688 185.671875 C 440.128906 185.738281 440.144531 185.851562 440.078125 185.925781 C 439.996094 186.023438 432.023438 195.929688 433.191406 212.765625 C 433.3125 214.488281 433.453125 216.320312 433.601562 218.242188 C 434.972656 235.667969 436.855469 259.53125 426.332031 274.140625 C 426.292969 274.195312 426.242188 274.21875 426.179688 274.21875 Z M 426.1875 274.230469 " fill-opacity="1" fill-rule="nonzero"/><path fill="#dec8ff" d="M 427.222656 315.476562 C 427.125 315.476562 427.027344 315.457031 426.929688 315.417969 C 426.554688 315.261719 426.390625 314.824219 426.546875 314.457031 C 426.621094 314.277344 434.480469 296.152344 440.640625 287.535156 C 446.578125 279.242188 458.976562 256.691406 464.472656 243.175781 C 469.734375 230.226562 474.277344 197.535156 474.320312 197.203125 C 474.375 196.804688 474.746094 196.515625 475.144531 196.574219 C 475.550781 196.625 475.828125 197 475.773438 197.398438 C 475.585938 198.742188 471.167969 230.609375 465.835938 243.722656 C 460.304688 257.320312 447.8125 280.019531 441.835938 288.382812 C 435.769531 296.871094 427.972656 314.855469 427.898438 315.035156 C 427.777344 315.3125 427.507812 315.476562 427.222656 315.476562 Z M 427.222656 315.476562 " fill-opacity="1" fill-rule="nonzero"/><path fill="#dec8ff" d="M 474.5 201.417969 C 474.5 201.417969 471.203125 195.644531 473.128906 186.855469 C 475.054688 178.066406 478.347656 179.992188 479.449219 182.460938 C 480.550781 184.933594 474.5 201.417969 474.5 201.417969 Z M 474.5 201.417969 " fill-opacity="1" fill-rule="nonzero"/><path fill="#dec8ff" d="M 483.085938 195.5625 C 484.621094 195.023438 486.265625 194.820312 486.371094 197.242188 C 486.378906 197.441406 486.378906 197.652344 486.371094 197.855469 C 486.242188 200.21875 484.882812 201.566406 483.453125 203.25 C 482.394531 204.496094 481.285156 205.6875 480.117188 206.824219 C 479.046875 207.863281 477.875 208.484375 476.734375 209.40625 C 476.042969 209.960938 475.332031 210.484375 474.597656 210.980469 C 474.253906 211.210938 472.664062 211.890625 472.550781 212.234375 L 474.269531 207.003906 C 475.113281 204.40625 475.992188 201.769531 477.585938 199.550781 C 478.664062 198.066406 480.109375 196.785156 481.824219 196.070312 C 482.214844 195.914062 482.648438 195.726562 483.089844 195.570312 Z M 483.085938 195.5625 " fill-opacity="1" fill-rule="nonzero"/><path fill="#dec8ff" d="M 483.945312 211.726562 C 485.570312 211.570312 487.210938 211.761719 486.738281 214.136719 C 486.699219 214.339844 486.648438 214.535156 486.585938 214.730469 C 485.898438 216.996094 484.261719 217.976562 482.46875 219.28125 C 481.152344 220.242188 479.789062 221.128906 478.378906 221.953125 C 477.089844 222.710938 475.8125 223.03125 474.476562 223.652344 C 473.675781 224.027344 472.859375 224.375 472.027344 224.671875 C 471.636719 224.816406 469.9375 225.097656 469.742188 225.402344 C 470.710938 223.847656 471.683594 222.28125 472.648438 220.722656 C 474.089844 218.40625 475.566406 216.046875 477.644531 214.28125 C 479.046875 213.089844 480.761719 212.183594 482.589844 211.90625 C 483 211.84375 483.472656 211.761719 483.9375 211.71875 Z M 483.945312 211.726562 " fill-opacity="1" fill-rule="nonzero"/><path fill="#dec8ff" d="M 465.152344 243.453125 C 465.152344 243.453125 470.101562 233.019531 475.59375 231.09375 C 481.089844 229.171875 483.015625 233.296875 482.460938 235.488281 C 481.914062 237.691406 465.144531 243.453125 465.144531 243.453125 Z M 465.152344 243.453125 " fill-opacity="1" fill-rule="nonzero"/><path fill="#dec8ff" d="M 467.898438 233.832031 C 467.898438 233.832031 465.429688 230.808594 462.125 223.398438 C 458.828125 215.980469 458.007812 211.308594 461.847656 212.128906 C 465.699219 212.953125 468.992188 226.136719 467.890625 233.832031 Z M 467.898438 233.832031 " fill-opacity="1" fill-rule="nonzero"/><path fill="#dec8ff" d="M 436.847656 294.554688 C 436.847656 294.554688 434.375 291.527344 431.074219 284.117188 C 427.777344 276.699219 426.953125 272.027344 430.796875 272.851562 C 434.636719 273.671875 437.941406 286.855469 436.839844 294.554688 Z M 436.847656 294.554688 " fill-opacity="1" fill-rule="nonzero"/><path fill="#dec8ff" d="M 471.195312 214.054688 C 471.195312 214.054688 465.976562 206.089844 464.328125 202.242188 C 462.679688 198.394531 463.503906 194.550781 466.253906 194.273438 C 469 194 472.574219 207.457031 471.203125 214.054688 Z M 471.195312 214.054688 " fill-opacity="1" fill-rule="nonzero"/><path fill="#dec8ff" d="M 459.929688 252.789062 C 459.929688 252.789062 456.90625 247.015625 453.886719 240.152344 C 450.859375 233.289062 451.414062 229.164062 455.8125 229.164062 C 460.207031 229.164062 459.929688 252.789062 459.929688 252.789062 Z M 459.929688 252.789062 " fill-opacity="1" fill-rule="nonzero"/><path fill="#dec8ff" d="M 452.785156 267.902344 C 452.785156 267.902344 449.757812 262.867188 446.742188 256.878906 C 443.714844 250.890625 444.269531 247.292969 448.667969 247.292969 C 453.0625 247.292969 452.785156 267.902344 452.785156 267.902344 Z M 452.785156 267.902344 " fill-opacity="1" fill-rule="nonzero"/><path fill="#dec8ff" d="M 444.539062 282.738281 C 444.539062 282.738281 441.511719 277.707031 438.496094 271.71875 C 435.476562 265.726562 436.023438 262.132812 440.421875 262.132812 C 444.816406 262.132812 444.539062 282.738281 444.539062 282.738281 Z M 444.539062 282.738281 " fill-opacity="1" fill-rule="nonzero"/><path fill="#dec8ff" d="M 456.359375 262.410156 C 456.359375 262.410156 469 253.066406 475.324219 253.621094 C 481.644531 254.167969 472.296875 265.433594 456.359375 262.410156 Z M 456.359375 262.410156 " fill-opacity="1" fill-rule="nonzero"/><path fill="#dec8ff" d="M 436.847656 295.375 C 436.847656 295.375 449.492188 286.035156 455.8125 286.585938 C 462.132812 287.132812 452.785156 298.402344 436.847656 295.375 Z M 436.847656 295.375 " fill-opacity="1" fill-rule="nonzero"/><path fill="#dec8ff" d="M 448.390625 276.96875 C 448.390625 276.96875 461.03125 267.625 467.355469 268.179688 C 473.675781 268.726562 464.328125 279.992188 448.390625 276.96875 Z M 448.390625 276.96875 " fill-opacity="1" fill-rule="nonzero"/><path fill="#dec8ff" d="M 258.441406 312.5 C 258.441406 312.5 258.390625 312.5 258.359375 312.5 C 257.953125 312.453125 257.667969 312.09375 257.714844 311.691406 C 257.738281 311.496094 259.875 292.011719 258.824219 281.640625 C 257.78125 271.417969 258.1875 245.507812 260.125 230.96875 C 261.996094 216.929688 273.960938 187.066406 274.460938 185.800781 C 274.613281 185.425781 275.039062 185.242188 275.414062 185.394531 C 275.789062 185.542969 275.96875 185.972656 275.820312 186.347656 C 275.691406 186.652344 263.421875 217.304688 261.570312 231.160156 C 259.636719 245.621094 259.230469 271.351562 260.273438 281.496094 C 261.351562 292.027344 259.1875 311.660156 259.164062 311.863281 C 259.121094 312.238281 258.808594 312.515625 258.441406 312.515625 Z M 258.441406 312.5 " fill-opacity="1" fill-rule="nonzero"/><path fill="#dec8ff" d="M 273.578125 189.917969 C 273.578125 189.917969 279.300781 186.539062 281.988281 177.953125 C 284.679688 169.367188 280.859375 169.402344 278.675781 171.007812 C 276.5 172.609375 273.578125 189.917969 273.578125 189.917969 Z M 273.578125 189.917969 " fill-opacity="1" fill-rule="nonzero"/><path fill="#dec8ff" d="M 269.023438 180.582031 C 267.960938 179.347656 266.628906 178.367188 265.339844 180.410156 C 265.226562 180.582031 265.128906 180.765625 265.039062 180.941406 C 263.976562 183.058594 264.492188 184.902344 264.898438 187.082031 C 265.195312 188.683594 265.570312 190.269531 266.019531 191.835938 C 266.433594 193.265625 267.144531 194.386719 267.683594 195.75 C 268.007812 196.574219 268.363281 197.382812 268.753906 198.175781 C 268.941406 198.546875 269.972656 199.925781 269.90625 200.28125 C 270.273438 198.484375 270.648438 196.6875 271.015625 194.878906 C 271.5625 192.210938 272.117188 189.484375 271.832031 186.765625 C 271.636719 184.941406 271.015625 183.105469 269.875 181.644531 C 269.621094 181.3125 269.335938 180.941406 269.023438 180.582031 Z M 269.023438 180.582031 " fill-opacity="1" fill-rule="nonzero"/><path fill="#dec8ff" d="M 260.257812 194.183594 C 258.9375 193.242188 257.40625 192.597656 256.644531 194.894531 C 256.574219 195.089844 256.523438 195.285156 256.476562 195.488281 C 255.945312 197.804688 256.890625 199.460938 257.804688 201.484375 C 258.480469 202.964844 259.21875 204.417969 260.027344 205.835938 C 260.769531 207.132812 261.726562 208.042969 262.574219 209.25 C 263.082031 209.96875 263.625 210.671875 264.191406 211.347656 C 264.460938 211.660156 265.796875 212.75 265.8125 213.109375 C 265.742188 211.277344 265.675781 209.445312 265.601562 207.609375 C 265.496094 204.882812 265.382812 202.109375 264.460938 199.539062 C 263.839844 197.808594 262.792969 196.175781 261.335938 195.03125 C 261.007812 194.769531 260.640625 194.476562 260.257812 194.199219 Z M 260.257812 194.183594 " fill-opacity="1" fill-rule="nonzero"/><path fill="#dec8ff" d="M 260.84375 231.058594 C 260.84375 231.058594 261.71875 219.542969 257.902344 215.148438 C 254.082031 210.753906 250.363281 213.382812 249.753906 215.5625 C 249.140625 217.738281 260.835938 231.058594 260.835938 231.058594 Z M 260.84375 231.058594 " fill-opacity="1" fill-rule="nonzero"/><path fill="#dec8ff" d="M 263.226562 221.339844 C 263.226562 221.339844 266.875 219.941406 273.414062 215.132812 C 279.957031 210.328125 282.984375 206.675781 279.238281 205.484375 C 275.488281 204.292969 266.089844 214.117188 263.226562 221.339844 Z M 263.226562 221.339844 " fill-opacity="1" fill-rule="nonzero"/><path fill="#dec8ff" d="M 260.09375 289.460938 C 260.09375 289.460938 263.742188 288.0625 270.28125 283.253906 C 276.828125 278.445312 279.851562 274.792969 276.109375 273.601562 C 272.355469 272.414062 262.957031 282.234375 260.09375 289.460938 Z M 260.09375 289.460938 " fill-opacity="1" fill-rule="nonzero"/><path fill="#dec8ff" d="M 270.167969 202.527344 C 270.167969 202.527344 278.65625 198.191406 281.996094 195.667969 C 285.339844 193.144531 286.527344 189.394531 284.273438 187.792969 C 282.019531 186.1875 272.242188 196.109375 270.167969 202.519531 Z M 270.167969 202.527344 " fill-opacity="1" fill-rule="nonzero"/><path fill="#dec8ff" d="M 260.753906 241.757812 C 260.753906 241.757812 266.246094 238.242188 272.273438 233.773438 C 278.300781 229.304688 279.867188 225.457031 276.050781 223.28125 C 272.230469 221.097656 260.753906 241.757812 260.753906 241.757812 Z M 260.753906 241.757812 " fill-opacity="1" fill-rule="nonzero"/><path fill="#dec8ff" d="M 259.464844 258.421875 C 259.464844 258.421875 264.589844 255.546875 270.183594 251.847656 C 275.78125 248.140625 277.085938 244.75 273.261719 242.570312 C 269.441406 240.394531 259.464844 258.429688 259.464844 258.429688 Z M 259.464844 258.421875 " fill-opacity="1" fill-rule="nonzero"/><path fill="#dec8ff" d="M 259.269531 275.386719 C 259.269531 275.386719 264.394531 272.511719 269.988281 268.8125 C 275.585938 265.105469 276.890625 261.714844 273.066406 259.539062 C 269.246094 257.359375 259.269531 275.394531 259.269531 275.394531 Z M 259.269531 275.386719 " fill-opacity="1" fill-rule="nonzero"/><path fill="#dec8ff" d="M 259.082031 251.875 C 259.082031 251.875 252.730469 237.503906 246.972656 234.84375 C 241.210938 232.1875 243.742188 246.609375 259.082031 251.875 Z M 259.082031 251.875 " fill-opacity="1" fill-rule="nonzero"/><path fill="#dec8ff" d="M 259.6875 290.179688 C 259.6875 290.179688 253.339844 275.804688 247.582031 273.148438 C 241.816406 270.488281 244.351562 284.910156 259.6875 290.179688 Z M 259.6875 290.179688 " fill-opacity="1" fill-rule="nonzero"/><path fill="#dec8ff" d="M 258.792969 268.46875 C 258.792969 268.46875 252.441406 254.09375 246.679688 251.433594 C 240.917969 248.777344 243.453125 263.199219 258.792969 268.46875 Z M 258.792969 268.46875 " fill-opacity="1" fill-rule="nonzero"/><path fill="#dec8ff" d="M 233.917969 285.515625 C 233.917969 285.515625 229.273438 281.9375 228.882812 275.492188 C 228.496094 269.042969 230.742188 264.902344 235.160156 266.542969 C 239.582031 268.183594 237.535156 281.625 233.921875 285.515625 Z M 233.917969 285.515625 " fill-opacity="1" fill-rule="nonzero"/><path fill="#dec8ff" d="M 246.5 281.324219 C 248.683594 282.566406 248.128906 285.523438 246.777344 287.140625 C 245.714844 288.414062 244.246094 289.304688 242.890625 290.226562 C 241.472656 291.179688 239.476562 291.617188 237.796875 291.757812 C 236.554688 291.871094 234.933594 291.503906 234.746094 290.269531 C 235.96875 288.242188 237.207031 286.199219 238.808594 284.445312 C 240.578125 282.519531 243.742188 279.757812 246.492188 281.316406 Z M 246.5 281.324219 " fill-opacity="1" fill-rule="nonzero"/><path fill="#dec8ff" d="M 243.496094 295.277344 C 245.519531 296.769531 244.605469 299.640625 243.078125 301.085938 C 241.871094 302.226562 240.308594 302.9375 238.855469 303.6875 C 237.332031 304.46875 235.300781 304.65625 233.617188 304.605469 C 232.363281 304.566406 230.808594 304.011719 230.773438 302.765625 C 232.230469 300.890625 233.699219 299.015625 235.496094 297.464844 C 237.484375 295.761719 240.957031 293.398438 243.503906 295.269531 Z M 243.496094 295.277344 " fill-opacity="1" fill-rule="nonzero"/><path fill="#dec8ff" d="M 223.945312 282.757812 C 223.347656 282.414062 222.683594 282.09375 221.996094 282.128906 C 220.765625 282.199219 219.828125 283.410156 219.710938 284.640625 C 219.589844 285.867188 220.089844 287.0625 220.683594 288.144531 C 221.761719 290.097656 223.191406 291.847656 224.882812 293.308594 C 225.730469 294.035156 226.636719 294.695312 227.597656 295.269531 C 228.441406 295.769531 229.535156 296.511719 230.539062 296.609375 C 232.726562 296.820312 232.320312 294.148438 231.929688 292.867188 C 231.328125 290.898438 230.375 289.042969 229.140625 287.394531 C 227.746094 285.53125 225.976562 283.929688 223.953125 282.757812 Z M 223.945312 282.757812 " fill-opacity="1" fill-rule="nonzero"/><path fill="#dec8ff" d="M 221.3125 294.214844 C 220.78125 293.765625 220.1875 293.332031 219.5 293.242188 C 218.277344 293.085938 217.140625 294.113281 216.792969 295.292969 C 216.449219 296.476562 216.726562 297.75 217.117188 298.917969 C 217.820312 301.035156 218.914062 303.019531 220.308594 304.753906 C 221.003906 305.625 221.777344 306.441406 222.617188 307.175781 C 223.355469 307.828125 224.292969 308.746094 225.265625 309.023438 C 227.378906 309.628906 227.46875 306.929688 227.3125 305.59375 C 227.070312 303.550781 226.472656 301.550781 225.558594 299.707031 C 224.523438 297.621094 223.078125 295.726562 221.304688 294.214844 Z M 221.3125 294.214844 " fill-opacity="1" fill-rule="nonzero"/><path fill="#dec8ff" d="M 223.371094 318.050781 C 223.242188 318.261719 223.113281 318.5 223.175781 318.742188 C 223.242188 319.035156 223.550781 319.191406 223.835938 319.289062 C 225.183594 319.730469 226.667969 319.511719 228.039062 319.136719 C 230.914062 318.359375 233.617188 316.929688 235.878906 314.992188 C 236.769531 314.226562 237.632812 313.320312 237.941406 312.191406 C 238.246094 311.054688 237.8125 309.644531 236.726562 309.195312 C 236.230469 308.992188 235.675781 309.007812 235.144531 309.066406 C 231.433594 309.515625 228.054688 312.222656 225.664062 314.929688 C 224.808594 315.90625 224.035156 316.945312 223.371094 318.050781 Z M 223.371094 318.050781 " fill-opacity="1" fill-rule="nonzero"/><path fill="#dec8ff" d="M 220.75 319.96875 C 220.960938 320.097656 221.207031 320.21875 221.449219 320.15625 C 221.738281 320.082031 221.898438 319.773438 221.988281 319.484375 C 222.414062 318.125 222.167969 316.65625 221.777344 315.28125 C 220.960938 312.417969 219.492188 309.734375 217.515625 307.503906 C 216.734375 306.621094 215.820312 305.773438 214.679688 305.488281 C 213.546875 305.199219 212.136719 305.65625 211.703125 306.75 C 211.507812 307.242188 211.53125 307.796875 211.597656 308.328125 C 212.101562 312.035156 214.847656 315.371094 217.597656 317.722656 C 218.578125 318.5625 219.632812 319.316406 220.757812 319.96875 Z M 220.75 319.96875 " fill-opacity="1" fill-rule="nonzero"/><path fill="#dec8ff" d="M 221.515625 322.160156 C 223.191406 317.015625 225.144531 313.582031 227.054688 310.257812 C 228.9375 306.980469 230.707031 303.875 232.085938 299.375 C 235.160156 289.371094 234.132812 284.445312 234.089844 284.242188 L 233.375 284.398438 C 233.382812 284.445312 234.394531 289.363281 231.394531 299.15625 C 230.039062 303.582031 228.285156 306.644531 226.425781 309.890625 C 224.480469 313.304688 222.472656 316.820312 220.757812 322.160156 L 221.53125 322.160156 Z M 221.515625 322.160156 " fill-opacity="1" fill-rule="nonzero"/><path fill="#7fbdbc" d="M 311.785156 169.546875 C 311.785156 169.546875 310.683594 159.933594 305.460938 150.589844 C 300.242188 141.25 294.46875 140.703125 290.894531 142.902344 C 287.320312 145.105469 289.523438 153.894531 295.015625 158.011719 C 300.511719 162.128906 304.085938 173.671875 303.261719 177.511719 Z M 311.785156 169.546875 " fill-opacity="1" fill-rule="nonzero"/><path fill="#000000" d="M 310.414062 175.042969 C 310.363281 175.042969 310.308594 175.027344 310.265625 174.996094 C 306.472656 172.472656 304.734375 166.472656 303.203125 161.183594 C 302.679688 159.386719 302.191406 157.6875 301.644531 156.183594 C 299.5 150.304688 294.132812 147.296875 294.070312 147.265625 C 293.9375 147.191406 293.890625 147.027344 293.96875 146.890625 C 294.042969 146.757812 294.207031 146.710938 294.339844 146.785156 C 294.394531 146.816406 299.949219 149.933594 302.160156 156.003906 C 302.714844 157.523438 303.210938 159.230469 303.734375 161.035156 C 305.238281 166.238281 306.953125 172.128906 310.578125 174.546875 C 310.707031 174.628906 310.738281 174.804688 310.65625 174.929688 C 310.601562 175.011719 310.511719 175.050781 310.421875 175.050781 Z M 310.414062 175.042969 " fill-opacity="1" fill-rule="nonzero"/><path fill="#95ccd5" d="M 308.269531 172.261719 C 307.378906 168.273438 306.164062 164.363281 304.636719 160.570312 C 302.609375 155.53125 300.023438 150.707031 298.339844 145.554688 C 296.652344 140.394531 295.894531 134.703125 297.605469 129.550781 C 298.128906 127.976562 298.910156 126.429688 300.167969 125.335938 C 301.425781 124.25 303.230469 123.691406 304.800781 124.234375 C 305.902344 124.617188 306.863281 125.503906 308.023438 125.496094 C 309.058594 125.488281 309.925781 124.777344 310.757812 124.152344 C 312.175781 123.09375 313.753906 122.1875 315.492188 121.84375 C 317.230469 121.496094 319.15625 121.789062 320.527344 122.90625 C 322.109375 124.183594 322.734375 126.3125 322.964844 128.332031 C 323.566406 133.46875 322.210938 138.597656 321.5625 143.726562 C 320.910156 148.855469 321.082031 154.492188 324.230469 158.59375 L 308.265625 172.253906 Z M 308.269531 172.261719 " fill-opacity="1" fill-rule="nonzero"/><path fill="#8b95c9" d="M 323.324219 158.289062 C 323.324219 158.289062 315.902344 153.070312 315.632812 145.652344 C 315.355469 138.230469 321.410156 134.382812 319.207031 126.972656 C 317.003906 119.550781 311.238281 114.882812 315.085938 110.484375 C 318.9375 106.089844 323.054688 107.734375 326.082031 112.683594 C 329.109375 117.632812 332.101562 124.476562 330.757812 129.71875 C 328.285156 139.332031 321.140625 144.003906 330.480469 153.347656 L 323.332031 158.296875 Z M 323.324219 158.289062 " fill-opacity="1" fill-rule="nonzero"/><path fill="#000000" d="M 328.277344 155.261719 C 328.234375 155.261719 328.1875 155.253906 328.152344 155.230469 C 327.980469 155.140625 323.902344 152.90625 322.242188 146.539062 C 321.222656 142.640625 322.476562 138.09375 323.578125 134.082031 C 324.300781 131.464844 324.980469 128.992188 324.980469 126.972656 C 324.980469 121.894531 319.3125 113.472656 319.261719 113.390625 C 319.179688 113.261719 319.207031 113.089844 319.335938 113.007812 C 319.460938 112.925781 319.636719 112.957031 319.71875 113.082031 C 319.957031 113.433594 325.535156 121.730469 325.535156 126.972656 C 325.535156 129.066406 324.847656 131.574219 324.113281 134.230469 C 323.027344 138.175781 321.800781 142.652344 322.777344 146.402344 C 324.375 152.523438 328.375 154.730469 328.414062 154.742188 C 328.546875 154.820312 328.601562 154.984375 328.527344 155.117188 C 328.472656 155.207031 328.382812 155.261719 328.285156 155.261719 Z M 328.277344 155.261719 " fill-opacity="1" fill-rule="nonzero"/><path fill="#e5fff5" d="M 342.65625 146.808594 C 342.371094 146.628906 335.683594 142.21875 333.167969 130.886719 C 330.519531 118.953125 337.363281 104.886719 340.160156 101.113281 L 340.746094 101.546875 C 338.007812 105.253906 331.289062 119.042969 333.886719 130.730469 C 336.335938 141.746094 342.996094 146.148438 343.0625 146.195312 L 342.664062 146.808594 Z M 342.65625 146.808594 " fill-opacity="1" fill-rule="nonzero"/><path fill="#e5fff5" d="M 339.542969 102.515625 C 339.542969 102.515625 338.953125 100.363281 341.007812 96.34375 C 343.070312 92.324219 344.941406 92.519531 346.089844 93.625 C 347.234375 94.722656 344.941406 101.253906 339.542969 102.515625 Z M 339.542969 102.515625 " fill-opacity="1" fill-rule="nonzero"/><path fill="#e5fff5" d="M 335.59375 110.277344 C 335.59375 110.277344 334.171875 109.960938 333.347656 105.949219 C 332.523438 101.933594 333.109375 99.292969 334.734375 98.683594 C 336.359375 98.078125 337.175781 106.46875 335.589844 110.277344 Z M 335.59375 110.277344 " fill-opacity="1" fill-rule="nonzero"/><path fill="#e5fff5" d="M 335.339844 111.921875 C 335.339844 111.921875 337.574219 108.574219 340.347656 106.628906 C 343.113281 104.683594 344.800781 105.265625 344.375 107.195312 C 343.945312 109.128906 335.339844 111.921875 335.339844 111.921875 Z M 335.339844 111.921875 " fill-opacity="1" fill-rule="nonzero"/><path fill="#e5fff5" d="M 333.558594 118.5625 C 333.558594 118.5625 335.769531 115.320312 338.261719 114.160156 C 340.753906 113.007812 342.851562 112.191406 342.460938 114.445312 C 342.074219 116.699219 333.566406 118.554688 333.566406 118.554688 Z M 333.558594 118.5625 " fill-opacity="1" fill-rule="nonzero"/><path fill="#e5fff5" d="M 328.539062 114.363281 C 327.828125 113.046875 327.410156 111.539062 327.558594 110.050781 C 327.613281 109.527344 327.785156 108.941406 328.253906 108.695312 C 328.9375 108.34375 329.730469 108.921875 330.21875 109.511719 C 330.367188 109.691406 330.503906 109.878906 330.640625 110.066406 C 331.476562 111.261719 332.035156 112.640625 332.417969 114.050781 C 332.621094 114.796875 332.726562 115.589844 332.898438 116.351562 C 332.988281 116.765625 333.085938 117.175781 333.191406 117.589844 C 333.226562 117.738281 333.371094 118.730469 333.488281 118.773438 C 332.636719 118.445312 331.832031 117.988281 331.117188 117.425781 C 330.765625 117.148438 330.429688 116.839844 330.121094 116.519531 C 329.996094 116.375 329.859375 116.261719 329.71875 116.136719 C 329.207031 115.679688 328.871094 114.957031 328.546875 114.363281 Z M 328.539062 114.363281 " fill-opacity="1" fill-rule="nonzero"/><path fill="#e5fff5" d="M 331.011719 121.183594 C 329.867188 119.578125 328.261719 118.226562 326.34375 117.769531 C 325.96875 117.679688 325.527344 117.632812 325.226562 117.875 C 324.953125 118.097656 324.875 118.488281 324.875 118.839844 C 324.875 119.832031 325.289062 120.792969 325.894531 121.578125 C 326.503906 122.367188 327.28125 123.003906 328.082031 123.582031 C 328.773438 124.070312 329.484375 124.535156 330.21875 124.960938 C 330.601562 125.1875 330.984375 125.398438 331.378906 125.601562 C 331.707031 125.773438 332.082031 126.027344 332.441406 126.109375 C 333.570312 126.378906 332.605469 123.953125 332.441406 123.609375 C 332.027344 122.765625 331.574219 121.9375 331.027344 121.175781 Z M 331.011719 121.183594 " fill-opacity="1" fill-rule="nonzero"/><path fill="#e5fff5" d="M 338.953125 123.28125 C 339.515625 122.554688 340.023438 121.757812 340.234375 120.867188 C 340.355469 120.351562 340.332031 119.707031 339.890625 119.414062 C 339.558594 119.199219 339.125 119.253906 338.75 119.359375 C 336.996094 119.828125 335.519531 121.109375 334.5625 122.652344 C 334.074219 123.4375 333.707031 124.289062 333.4375 125.171875 C 333.300781 125.613281 333.191406 126.058594 333.101562 126.515625 C 333.03125 126.835938 332.84375 127.332031 333.101562 127.609375 C 333.378906 127.90625 333.746094 127.621094 334.023438 127.472656 C 334.390625 127.269531 334.742188 127.0625 335.085938 126.835938 C 335.78125 126.378906 336.449219 125.871094 337.070312 125.308594 C 337.753906 124.6875 338.382812 124.011719 338.953125 123.28125 Z M 338.953125 123.28125 " fill-opacity="1" fill-rule="nonzero"/><path fill="#e5fff5" d="M 330.121094 128.75 C 329.140625 127.734375 328.070312 126.664062 326.683594 126.386719 C 326.023438 126.25 325.25 126.355469 324.824219 126.882812 C 324.515625 127.261719 324.457031 127.789062 324.515625 128.269531 C 324.636719 129.246094 325.183594 130.128906 325.902344 130.804688 C 326.621094 131.476562 327.5 131.949219 328.390625 132.347656 C 329.71875 132.933594 331.179688 133.390625 332.652344 133.28125 C 333.039062 133.25 333.496094 133.207031 333.855469 133.039062 C 333.683594 132.46875 333.339844 132.09375 332.933594 131.664062 C 332.34375 131.050781 331.742188 130.429688 331.15625 129.816406 C 330.8125 129.460938 330.472656 129.101562 330.128906 128.75 Z M 330.121094 128.75 " fill-opacity="1" fill-rule="nonzero"/><path fill="#e5fff5" d="M 338.082031 127.105469 C 338.652344 126.519531 339.550781 126.042969 340.257812 126.460938 C 340.925781 126.867188 340.964844 127.832031 340.746094 128.578125 C 340.488281 129.492188 339.980469 130.308594 339.445312 131.089844 C 338.503906 132.460938 337.453125 133.757812 336.316406 134.972656 C 335.992188 135.316406 335.671875 135.691406 335.3125 135.984375 C 335.332031 135.316406 335.484375 134.628906 335.550781 133.960938 C 335.59375 133.519531 335.632812 133.078125 335.707031 132.636719 C 335.894531 131.449219 336.253906 130.21875 336.757812 129.117188 C 337.09375 128.375 337.527344 127.683594 338.097656 127.105469 Z M 338.082031 127.105469 " fill-opacity="1" fill-rule="nonzero"/><path fill="#e5fff5" d="M 327.933594 135.003906 C 327.273438 134.914062 326.59375 134.855469 325.960938 135.070312 C 325.332031 135.289062 324.785156 135.859375 324.785156 136.523438 C 324.785156 137.164062 325.273438 137.703125 325.769531 138.125 C 326.261719 138.542969 326.808594 138.933594 327.4375 139.082031 C 328.105469 139.242188 328.804688 139.121094 329.476562 139 C 330.480469 138.820312 331.476562 138.648438 332.476562 138.46875 C 332.972656 138.378906 333.460938 138.296875 333.953125 138.207031 C 334.417969 138.125 335.019531 138.117188 335.453125 137.9375 C 335.617188 137.871094 335.632812 137.898438 335.496094 137.765625 C 335.386719 137.644531 335.152344 137.5625 335.019531 137.480469 C 334.605469 137.238281 334.195312 137.015625 333.765625 136.808594 C 332.90625 136.382812 332.007812 136.023438 331.089844 135.730469 C 330.0625 135.402344 329.003906 135.160156 327.933594 135.011719 Z M 327.933594 135.003906 " fill-opacity="1" fill-rule="nonzero"/><path fill="#e5fff5" d="M 340.808594 134.480469 C 341.285156 134.042969 341.910156 133.648438 342.539062 133.789062 C 343.152344 133.933594 343.550781 134.582031 343.585938 135.222656 C 343.625 135.859375 343.378906 136.464844 343.105469 137.039062 C 342.628906 138.035156 342.050781 138.984375 341.382812 139.863281 C 341.046875 140.3125 340.6875 140.738281 340.308594 141.152344 C 340.03125 141.441406 339.746094 141.828125 339.304688 141.835938 C 338.546875 141.851562 338.113281 140.957031 338.105469 140.304688 C 338.105469 139.300781 338.40625 138.238281 338.796875 137.324219 C 339.257812 136.253906 339.941406 135.265625 340.800781 134.480469 Z M 340.808594 134.480469 " fill-opacity="1" fill-rule="nonzero"/><path fill="#e5fff5" d="M 332.097656 141.449219 C 331.34375 141.589844 330.519531 141.90625 330.226562 142.617188 C 329.972656 143.230469 330.226562 143.972656 330.730469 144.40625 C 331.230469 144.84375 331.917969 145 332.574219 144.976562 C 333.234375 144.953125 333.878906 144.765625 334.515625 144.585938 L 337.140625 143.824219 C 337.574219 143.695312 338.007812 143.574219 338.433594 143.449219 C 338.699219 143.367188 338.90625 143.269531 338.800781 142.953125 C 338.59375 142.324219 337.699219 142.039062 337.152344 141.84375 C 336.390625 141.574219 335.589844 141.394531 334.769531 141.324219 C 333.855469 141.242188 332.988281 141.324219 332.082031 141.449219 Z M 332.097656 141.449219 " fill-opacity="1" fill-rule="nonzero"/><path fill="#a9d5d7" d="M 330.472656 153.339844 C 330.472656 153.339844 323.324219 149.492188 324.695312 136.855469 C 326.066406 124.214844 335.96875 119 341.1875 115.148438 C 346.410156 111.300781 353.007812 114.328125 351.628906 119.542969 C 350.257812 124.761719 344.761719 124.492188 339.8125 128.886719 C 334.859375 133.28125 331.839844 140.980469 337.609375 147.296875 L 330.464844 153.339844 Z M 330.472656 153.339844 " fill-opacity="1" fill-rule="nonzero"/><path fill="#000000" d="M 333.496094 151.78125 C 333.371094 151.78125 333.25 151.71875 333.183594 151.601562 C 331.660156 149.070312 328.113281 143.15625 330.390625 133.46875 C 331.554688 128.535156 335.289062 124.84375 338.21875 122.613281 C 341.375 120.207031 344.222656 118.984375 344.34375 118.929688 C 344.53125 118.847656 344.75 118.929688 344.824219 119.125 C 344.90625 119.3125 344.824219 119.527344 344.628906 119.601562 C 344.515625 119.652344 333.226562 124.589844 331.101562 133.632812 C 328.894531 143.027344 332.335938 148.765625 333.804688 151.21875 C 333.910156 151.390625 333.847656 151.617188 333.675781 151.71875 C 333.617188 151.757812 333.550781 151.773438 333.488281 151.773438 Z M 333.496094 151.78125 " fill-opacity="1" fill-rule="nonzero"/><path fill="#cebcff" d="M 317.507812 165.464844 C 317.132812 165.242188 308.269531 159.925781 306.816406 151.617188 C 306.007812 146.988281 306.285156 144.003906 306.554688 141.113281 C 306.765625 138.835938 306.96875 136.683594 306.609375 133.878906 C 305.804688 127.691406 304.019531 125.21875 303.996094 125.195312 L 304.578125 124.753906 C 304.652344 124.859375 306.503906 127.375 307.328125 133.78125 C 307.703125 136.667969 307.492188 138.859375 307.273438 141.175781 C 307.011719 144.019531 306.734375 146.957031 307.53125 151.480469 C 308.921875 159.453125 317.777344 164.777344 317.867188 164.828125 L 317.492188 165.460938 Z M 317.507812 165.464844 " fill-opacity="1" fill-rule="nonzero"/><path fill="#cebcff" d="M 304.703125 125.59375 C 304.703125 125.59375 301.203125 124.769531 299.34375 121.265625 C 297.484375 117.761719 297.695312 114.882812 300.578125 114.671875 C 303.464844 114.460938 305.730469 122.5 304.695312 125.59375 Z M 304.703125 125.59375 " fill-opacity="1" fill-rule="nonzero"/><path fill="#cebcff" d="M 310.675781 120.066406 C 312.210938 120.207031 312.65625 122.007812 312.308594 123.25 C 312.039062 124.226562 311.441406 125.105469 310.917969 125.960938 C 310.371094 126.859375 309.359375 127.601562 308.457031 128.109375 C 307.792969 128.480469 306.796875 128.691406 306.375 128.050781 C 306.546875 126.605469 306.710938 125.144531 307.167969 123.769531 C 307.664062 122.238281 308.742188 119.894531 310.675781 120.066406 Z M 310.675781 120.066406 " fill-opacity="1" fill-rule="nonzero"/><path fill="#cebcff" d="M 312.542969 128.625 C 314.042969 128.945312 314.269531 130.789062 313.78125 131.980469 C 313.398438 132.921875 312.707031 133.714844 312.085938 134.5 C 311.433594 135.324219 310.347656 135.949219 309.386719 136.34375 C 308.675781 136.636719 307.664062 136.726562 307.328125 136.039062 C 307.664062 134.621094 308.007812 133.199219 308.625 131.875 C 309.296875 130.421875 310.648438 128.210938 312.542969 128.617188 Z M 312.542969 128.625 " fill-opacity="1" fill-rule="nonzero"/><path fill="#cebcff" d="M 298.4375 126.582031 C 298.007812 126.535156 297.558594 126.527344 297.183594 126.722656 C 296.511719 127.070312 296.300781 127.988281 296.546875 128.707031 C 296.789062 129.425781 297.378906 129.964844 297.980469 130.421875 C 299.082031 131.238281 300.324219 131.859375 301.636719 132.242188 C 302.296875 132.4375 302.96875 132.570312 303.644531 132.644531 C 304.242188 132.710938 305.042969 132.84375 305.625 132.644531 C 306.90625 132.210938 306 130.820312 305.453125 130.203125 C 304.613281 129.261719 303.613281 128.457031 302.503906 127.855469 C 301.246094 127.164062 299.859375 126.714844 298.429688 126.582031 Z M 298.4375 126.582031 " fill-opacity="1" fill-rule="nonzero"/><path fill="#cebcff" d="M 299.867188 133.65625 C 299.457031 133.535156 299.011719 133.445312 298.609375 133.566406 C 297.882812 133.78125 297.507812 134.652344 297.621094 135.402344 C 297.730469 136.148438 298.203125 136.792969 298.722656 137.34375 C 299.652344 138.347656 300.765625 139.179688 301.988281 139.804688 C 302.601562 140.109375 303.238281 140.371094 303.890625 140.566406 C 304.464844 140.746094 305.230469 141.023438 305.835938 140.925781 C 307.167969 140.730469 306.53125 139.195312 306.113281 138.492188 C 305.460938 137.414062 304.621094 136.441406 303.644531 135.648438 C 302.535156 134.742188 301.246094 134.042969 299.867188 133.65625 Z M 299.867188 133.65625 " fill-opacity="1" fill-rule="nonzero"/><path fill="#cebcff" d="M 307.066406 146.457031 C 307.050781 146.605469 307.035156 146.769531 307.132812 146.890625 C 307.246094 147.035156 307.460938 147.046875 307.640625 147.027344 C 308.511719 146.929688 309.28125 146.433594 309.957031 145.878906 C 311.375 144.714844 312.519531 143.230469 313.292969 141.566406 C 313.59375 140.910156 313.84375 140.191406 313.730469 139.480469 C 313.609375 138.769531 313.015625 138.085938 312.296875 138.109375 C 311.964844 138.117188 311.660156 138.265625 311.382812 138.4375 C 309.417969 139.636719 308.210938 142.003906 307.566406 144.121094 C 307.335938 144.878906 307.167969 145.667969 307.078125 146.449219 Z M 307.066406 146.457031 " fill-opacity="1" fill-rule="nonzero"/><path fill="#cebcff" d="M 306.089844 148.195312 C 306.242188 148.210938 306.40625 148.21875 306.527344 148.128906 C 306.667969 148.015625 306.675781 147.796875 306.652344 147.617188 C 306.546875 146.75 306.039062 145.984375 305.46875 145.320312 C 304.289062 143.929688 302.78125 142.796875 301.113281 142.046875 C 300.453125 141.753906 299.726562 141.507812 299.011719 141.636719 C 298.300781 141.761719 297.636719 142.371094 297.664062 143.097656 C 297.679688 143.425781 297.828125 143.726562 298.007812 144.003906 C 299.230469 145.945312 301.621094 147.117188 303.75 147.738281 C 304.507812 147.960938 305.289062 148.113281 306.082031 148.195312 Z M 306.089844 148.195312 " fill-opacity="1" fill-rule="nonzero"/><path fill="#cebcff" d="M 307.09375 154.3125 C 307.246094 154.289062 307.410156 154.253906 307.5 154.125 C 307.605469 153.976562 307.558594 153.765625 307.492188 153.601562 C 307.15625 152.792969 306.464844 152.191406 305.738281 151.707031 C 304.230469 150.679688 302.484375 149.992188 300.667969 149.714844 C 299.957031 149.605469 299.195312 149.566406 298.542969 149.882812 C 297.890625 150.191406 297.402344 150.957031 297.636719 151.644531 C 297.738281 151.960938 297.964844 152.207031 298.203125 152.433594 C 299.90625 153.984375 302.511719 154.476562 304.726562 154.5 C 305.519531 154.507812 306.316406 154.449219 307.101562 154.320312 Z M 307.09375 154.3125 " fill-opacity="1" fill-rule="nonzero"/><path fill="#cebcff" d="M 311.949219 161.5 C 312.078125 161.417969 312.214844 161.320312 312.242188 161.167969 C 312.28125 160.988281 312.152344 160.816406 312.027344 160.691406 C 311.394531 160.082031 310.527344 159.804688 309.664062 159.640625 C 307.867188 159.296875 305.984375 159.355469 304.222656 159.820312 C 303.523438 160 302.804688 160.269531 302.332031 160.816406 C 301.859375 161.363281 301.71875 162.257812 302.199219 162.796875 C 302.414062 163.042969 302.722656 163.183594 303.039062 163.289062 C 305.207031 164.035156 307.800781 163.457031 309.84375 162.609375 C 310.578125 162.300781 311.285156 161.933594 311.949219 161.5 Z M 311.949219 161.5 " fill-opacity="1" fill-rule="nonzero"/><path fill="#cebcff" d="M 309.898438 156.902344 C 309.925781 157.050781 309.972656 157.210938 310.101562 157.292969 C 310.257812 157.390625 310.460938 157.335938 310.625 157.253906 C 311.410156 156.878906 311.980469 156.160156 312.4375 155.410156 C 313.398438 153.847656 313.992188 152.074219 314.179688 150.25 C 314.253906 149.535156 314.253906 148.773438 313.917969 148.136719 C 313.574219 147.5 312.789062 147.046875 312.117188 147.3125 C 311.808594 147.429688 311.570312 147.671875 311.359375 147.917969 C 309.890625 149.6875 309.523438 152.3125 309.597656 154.53125 C 309.628906 155.320312 309.726562 156.117188 309.898438 156.886719 Z M 309.898438 156.902344 " fill-opacity="1" fill-rule="nonzero"/><path fill="#cebcff" d="M 315.320312 163.367188 C 315.378906 163.503906 315.460938 163.652344 315.597656 163.714844 C 315.769531 163.78125 315.957031 163.683594 316.105469 163.570312 C 316.800781 163.050781 317.207031 162.226562 317.5 161.402344 C 318.113281 159.679688 318.332031 157.816406 318.144531 155.996094 C 318.070312 155.277344 317.910156 154.53125 317.445312 153.984375 C 316.980469 153.429688 316.113281 153.160156 315.507812 153.550781 C 315.230469 153.730469 315.042969 154.011719 314.890625 154.296875 C 313.820312 156.324219 314.007812 158.972656 314.539062 161.132812 C 314.734375 161.902344 314.988281 162.660156 315.320312 163.375 Z M 315.320312 163.367188 " fill-opacity="1" fill-rule="nonzero"/><path fill="#e5fff5" d="M 304.507812 175.941406 C 304.40625 175.90625 294.265625 172.019531 287.816406 158.167969 C 281.023438 143.574219 285.839844 123.535156 288.363281 117.890625 L 289.027344 118.1875 C 286.542969 123.753906 281.792969 143.492188 288.472656 157.859375 C 294.792969 171.417969 304.660156 175.214844 304.757812 175.253906 L 304.503906 175.941406 Z M 304.507812 175.941406 " fill-opacity="1" fill-rule="nonzero"/><path fill="#e5fff5" d="M 287.875 119.828125 C 287.875 119.828125 286.503906 117.214844 288.007812 111.449219 C 289.523438 105.679688 291.996094 105.410156 293.785156 106.5 C 295.574219 107.601562 294.476562 116.667969 287.875 119.828125 Z M 287.875 119.828125 " fill-opacity="1" fill-rule="nonzero"/><path fill="#e5fff5" d="M 284.988281 130.953125 C 284.988281 130.953125 283.058594 130.953125 280.863281 126.003906 C 278.667969 121.054688 278.660156 117.484375 280.585938 116.25 C 282.511719 115.011719 285.953125 125.59375 284.988281 130.945312 Z M 284.988281 130.953125 " fill-opacity="1" fill-rule="nonzero"/><path fill="#e5fff5" d="M 285.128906 133.144531 C 285.128906 133.144531 287.050781 128.195312 290.078125 124.902344 C 293.105469 121.609375 295.4375 121.878906 295.4375 124.492188 C 295.4375 127.105469 285.136719 133.144531 285.136719 133.144531 Z M 285.128906 133.144531 " fill-opacity="1" fill-rule="nonzero"/><path fill="#e5fff5" d="M 284.714844 142.210938 C 284.714844 142.210938 286.636719 137.40625 289.523438 135.207031 C 292.410156 133.003906 294.886719 131.359375 295.023438 134.382812 C 295.160156 137.40625 284.714844 142.210938 284.714844 142.210938 Z M 284.714844 142.210938 " fill-opacity="1" fill-rule="nonzero"/><path fill="#e5fff5" d="M 277.046875 138.214844 C 275.757812 136.71875 274.785156 134.898438 274.558594 132.933594 C 274.476562 132.242188 274.535156 131.449219 275.078125 131 C 275.855469 130.347656 277.039062 130.863281 277.835938 131.5 C 278.078125 131.695312 278.308594 131.890625 278.535156 132.101562 C 279.957031 133.40625 281.074219 135.019531 281.964844 136.726562 C 282.4375 137.628906 282.796875 138.625 283.234375 139.5625 C 283.472656 140.074219 283.710938 140.574219 283.960938 141.078125 C 284.050781 141.265625 284.507812 142.488281 284.679688 142.511719 C 283.488281 142.332031 282.320312 141.972656 281.230469 141.449219 C 280.699219 141.195312 280.183594 140.898438 279.6875 140.558594 C 279.480469 140.417969 279.277344 140.304688 279.058594 140.183594 C 278.273438 139.742188 277.628906 138.902344 277.046875 138.230469 Z M 277.046875 138.214844 " fill-opacity="1" fill-rule="nonzero"/><path fill="#e5fff5" d="M 282.175781 146.308594 C 280.242188 144.570312 277.785156 143.285156 275.1875 143.230469 C 274.679688 143.222656 274.101562 143.289062 273.78125 143.6875 C 273.480469 144.054688 273.496094 144.578125 273.601562 145.035156 C 273.878906 146.3125 274.6875 147.4375 275.691406 148.285156 C 276.695312 149.132812 277.875 149.722656 279.082031 150.246094 C 280.109375 150.6875 281.164062 151.082031 282.230469 151.429688 C 282.785156 151.609375 283.34375 151.773438 283.90625 151.921875 C 284.378906 152.050781 284.933594 152.269531 285.421875 152.273438 C 286.953125 152.304688 285.015625 149.445312 284.703125 149.050781 C 283.929688 148.074219 283.105469 147.136719 282.175781 146.308594 Z M 282.175781 146.308594 " fill-opacity="1" fill-rule="nonzero"/><path fill="#e5fff5" d="M 293.007812 146.757812 C 293.523438 145.667969 293.953125 144.496094 293.972656 143.285156 C 293.988281 142.578125 293.773438 141.761719 293.121094 141.507812 C 292.640625 141.324219 292.09375 141.515625 291.636719 141.753906 C 289.507812 142.863281 287.972656 144.933594 287.171875 147.191406 C 286.765625 148.34375 286.535156 149.550781 286.4375 150.761719 C 286.382812 151.367188 286.367188 151.976562 286.375 152.582031 C 286.375 153.015625 286.277344 153.707031 286.699219 154 C 287.132812 154.304688 287.539062 153.839844 287.851562 153.5625 C 288.265625 153.203125 288.660156 152.828125 289.042969 152.441406 C 289.816406 151.652344 290.527344 150.804688 291.164062 149.902344 C 291.867188 148.90625 292.492188 147.859375 293.015625 146.757812 Z M 293.007812 146.757812 " fill-opacity="1" fill-rule="nonzero"/><path fill="#e5fff5" d="M 283.179688 156.324219 C 281.621094 155.289062 279.941406 154.214844 278.070312 154.253906 C 277.183594 154.269531 276.214844 154.617188 275.820312 155.410156 C 275.527344 155.988281 275.601562 156.683594 275.820312 157.292969 C 276.246094 158.511719 277.199219 159.5 278.316406 160.15625 C 279.433594 160.816406 280.699219 161.183594 281.964844 161.445312 C 283.847656 161.835938 285.863281 162.007812 287.726562 161.445312 C 288.21875 161.296875 288.796875 161.109375 289.207031 160.792969 C 288.828125 160.097656 288.273438 159.714844 287.628906 159.28125 C 286.683594 158.65625 285.742188 158.027344 284.804688 157.402344 C 284.265625 157.042969 283.726562 156.683594 283.179688 156.324219 Z M 283.179688 156.324219 " fill-opacity="1" fill-rule="nonzero"/><path fill="#e5fff5" d="M 292.96875 151.945312 C 293.539062 151.03125 294.558594 150.15625 295.582031 150.5 C 296.5625 150.828125 296.886719 152.066406 296.816406 153.09375 C 296.734375 154.34375 296.316406 155.539062 295.84375 156.699219 C 295.023438 158.738281 294.042969 160.710938 292.917969 162.601562 C 292.601562 163.132812 292.296875 163.707031 291.914062 164.191406 C 291.75 163.328125 291.75 162.398438 291.644531 161.523438 C 291.578125 160.9375 291.5 160.351562 291.472656 159.769531 C 291.382812 158.175781 291.496094 156.496094 291.816406 154.929688 C 292.035156 153.886719 292.402344 152.867188 292.96875 151.953125 Z M 292.96875 151.945312 " fill-opacity="1" fill-rule="nonzero"/><path fill="#e5fff5" d="M 282.132812 165.003906 C 281.253906 165.070312 280.355469 165.1875 279.605469 165.652344 C 278.863281 166.117188 278.316406 167.003906 278.503906 167.851562 C 278.683594 168.683594 279.472656 169.238281 280.21875 169.636719 C 280.976562 170.042969 281.792969 170.378906 282.648438 170.394531 C 283.546875 170.410156 284.417969 170.054688 285.25 169.710938 C 286.480469 169.195312 287.726562 168.683594 288.960938 168.167969 C 289.566406 167.914062 290.183594 167.667969 290.789062 167.414062 C 291.367188 167.175781 292.136719 166.996094 292.648438 166.644531 C 292.84375 166.507812 292.867188 166.546875 292.664062 166.410156 C 292.484375 166.289062 292.160156 166.246094 291.957031 166.179688 C 291.367188 165.984375 290.761719 165.8125 290.152344 165.660156 C 288.917969 165.355469 287.65625 165.144531 286.390625 165.03125 C 284.980469 164.90625 283.546875 164.890625 282.125 164.996094 Z M 282.132812 165.003906 " fill-opacity="1" fill-rule="nonzero"/><path fill="#e5fff5" d="M 298.585938 160.667969 C 299.082031 159.96875 299.769531 159.28125 300.625 159.289062 C 301.464844 159.296875 302.160156 160.03125 302.386719 160.832031 C 302.609375 161.640625 302.476562 162.503906 302.28125 163.3125 C 301.949219 164.730469 301.472656 166.117188 300.863281 167.445312 C 300.558594 168.117188 300.210938 168.765625 299.835938 169.402344 C 299.566406 169.859375 299.304688 170.4375 298.742188 170.574219 C 297.769531 170.804688 296.953125 169.769531 296.765625 168.933594 C 296.480469 167.640625 296.5625 166.1875 296.808594 164.898438 C 297.101562 163.382812 297.703125 161.925781 298.59375 160.660156 Z M 298.585938 160.667969 " fill-opacity="1" fill-rule="nonzero"/><path fill="#e5fff5" d="M 289.335938 172.128906 C 288.40625 172.523438 287.433594 173.160156 287.253906 174.167969 C 287.09375 175.027344 287.640625 175.910156 288.40625 176.332031 C 289.171875 176.746094 290.117188 176.753906 290.960938 176.539062 C 291.808594 176.324219 292.589844 175.90625 293.351562 175.484375 C 294.410156 174.90625 295.453125 174.339844 296.511719 173.761719 C 297.035156 173.476562 297.558594 173.199219 298.078125 172.90625 C 298.398438 172.726562 298.640625 172.539062 298.414062 172.164062 C 297.964844 171.417969 296.734375 171.308594 295.980469 171.210938 C 294.917969 171.074219 293.832031 171.074219 292.769531 171.210938 C 291.5625 171.359375 290.46875 171.726562 289.335938 172.136719 Z M 289.335938 172.128906 " fill-opacity="1" fill-rule="nonzero"/><path fill="#1f0a19" d="M 416.226562 133.011719 C 416.226562 133.011719 429.148438 139.878906 428.59375 163.238281 C 428.039062 186.59375 423.917969 223.675781 423.917969 223.675781 L 330.195312 166.261719 C 330.195312 166.261719 343.9375 139.617188 365.101562 121.753906 C 376.402344 112.214844 408.25 111.035156 416.21875 133.019531 Z M 416.226562 133.011719 " fill-opacity="1" fill-rule="nonzero"/><path fill="#e9a68e" d="M 422.824219 161.3125 L 406.332031 183.292969 C 399.644531 191.09375 388.019531 194.746094 380.410156 187.84375 L 378.574219 186.171875 C 373.902344 181.367188 368.402344 170.925781 376.105469 159.941406 L 387.097656 148.128906 C 394.484375 157.066406 411.007812 159.941406 422.824219 161.3125 Z M 422.824219 161.3125 " fill-opacity="1" fill-rule="nonzero"/><path fill="#000000" d="M 399.742188 162.503906 C 399.742188 162.503906 399.71875 162.503906 399.703125 162.503906 C 393.726562 161.933594 392.792969 157.03125 392.785156 156.984375 C 392.746094 156.78125 392.882812 156.59375 393.082031 156.558594 C 393.285156 156.519531 393.472656 156.65625 393.511719 156.847656 C 393.539062 157.03125 394.371094 161.25 399.777344 161.769531 C 399.980469 161.792969 400.128906 161.964844 400.109375 162.164062 C 400.09375 162.351562 399.929688 162.496094 399.742188 162.496094 Z M 399.742188 162.503906 " fill-opacity="1" fill-rule="nonzero"/><path fill="#000000" d="M 412.386719 170.738281 C 412.386719 170.738281 412.371094 170.738281 412.363281 170.738281 C 407.734375 170.445312 406.8125 165.820312 406.804688 165.765625 C 406.765625 165.5625 406.894531 165.375 407.09375 165.339844 C 407.296875 165.300781 407.484375 165.4375 407.523438 165.632812 C 407.550781 165.796875 408.355469 169.75 412.410156 170.003906 C 412.609375 170.019531 412.761719 170.191406 412.753906 170.394531 C 412.738281 170.589844 412.582031 170.738281 412.386719 170.738281 Z M 412.386719 170.738281 " fill-opacity="1" fill-rule="nonzero"/><path fill="#000000" d="M 402.761719 174.039062 C 402.6875 174.039062 402.609375 174.015625 402.542969 173.972656 L 397.589844 170.402344 C 397.425781 170.28125 397.386719 170.054688 397.507812 169.890625 C 397.628906 169.726562 397.851562 169.6875 398.015625 169.808594 L 402.460938 173.011719 L 403.488281 164.289062 C 403.511719 164.085938 403.699219 163.945312 403.890625 163.96875 C 404.09375 163.992188 404.234375 164.171875 404.210938 164.371094 L 403.113281 173.714844 C 403.097656 173.84375 403.015625 173.957031 402.894531 174.007812 C 402.851562 174.03125 402.796875 174.039062 402.746094 174.039062 Z M 402.761719 174.039062 " fill-opacity="1" fill-rule="nonzero"/><path fill="#000000" d="M 417.050781 166.710938 C 416.75 166.710938 416.472656 166.53125 416.359375 166.238281 C 414.890625 162.332031 411.074219 161.785156 410.910156 161.761719 C 410.511719 161.707031 410.226562 161.339844 410.28125 160.945312 C 410.332031 160.546875 410.691406 160.261719 411.097656 160.308594 C 411.292969 160.332031 415.949219 160.96875 417.738281 165.722656 C 417.882812 166.105469 417.6875 166.523438 417.3125 166.664062 C 417.230469 166.695312 417.140625 166.710938 417.058594 166.710938 Z M 417.050781 166.710938 " fill-opacity="1" fill-rule="nonzero"/><path fill="#000000" d="M 398.835938 180.3125 C 395.925781 180.3125 393.59375 179.519531 391.890625 177.9375 C 389.246094 175.5 389.121094 172.09375 389.113281 171.953125 C 389.105469 171.601562 389.382812 171.300781 389.734375 171.292969 C 389.734375 171.292969 389.75 171.292969 389.757812 171.292969 C 390.101562 171.292969 390.386719 171.570312 390.402344 171.914062 C 390.402344 171.914062 390.527344 174.9375 392.785156 177.003906 C 394.386719 178.476562 396.683594 179.152344 399.621094 179.003906 C 399.972656 178.980469 400.28125 179.257812 400.296875 179.609375 C 400.308594 179.960938 400.039062 180.269531 399.6875 180.285156 C 399.402344 180.300781 399.125 180.308594 398.847656 180.308594 Z M 398.835938 180.3125 " fill-opacity="1" fill-rule="nonzero"/><path fill="#1f0a19" d="M 449.214844 284.109375 C 449.214844 284.933594 461.03125 322.019531 461.03125 322.019531 L 361.53125 322.019531 Z M 449.214844 284.109375 " fill-opacity="1" fill-rule="nonzero"/><path fill="#e6b3c8" d="M 387.921875 187.003906 C 387.921875 187.003906 416.089844 198.117188 431.351562 220.375 C 445.09375 250.867188 453.0625 287.679688 453.0625 287.679688 L 381.324219 318.449219 L 362.90625 309.382812 L 341.1875 227.238281 L 387.914062 187.003906 Z M 387.921875 187.003906 " fill-opacity="1" fill-rule="nonzero"/><path fill="#4b3c00" d="M 303.539062 173.671875 L 299.417969 176.964844 L 298.046875 206.914062 L 334.050781 238.503906 L 388.476562 189.605469 C 388.476562 189.605469 384.082031 167.078125 368.40625 152.792969 C 352.738281 138.507812 343.121094 138.230469 343.121094 138.230469 L 303.546875 173.671875 Z M 303.539062 173.671875 " fill-opacity="1" fill-rule="nonzero"/><path fill="#1f0a19" d="M 345.863281 197.023438 L 354.386719 216.253906 L 384.898438 189.058594 L 357.414062 164.882812 Z M 345.863281 197.023438 " fill-opacity="1" fill-rule="nonzero"/><path fill="#de9399" d="M 360.984375 169.546875 C 359.21875 165.054688 353.332031 158.746094 347.84375 153.519531 C 347.625 153.316406 347.414062 153.113281 347.199219 152.910156 C 345.625 153.644531 336.703125 157.351562 327.273438 152.386719 L 303.539062 173.671875 C 303.539062 173.671875 317.550781 191.527344 328.824219 198.402344 C 340.097656 205.265625 351.96875 201.140625 358.507812 194.007812 C 364.554688 187.410156 364.554688 178.621094 360.980469 169.554688 Z M 360.984375 169.546875 " fill-opacity="1" fill-rule="nonzero"/><path fill="#000000" d="M 320.308594 184.199219 C 320.121094 184.199219 319.964844 184.058594 319.949219 183.871094 C 319.925781 183.667969 320.078125 183.488281 320.273438 183.464844 C 320.472656 183.441406 325.273438 182.867188 326.832031 177.675781 C 326.890625 177.480469 327.09375 177.375 327.289062 177.429688 C 327.484375 177.488281 327.597656 177.691406 327.535156 177.886719 C 325.835938 183.546875 320.40625 184.183594 320.355469 184.191406 C 320.339844 184.191406 320.324219 184.191406 320.316406 184.191406 Z M 320.308594 184.199219 " fill-opacity="1" fill-rule="nonzero"/><path fill="#000000" d="M 336.792969 171.839844 C 336.613281 171.839844 336.464844 171.710938 336.433594 171.53125 C 336.40625 171.328125 336.539062 171.144531 336.742188 171.113281 C 336.792969 171.105469 341.789062 170.257812 343.609375 166.105469 C 343.691406 165.917969 343.910156 165.832031 344.089844 165.917969 C 344.277344 166 344.359375 166.214844 344.277344 166.394531 C 342.289062 170.925781 337.070312 171.792969 336.855469 171.832031 C 336.832031 171.832031 336.816406 171.832031 336.792969 171.832031 Z M 336.792969 171.839844 " fill-opacity="1" fill-rule="nonzero"/><path fill="#000000" d="M 315.632812 178.523438 C 315.632812 178.523438 315.597656 178.523438 315.582031 178.523438 C 315.183594 178.492188 314.875 178.148438 314.898438 177.75 C 314.914062 177.558594 315.289062 172.855469 322.785156 169.972656 C 323.160156 169.832031 323.585938 170.019531 323.730469 170.394531 C 323.871094 170.769531 323.683594 171.195312 323.308594 171.335938 C 316.75 173.859375 316.367188 177.683594 316.359375 177.847656 C 316.332031 178.230469 316.007812 178.523438 315.632812 178.523438 Z M 315.632812 178.523438 " fill-opacity="1" fill-rule="nonzero"/><path fill="#000000" d="M 330.75 166.164062 C 330.75 166.164062 330.722656 166.164062 330.707031 166.164062 C 330.300781 166.140625 329.996094 165.789062 330.023438 165.382812 C 330.039062 165.183594 330.414062 160.488281 337.910156 157.605469 C 338.285156 157.464844 338.710938 157.652344 338.855469 158.027344 C 338.996094 158.402344 338.808594 158.828125 338.433594 158.964844 C 331.804688 161.523438 331.484375 165.4375 331.484375 165.472656 C 331.464844 165.863281 331.140625 166.164062 330.757812 166.164062 Z M 330.75 166.164062 " fill-opacity="1" fill-rule="nonzero"/><path fill="#000000" d="M 335.699219 186.675781 C 335.574219 186.675781 335.445312 186.609375 335.386719 186.496094 L 328.519531 174.683594 C 328.414062 174.511719 328.472656 174.285156 328.652344 174.179688 C 328.824219 174.074219 329.050781 174.136719 329.15625 174.316406 L 335.699219 185.566406 L 338.96875 179.550781 C 339.066406 179.371094 339.289062 179.308594 339.460938 179.398438 C 339.640625 179.496094 339.710938 179.714844 339.613281 179.894531 L 336.039062 186.488281 C 335.976562 186.609375 335.851562 186.675781 335.722656 186.683594 Z M 335.699219 186.675781 " fill-opacity="1" fill-rule="nonzero"/><path fill="#000000" d="M 338.480469 192.058594 C 337.886719 192.058594 337.5 191.976562 337.460938 191.96875 C 337.0625 191.878906 336.816406 191.488281 336.90625 191.09375 C 336.996094 190.695312 337.386719 190.449219 337.777344 190.539062 C 337.867188 190.554688 339.769531 190.933594 341.667969 189.53125 C 343.757812 187.988281 345.019531 184.941406 345.414062 180.472656 C 345.453125 180.066406 345.796875 179.773438 346.210938 179.804688 C 346.613281 179.84375 346.90625 180.195312 346.875 180.597656 C 346.441406 185.515625 344.972656 188.929688 342.507812 190.726562 C 340.996094 191.835938 339.453125 192.050781 338.480469 192.050781 Z M 338.480469 192.058594 " fill-opacity="1" fill-rule="nonzero"/><path fill="#de9399" d="M 346.050781 154.847656 C 346.050781 154.847656 350.347656 146.832031 356.742188 150.769531 C 363.128906 154.699219 360.949219 164.207031 358.570312 167.386719 L 346.050781 154.855469 Z M 346.050781 154.847656 " fill-opacity="1" fill-rule="nonzero"/><path fill="#000000" d="M 354.664062 162.773438 C 354.5625 162.773438 354.457031 162.726562 354.382812 162.636719 C 354.246094 162.480469 351.144531 158.714844 351.636719 155.441406 C 351.824219 154.214844 352.5 153.210938 353.640625 152.476562 C 353.804688 152.371094 354.035156 152.417969 354.148438 152.589844 C 354.261719 152.761719 354.207031 152.988281 354.035156 153.097656 C 353.085938 153.714844 352.523438 154.542969 352.363281 155.554688 C 351.914062 158.5 354.914062 162.136719 354.941406 162.171875 C 355.070312 162.332031 355.054688 162.5625 354.898438 162.691406 C 354.832031 162.75 354.746094 162.773438 354.664062 162.773438 Z M 354.664062 162.773438 " fill-opacity="1" fill-rule="nonzero"/><path fill="#000000" d="M 357.683594 160.578125 C 357.519531 160.578125 357.371094 160.464844 357.324219 160.292969 C 356.890625 158.402344 356.15625 157.230469 355.128906 156.820312 C 353.804688 156.289062 352.402344 157.210938 352.386719 157.214844 C 352.222656 157.328125 351.992188 157.285156 351.878906 157.113281 C 351.765625 156.945312 351.8125 156.714844 351.984375 156.601562 C 352.050781 156.558594 353.722656 155.464844 355.398438 156.128906 C 356.667969 156.632812 357.550781 157.980469 358.039062 160.121094 C 358.082031 160.316406 357.960938 160.515625 357.761719 160.5625 C 357.730469 160.5625 357.707031 160.570312 357.679688 160.570312 Z M 357.683594 160.578125 " fill-opacity="1" fill-rule="nonzero"/><path fill="#4b3c00" d="M 359.328125 165.976562 C 359.328125 165.976562 364.964844 186.578125 362.90625 201.832031 L 389.292969 194.410156 C 389.292969 194.410156 389.703125 185.34375 378.574219 165.5625 C 362.90625 166.386719 359.328125 165.976562 359.328125 165.976562 Z M 359.328125 165.976562 " fill-opacity="1" fill-rule="nonzero"/><path fill="#e9a68e" d="M 392.042969 259.664062 L 402.484375 248.125 L 397.824219 227.785156 C 397.46875 226.242188 397.898438 224.628906 398.96875 223.460938 C 401.140625 221.089844 404.96875 221.472656 406.632812 224.214844 L 409.628906 229.164062 L 414.300781 217.347656 L 412.101562 201.140625 C 412.101562 201.140625 419.792969 198.394531 420.894531 205.535156 C 428.039062 204.433594 429.964844 212.128906 429.964844 212.128906 C 434.914062 213.777344 437.386719 218.171875 437.65625 224.222656 C 437.933594 230.261719 435.453125 248.949219 433.535156 257.183594 C 431.609375 265.429688 415.941406 284.933594 415.941406 284.933594 L 392.035156 259.660156 Z M 392.042969 259.664062 " fill-opacity="1" fill-rule="nonzero"/><path fill="#1f0a19" d="M 397.539062 253.890625 L 418.429688 281.640625 L 392.042969 259.664062 Z M 397.539062 253.890625 " fill-opacity="1" fill-rule="nonzero"/><path fill="#8b95c9" d="M 286.222656 206.636719 L 294.050781 201.417969 C 304.734375 190.898438 321.890625 190.867188 332.605469 201.367188 L 332.898438 201.652344 C 337.183594 205.84375 340.40625 210.988281 342.296875 216.667969 L 363.464844 282.46875 L 391.226562 254.722656 L 420.910156 284.394531 L 387.097656 322.027344 L 309.589844 322.027344 L 278.527344 210.492188 L 286.222656 206.644531 Z M 286.222656 206.636719 " fill-opacity="1" fill-rule="nonzero"/><path fill="#1f0a19" d="M 363.457031 282.460938 L 345.59375 301.972656 L 360.84375 275.183594 Z M 363.457031 282.460938 " fill-opacity="1" fill-rule="nonzero"/><path fill="#000000" d="M 422.003906 224.402344 C 422.003906 224.402344 421.949219 224.402344 421.929688 224.402344 C 421.523438 224.359375 421.230469 224 421.277344 223.601562 L 421.816406 218.464844 L 420.175781 205.640625 C 420.121094 205.234375 420.40625 204.867188 420.8125 204.824219 C 421.214844 204.777344 421.582031 205.054688 421.628906 205.460938 L 423.273438 218.375 C 423.273438 218.433594 423.28125 218.488281 423.273438 218.546875 L 422.726562 223.765625 C 422.6875 224.140625 422.367188 224.425781 422.003906 224.425781 Z M 422.003906 224.402344 " fill-opacity="1" fill-rule="nonzero"/><path fill="#000000" d="M 430.796875 230.171875 C 430.796875 230.171875 430.765625 230.171875 430.75 230.171875 C 430.347656 230.152344 430.039062 229.796875 430.0625 229.402344 L 430.609375 220.421875 L 429.246094 212.257812 C 429.179688 211.859375 429.449219 211.480469 429.84375 211.421875 C 430.242188 211.355469 430.625 211.625 430.683594 212.015625 L 432.050781 220.261719 C 432.058594 220.316406 432.066406 220.375 432.058594 220.429688 L 431.511719 229.492188 C 431.488281 229.878906 431.171875 230.179688 430.789062 230.179688 Z M 430.796875 230.171875 " fill-opacity="1" fill-rule="nonzero"/><path fill="#eddaff" d="M 267.667969 321.703125 C 267.488281 321.703125 267.332031 321.578125 267.308594 321.394531 C 265.59375 309.800781 268.421875 298.429688 274.703125 291.707031 C 280.648438 285.335938 282.804688 279.953125 285.914062 267.96875 C 288.085938 259.589844 293.34375 255.5625 300.003906 250.457031 C 302.746094 248.351562 305.851562 245.972656 309.066406 243.019531 C 319.6875 233.253906 320.25 218.234375 320.25 218.074219 C 320.25 217.875 320.429688 217.722656 320.625 217.722656 C 320.828125 217.722656 320.984375 217.894531 320.976562 218.097656 C 320.976562 218.253906 320.414062 233.574219 309.554688 243.558594 C 306.324219 246.535156 303.203125 248.929688 300.445312 251.042969 C 293.898438 256.054688 288.730469 260.015625 286.625 268.15625 C 283.480469 280.269531 281.292969 285.726562 275.234375 292.207031 C 269.105469 298.777344 266.34375 309.914062 268.027344 321.289062 C 268.058594 321.492188 267.925781 321.675781 267.722656 321.695312 C 267.707031 321.695312 267.683594 321.695312 267.667969 321.695312 Z M 267.667969 321.703125 " fill-opacity="1" fill-rule="nonzero"/><path fill="#de9399" d="M 332.394531 234.65625 L 317.828125 251.964844 L 283.472656 217.078125 L 293.90625 203.332031 C 294.867188 202.070312 294.777344 200.292969 293.691406 199.140625 C 292.453125 197.824219 290.378906 197.765625 289.066406 199.003906 L 285.945312 201.972656 L 278.902344 202.28125 C 275.339844 202.4375 272.019531 204.113281 269.785156 206.898438 L 259.53125 219.671875 C 257.691406 221.96875 257.273438 225.097656 258.441406 227.800781 L 262.851562 237.96875 L 304.96875 293.085938 C 312.59375 302.179688 326.21875 303.222656 335.136719 295.382812 L 362.898438 267.90625 L 332.386719 234.664062 Z M 332.394531 234.65625 " fill-opacity="1" fill-rule="nonzero"/><path fill="#1f0a19" d="M 327.722656 239.875 L 353.007812 277.523438 L 360.984375 269.824219 Z M 327.722656 239.875 " fill-opacity="1" fill-rule="nonzero"/><path fill="#eecbd6" d="M 338.71875 222.019531 L 360.085938 195.765625 C 369.945312 184.160156 387.449219 183.023438 398.730469 193.242188 C 410.003906 203.460938 410.578125 220.972656 400.011719 231.910156 L 362.355469 272.296875 L 325.804688 237.953125 L 338.726562 222.019531 Z M 338.71875 222.019531 " fill-opacity="1" fill-rule="nonzero"/><path fill="#1f0a19" d="M 283.472656 217.078125 L 278.25 212.683594 L 287.875 211.03125 Z M 283.472656 217.078125 " fill-opacity="1" fill-rule="nonzero"/><path fill="#a9d5d7" d="M 364.199219 259.449219 C 365.707031 261.773438 367.503906 264.285156 367.101562 267.015625 C 366.847656 268.703125 365.78125 270.128906 365.011719 271.652344 C 363.339844 274.914062 363.007812 278.828125 364.027344 282.347656 L 386.585938 259.417969 C 386.070312 257.917969 385.554688 256.390625 385.824219 254.859375 C 386.332031 251.964844 389.359375 250.222656 390.550781 247.550781 C 391.734375 244.886719 390.925781 241.773438 389.742188 239.097656 C 388.566406 236.433594 387.011719 233.832031 386.722656 230.929688 C 386.355469 227.308594 388.003906 223.820312 389.554688 220.523438 C 391.113281 217.230469 392.65625 213.664062 392.070312 210.074219 C 391.570312 206.929688 388.496094 203.578125 385.054688 204.050781 C 384.125 204.179688 383.113281 204.898438 382.371094 205.453125 C 380.714844 206.683594 379.417969 208.394531 378.730469 210.34375 C 377.9375 212.578125 377.710938 215.382812 375.652344 216.570312 C 374.320312 217.339844 372.582031 217.152344 371.300781 218.007812 C 370.386719 218.613281 370.0625 219.558594 369.515625 220.449219 C 369.015625 221.257812 368.582031 221.75 368.40625 222.730469 C 367.972656 225.222656 368.347656 227.777344 368.601562 230.269531 C 368.949219 233.691406 368.917969 237.527344 366.613281 240.0625 C 365.601562 241.171875 364.253906 241.921875 363.195312 242.980469 C 361.097656 245.09375 360.386719 248.3125 360.792969 251.261719 C 361.1875 254.214844 362.582031 256.945312 364.191406 259.449219 Z M 364.199219 259.449219 " fill-opacity="1" fill-rule="nonzero"/><path fill="#a9d5d7" d="M 433.542969 322.296875 C 433.542969 322.296875 433.128906 302.519531 446.324219 287.265625 C 459.511719 272.019531 463.640625 271.195312 469.816406 257.597656 C 476.007812 244 476.828125 224.222656 494.558594 227.105469 C 512.289062 229.984375 500.746094 266.253906 500.746094 266.253906 C 508.578125 264.605469 510.640625 280.261719 504.863281 289.328125 C 499.089844 298.394531 494.558594 302.921875 490.019531 309.515625 C 485.488281 316.113281 484.246094 322.289062 484.246094 322.289062 C 484.246094 322.289062 432.914062 321.667969 433.535156 322.289062 Z M 433.542969 322.296875 " fill-opacity="1" fill-rule="nonzero"/><path fill="#dd4547" d="M 443.300781 165.976562 L 435.796875 156.84375 C 434.449219 155.019531 434.71875 152.46875 436.429688 150.972656 C 438.355469 149.289062 441.292969 149.617188 442.808594 151.675781 L 444.539062 154.027344 L 447.664062 151.292969 C 449.527344 149.664062 452.386719 149.992188 453.835938 151.996094 C 455.265625 153.984375 454.710938 156.765625 452.621094 158.042969 Z M 443.300781 165.976562 " fill-opacity="1" fill-rule="nonzero"/><path fill="#e6b3c8" d="M 424.847656 122.710938 L 419.851562 116.625 C 418.953125 115.410156 419.132812 113.710938 420.273438 112.714844 C 421.554688 111.589844 423.511719 111.808594 424.523438 113.179688 L 425.679688 114.746094 L 427.761719 112.925781 C 429.003906 111.839844 430.910156 112.054688 431.871094 113.390625 C 432.824219 114.714844 432.457031 116.5625 431.066406 117.417969 L 424.855469 122.703125 Z M 424.847656 122.710938 " fill-opacity="1" fill-rule="nonzero"/><path fill="#8b95c9" d="M 265.078125 177.445312 L 258.988281 170.035156 C 257.894531 168.558594 258.121094 166.484375 259.496094 165.273438 C 261.054688 163.90625 263.449219 164.171875 264.671875 165.839844 L 266.074219 167.75 L 268.601562 165.535156 C 270.117188 164.207031 272.4375 164.476562 273.617188 166.105469 C 274.777344 167.714844 274.328125 169.972656 272.625 171.007812 L 265.070312 177.445312 Z M 265.078125 177.445312 " fill-opacity="1" fill-rule="nonzero"/></svg>