<svg xmlns="http://www.w3.org/2000/svg" xmlns:xlink="http://www.w3.org/1999/xlink" width="750" zoomAndPan="magnify" viewBox="0 0 562.5 374.999991" height="500" preserveAspectRatio="xMidYMid meet" version="1.0"><defs><clipPath id="aa9029fdc4"><path d="M 0 0.167969 L 562 0.167969 L 562 374.832031 L 0 374.832031 Z M 0 0.167969 " clip-rule="nonzero"/></clipPath></defs><g clip-path="url(#aa9029fdc4)"><path fill="#ffffff" d="M 0 0.167969 L 562 0.167969 L 562 374.832031 L 0 374.832031 Z M 0 0.167969 " fill-opacity="1" fill-rule="nonzero"/><path fill="#ffffff" d="M 0 0.167969 L 562 0.167969 L 562 374.832031 L 0 374.832031 Z M 0 0.167969 " fill-opacity="1" fill-rule="nonzero"/></g><path fill="#dec8ff" d="M 304.671875 237.257812 C 299.476562 239.695312 293.191406 238.054688 288.324219 235.003906 C 283.464844 231.957031 279.535156 227.644531 275 224.125 C 272.683594 222.335938 270.144531 220.714844 267.285156 220.105469 C 260.128906 218.5625 253.089844 223.667969 249.03125 229.753906 C 244.964844 235.835938 242.796875 243.019531 238.777344 249.128906 C 237.210938 251.503906 235.316406 253.75 232.835938 255.152344 C 229.480469 257.042969 225.441406 257.199219 221.746094 258.285156 C 215.308594 260.171875 209.851562 265.105469 207.316406 271.3125 C 206.09375 274.316406 205.519531 277.589844 203.882812 280.378906 C 200.59375 285.972656 193.933594 288.398438 188.457031 291.878906 C 178.203125 298.417969 171.351562 309.980469 170.53125 322.101562 L 322.992188 322.101562 L 304.664062 237.242188 Z M 304.671875 237.257812 " fill-opacity="1" fill-rule="nonzero"/><path fill="#dec8ff" d="M 423.601562 307.324219 C 423.601562 307.324219 444.214844 283.007812 453.699219 257.460938 C 463.179688 231.910156 461.121094 219.964844 460.707031 208.835938 C 460.296875 197.714844 466.894531 179.992188 471.425781 171.75 C 475.957031 163.503906 466.066406 157.742188 459.058594 165.976562 C 452.050781 174.21875 447.519531 188.640625 446.695312 200.183594 C 445.871094 211.71875 447.519531 226.144531 445.457031 233.976562 C 443.398438 241.808594 438.035156 254.992188 427.316406 269.417969 C 416.597656 283.847656 401.753906 301.558594 401.753906 301.558594 L 423.601562 307.332031 Z M 423.601562 307.324219 " fill-opacity="1" fill-rule="nonzero"/><path fill="#dec8ff" d="M 437.070312 272.761719 C 437.023438 272.761719 436.980469 272.746094 436.941406 272.714844 C 436.867188 272.648438 436.867188 272.527344 436.933594 272.453125 C 451.71875 256.4375 452.976562 227.390625 453.890625 206.171875 C 453.996094 203.8125 454.085938 201.589844 454.199219 199.484375 C 455.292969 178.769531 466.515625 167.875 466.628906 167.769531 C 466.703125 167.707031 466.816406 167.707031 466.878906 167.769531 C 466.945312 167.84375 466.945312 167.957031 466.878906 168.03125 C 466.769531 168.136719 455.652344 178.941406 454.566406 199.507812 C 454.453125 201.613281 454.355469 203.835938 454.257812 206.195312 C 453.339844 227.464844 452.078125 256.59375 437.203125 272.707031 C 437.167969 272.746094 437.121094 272.765625 437.070312 272.765625 Z M 437.070312 272.761719 " fill-opacity="1" fill-rule="nonzero"/><path fill="#dec8ff" d="M 419.175781 303.703125 C 419.175781 303.703125 433.546875 281.839844 438.726562 260.074219 C 443.898438 238.308594 441.03125 228.78125 439.585938 219.761719 C 438.140625 210.738281 441.75 195.644531 444.621094 188.472656 C 447.496094 181.308594 438.859375 177.59375 433.96875 185.007812 C 429.078125 192.417969 426.824219 204.621094 427.300781 214.109375 C 427.78125 223.59375 430.5625 235.175781 429.664062 241.765625 C 428.765625 248.34375 425.714844 259.628906 418.417969 272.445312 C 411.125 285.261719 400.796875 301.175781 400.796875 301.175781 Z M 419.175781 303.703125 " fill-opacity="1" fill-rule="nonzero"/><path fill="#dec8ff" d="M 426.6875 274.230469 C 426.6875 274.230469 426.613281 274.21875 426.582031 274.195312 C 426.5 274.136719 426.484375 274.023438 426.539062 273.941406 C 436.980469 259.433594 435.105469 235.648438 433.742188 218.277344 C 433.59375 216.351562 433.449219 214.519531 433.332031 212.796875 C 432.15625 195.800781 440.214844 185.792969 440.296875 185.695312 C 440.363281 185.621094 440.476562 185.605469 440.550781 185.671875 C 440.625 185.738281 440.640625 185.851562 440.574219 185.925781 C 440.492188 186.023438 432.523438 195.929688 433.691406 212.765625 C 433.8125 214.488281 433.953125 216.320312 434.101562 218.242188 C 435.472656 235.667969 437.355469 259.53125 426.832031 274.140625 C 426.792969 274.195312 426.742188 274.21875 426.679688 274.21875 Z M 426.6875 274.230469 " fill-opacity="1" fill-rule="nonzero"/><path fill="#dec8ff" d="M 427.722656 315.476562 C 427.625 315.476562 427.527344 315.457031 427.429688 315.417969 C 427.054688 315.261719 426.890625 314.824219 427.046875 314.457031 C 427.121094 314.277344 434.980469 296.152344 441.140625 287.535156 C 447.078125 279.242188 459.476562 256.691406 464.972656 243.175781 C 470.234375 230.226562 474.777344 197.535156 474.820312 197.203125 C 474.875 196.804688 475.246094 196.515625 475.644531 196.574219 C 476.046875 196.625 476.324219 197 476.269531 197.398438 C 476.082031 198.742188 471.667969 230.609375 466.335938 243.722656 C 460.804688 257.320312 448.3125 280.019531 442.335938 288.382812 C 436.269531 296.871094 428.472656 314.855469 428.398438 315.035156 C 428.277344 315.3125 428.007812 315.476562 427.722656 315.476562 Z M 427.722656 315.476562 " fill-opacity="1" fill-rule="nonzero"/><path fill="#dec8ff" d="M 475 201.417969 C 475 201.417969 471.703125 195.644531 473.628906 186.855469 C 475.554688 178.066406 478.847656 179.992188 479.949219 182.460938 C 481.050781 184.933594 475 201.417969 475 201.417969 Z M 475 201.417969 " fill-opacity="1" fill-rule="nonzero"/><path fill="#dec8ff" d="M 483.585938 195.5625 C 485.117188 195.023438 486.765625 194.820312 486.871094 197.242188 C 486.878906 197.441406 486.878906 197.652344 486.871094 197.855469 C 486.742188 200.21875 485.378906 201.566406 483.953125 203.25 C 482.894531 204.496094 481.785156 205.6875 480.617188 206.824219 C 479.546875 207.863281 478.375 208.484375 477.230469 209.40625 C 476.539062 209.960938 475.832031 210.484375 475.097656 210.980469 C 474.753906 211.210938 473.164062 211.890625 473.050781 212.234375 L 474.769531 207.003906 C 475.613281 204.40625 476.488281 201.769531 478.085938 199.550781 C 479.164062 198.066406 480.609375 196.785156 482.324219 196.070312 C 482.714844 195.914062 483.148438 195.726562 483.589844 195.570312 Z M 483.585938 195.5625 " fill-opacity="1" fill-rule="nonzero"/><path fill="#dec8ff" d="M 484.445312 211.726562 C 486.066406 211.570312 487.710938 211.761719 487.238281 214.136719 C 487.199219 214.339844 487.148438 214.535156 487.085938 214.730469 C 486.398438 216.996094 484.761719 217.976562 482.96875 219.28125 C 481.652344 220.242188 480.289062 221.128906 478.878906 221.953125 C 477.589844 222.710938 476.308594 223.03125 474.976562 223.652344 C 474.175781 224.027344 473.359375 224.375 472.527344 224.671875 C 472.136719 224.816406 470.4375 225.097656 470.242188 225.402344 C 471.210938 223.847656 472.183594 222.28125 473.148438 220.722656 C 474.589844 218.40625 476.0625 216.046875 478.144531 214.28125 C 479.546875 213.089844 481.261719 212.183594 483.089844 211.90625 C 483.5 211.84375 483.972656 211.761719 484.4375 211.71875 Z M 484.445312 211.726562 " fill-opacity="1" fill-rule="nonzero"/><path fill="#dec8ff" d="M 465.652344 243.453125 C 465.652344 243.453125 470.601562 233.019531 476.089844 231.09375 C 481.589844 229.171875 483.515625 233.296875 482.960938 235.488281 C 482.414062 237.691406 465.644531 243.453125 465.644531 243.453125 Z M 465.652344 243.453125 " fill-opacity="1" fill-rule="nonzero"/><path fill="#dec8ff" d="M 468.398438 233.832031 C 468.398438 233.832031 465.929688 230.808594 462.625 223.398438 C 459.328125 215.980469 458.503906 211.308594 462.347656 212.128906 C 466.199219 212.953125 469.492188 226.136719 468.390625 233.832031 Z M 468.398438 233.832031 " fill-opacity="1" fill-rule="nonzero"/><path fill="#dec8ff" d="M 437.347656 294.554688 C 437.347656 294.554688 434.875 291.527344 431.570312 284.117188 C 428.277344 276.699219 427.453125 272.027344 431.292969 272.851562 C 435.136719 273.671875 438.441406 286.855469 437.339844 294.554688 Z M 437.347656 294.554688 " fill-opacity="1" fill-rule="nonzero"/><path fill="#dec8ff" d="M 471.695312 214.054688 C 471.695312 214.054688 466.476562 206.089844 464.828125 202.242188 C 463.179688 198.394531 464.003906 194.550781 466.753906 194.273438 C 469.5 194 473.074219 207.457031 471.703125 214.054688 Z M 471.695312 214.054688 " fill-opacity="1" fill-rule="nonzero"/><path fill="#dec8ff" d="M 460.429688 252.789062 C 460.429688 252.789062 457.40625 247.015625 454.386719 240.152344 C 451.359375 233.289062 451.914062 229.164062 456.3125 229.164062 C 460.707031 229.164062 460.429688 252.789062 460.429688 252.789062 Z M 460.429688 252.789062 " fill-opacity="1" fill-rule="nonzero"/><path fill="#dec8ff" d="M 453.285156 267.902344 C 453.285156 267.902344 450.257812 262.867188 447.242188 256.878906 C 444.214844 250.890625 444.769531 247.292969 449.164062 247.292969 C 453.5625 247.292969 453.285156 267.902344 453.285156 267.902344 Z M 453.285156 267.902344 " fill-opacity="1" fill-rule="nonzero"/><path fill="#dec8ff" d="M 445.039062 282.738281 C 445.039062 282.738281 442.011719 277.707031 438.996094 271.71875 C 435.976562 265.726562 436.523438 262.132812 440.917969 262.132812 C 445.316406 262.132812 445.039062 282.738281 445.039062 282.738281 Z M 445.039062 282.738281 " fill-opacity="1" fill-rule="nonzero"/><path fill="#dec8ff" d="M 456.859375 262.410156 C 456.859375 262.410156 469.5 253.066406 475.824219 253.621094 C 482.144531 254.167969 472.796875 265.433594 456.859375 262.410156 Z M 456.859375 262.410156 " fill-opacity="1" fill-rule="nonzero"/><path fill="#dec8ff" d="M 437.347656 295.375 C 437.347656 295.375 449.988281 286.035156 456.3125 286.585938 C 462.632812 287.132812 453.285156 298.402344 437.347656 295.375 Z M 437.347656 295.375 " fill-opacity="1" fill-rule="nonzero"/><path fill="#dec8ff" d="M 448.886719 276.96875 C 448.886719 276.96875 461.53125 267.625 467.851562 268.179688 C 474.175781 268.726562 464.828125 279.992188 448.886719 276.96875 Z M 448.886719 276.96875 " fill-opacity="1" fill-rule="nonzero"/><path fill="#dec8ff" d="M 258.9375 312.5 C 258.9375 312.5 258.886719 312.5 258.855469 312.5 C 258.449219 312.453125 258.167969 312.09375 258.214844 311.691406 C 258.238281 311.496094 260.375 292.011719 259.320312 281.640625 C 258.28125 271.417969 258.683594 245.507812 260.625 230.96875 C 262.496094 216.929688 274.460938 187.066406 274.960938 185.800781 C 275.113281 185.425781 275.539062 185.242188 275.914062 185.394531 C 276.289062 185.542969 276.46875 185.972656 276.320312 186.347656 C 276.191406 186.652344 263.921875 217.304688 262.070312 231.160156 C 260.136719 245.621094 259.730469 271.351562 260.773438 281.496094 C 261.851562 292.027344 259.6875 311.660156 259.664062 311.863281 C 259.621094 312.238281 259.304688 312.515625 258.9375 312.515625 Z M 258.9375 312.5 " fill-opacity="1" fill-rule="nonzero"/><path fill="#dec8ff" d="M 274.078125 189.917969 C 274.078125 189.917969 279.800781 186.539062 282.488281 177.953125 C 285.179688 169.367188 281.359375 169.402344 279.175781 171.007812 C 276.996094 172.609375 274.078125 189.917969 274.078125 189.917969 Z M 274.078125 189.917969 " fill-opacity="1" fill-rule="nonzero"/><path fill="#dec8ff" d="M 269.523438 180.582031 C 268.457031 179.347656 267.128906 178.367188 265.839844 180.410156 C 265.726562 180.582031 265.628906 180.765625 265.539062 180.941406 C 264.476562 183.058594 264.992188 184.902344 265.398438 187.082031 C 265.695312 188.683594 266.070312 190.269531 266.519531 191.835938 C 266.933594 193.265625 267.640625 194.386719 268.179688 195.75 C 268.503906 196.574219 268.863281 197.382812 269.253906 198.175781 C 269.441406 198.546875 270.472656 199.925781 270.40625 200.28125 C 270.773438 198.484375 271.148438 196.6875 271.515625 194.878906 C 272.0625 192.210938 272.617188 189.484375 272.332031 186.765625 C 272.136719 184.941406 271.515625 183.105469 270.375 181.644531 C 270.121094 181.3125 269.835938 180.941406 269.523438 180.582031 Z M 269.523438 180.582031 " fill-opacity="1" fill-rule="nonzero"/><path fill="#dec8ff" d="M 260.757812 194.183594 C 259.433594 193.242188 257.90625 192.597656 257.144531 194.894531 C 257.074219 195.089844 257.023438 195.285156 256.976562 195.488281 C 256.445312 197.804688 257.390625 199.460938 258.304688 201.484375 C 258.976562 202.964844 259.71875 204.417969 260.527344 205.835938 C 261.269531 207.132812 262.226562 208.042969 263.074219 209.25 C 263.582031 209.96875 264.125 210.671875 264.691406 211.347656 C 264.960938 211.660156 266.296875 212.75 266.3125 213.109375 C 266.242188 211.277344 266.175781 209.445312 266.101562 207.609375 C 265.996094 204.882812 265.882812 202.109375 264.960938 199.539062 C 264.339844 197.808594 263.292969 196.175781 261.835938 195.03125 C 261.507812 194.769531 261.140625 194.476562 260.757812 194.199219 Z M 260.757812 194.183594 " fill-opacity="1" fill-rule="nonzero"/><path fill="#dec8ff" d="M 261.34375 231.058594 C 261.34375 231.058594 262.21875 219.542969 258.398438 215.148438 C 254.582031 210.753906 250.863281 213.382812 250.25 215.5625 C 249.636719 217.738281 261.335938 231.058594 261.335938 231.058594 Z M 261.34375 231.058594 " fill-opacity="1" fill-rule="nonzero"/><path fill="#dec8ff" d="M 263.726562 221.339844 C 263.726562 221.339844 267.375 219.941406 273.914062 215.132812 C 280.457031 210.328125 283.484375 206.675781 279.738281 205.484375 C 275.988281 204.292969 266.589844 214.117188 263.726562 221.339844 Z M 263.726562 221.339844 " fill-opacity="1" fill-rule="nonzero"/><path fill="#dec8ff" d="M 260.59375 289.460938 C 260.59375 289.460938 264.242188 288.0625 270.78125 283.253906 C 277.324219 278.445312 280.351562 274.792969 276.605469 273.601562 C 272.855469 272.414062 263.457031 282.234375 260.59375 289.460938 Z M 260.59375 289.460938 " fill-opacity="1" fill-rule="nonzero"/><path fill="#dec8ff" d="M 270.667969 202.527344 C 270.667969 202.527344 279.15625 198.191406 282.496094 195.667969 C 285.835938 193.144531 287.027344 189.394531 284.773438 187.792969 C 282.519531 186.1875 272.742188 196.109375 270.667969 202.519531 Z M 270.667969 202.527344 " fill-opacity="1" fill-rule="nonzero"/><path fill="#dec8ff" d="M 261.253906 241.757812 C 261.253906 241.757812 266.746094 238.242188 272.773438 233.773438 C 278.800781 229.304688 280.367188 225.457031 276.546875 223.28125 C 272.730469 221.097656 261.253906 241.757812 261.253906 241.757812 Z M 261.253906 241.757812 " fill-opacity="1" fill-rule="nonzero"/><path fill="#dec8ff" d="M 259.964844 258.421875 C 259.964844 258.421875 265.089844 255.546875 270.683594 251.847656 C 276.28125 248.140625 277.582031 244.75 273.761719 242.570312 C 269.941406 240.394531 259.964844 258.429688 259.964844 258.429688 Z M 259.964844 258.421875 " fill-opacity="1" fill-rule="nonzero"/><path fill="#dec8ff" d="M 259.769531 275.386719 C 259.769531 275.386719 264.894531 272.511719 270.488281 268.8125 C 276.085938 265.105469 277.386719 261.714844 273.566406 259.539062 C 269.746094 257.359375 259.769531 275.394531 259.769531 275.394531 Z M 259.769531 275.386719 " fill-opacity="1" fill-rule="nonzero"/><path fill="#dec8ff" d="M 259.582031 251.875 C 259.582031 251.875 253.230469 237.503906 247.472656 234.84375 C 241.710938 232.1875 244.242188 246.609375 259.582031 251.875 Z M 259.582031 251.875 " fill-opacity="1" fill-rule="nonzero"/><path fill="#dec8ff" d="M 260.1875 290.179688 C 260.1875 290.179688 253.839844 275.804688 248.082031 273.148438 C 242.316406 270.488281 244.851562 284.910156 260.1875 290.179688 Z M 260.1875 290.179688 " fill-opacity="1" fill-rule="nonzero"/><path fill="#dec8ff" d="M 259.289062 268.46875 C 259.289062 268.46875 252.941406 254.09375 247.179688 251.433594 C 241.417969 248.777344 243.953125 263.199219 259.289062 268.46875 Z M 259.289062 268.46875 " fill-opacity="1" fill-rule="nonzero"/><path fill="#dec8ff" d="M 234.417969 285.515625 C 234.417969 285.515625 229.773438 281.9375 229.382812 275.492188 C 228.996094 269.042969 231.238281 264.902344 235.660156 266.542969 C 240.082031 268.183594 238.035156 281.625 234.421875 285.515625 Z M 234.417969 285.515625 " fill-opacity="1" fill-rule="nonzero"/><path fill="#dec8ff" d="M 247 281.324219 C 249.183594 282.566406 248.628906 285.523438 247.277344 287.140625 C 246.214844 288.414062 244.746094 289.304688 243.390625 290.226562 C 241.972656 291.179688 239.976562 291.617188 238.296875 291.757812 C 237.054688 291.871094 235.433594 291.503906 235.246094 290.269531 C 236.46875 288.242188 237.707031 286.199219 239.308594 284.445312 C 241.074219 282.519531 244.242188 279.757812 246.992188 281.316406 Z M 247 281.324219 " fill-opacity="1" fill-rule="nonzero"/><path fill="#dec8ff" d="M 243.996094 295.277344 C 246.019531 296.769531 245.105469 299.640625 243.578125 301.085938 C 242.371094 302.226562 240.804688 302.9375 239.355469 303.6875 C 237.832031 304.46875 235.800781 304.65625 234.117188 304.605469 C 232.863281 304.566406 231.304688 304.011719 231.269531 302.765625 C 232.730469 300.890625 234.199219 299.015625 235.996094 297.464844 C 237.984375 295.761719 241.457031 293.398438 244.003906 295.269531 Z M 243.996094 295.277344 " fill-opacity="1" fill-rule="nonzero"/><path fill="#dec8ff" d="M 224.445312 282.757812 C 223.847656 282.414062 223.179688 282.09375 222.492188 282.128906 C 221.265625 282.199219 220.328125 283.410156 220.210938 284.640625 C 220.089844 285.867188 220.589844 287.0625 221.183594 288.144531 C 222.257812 290.097656 223.691406 291.847656 225.382812 293.308594 C 226.230469 294.035156 227.136719 294.695312 228.097656 295.269531 C 228.941406 295.769531 230.035156 296.511719 231.039062 296.609375 C 233.226562 296.820312 232.820312 294.148438 232.429688 292.867188 C 231.824219 290.898438 230.875 289.042969 229.640625 287.394531 C 228.246094 285.53125 226.476562 283.929688 224.453125 282.757812 Z M 224.445312 282.757812 " fill-opacity="1" fill-rule="nonzero"/><path fill="#dec8ff" d="M 221.8125 294.214844 C 221.28125 293.765625 220.6875 293.332031 220 293.242188 C 218.777344 293.085938 217.640625 294.113281 217.292969 295.292969 C 216.949219 296.476562 217.226562 297.75 217.617188 298.917969 C 218.320312 301.035156 219.414062 303.019531 220.808594 304.753906 C 221.503906 305.625 222.273438 306.441406 223.113281 307.175781 C 223.855469 307.828125 224.792969 308.746094 225.765625 309.023438 C 227.878906 309.628906 227.96875 306.929688 227.8125 305.59375 C 227.570312 303.550781 226.972656 301.550781 226.058594 299.707031 C 225.023438 297.621094 223.578125 295.726562 221.804688 294.214844 Z M 221.8125 294.214844 " fill-opacity="1" fill-rule="nonzero"/><path fill="#dec8ff" d="M 223.871094 318.050781 C 223.742188 318.261719 223.613281 318.5 223.675781 318.742188 C 223.742188 319.035156 224.050781 319.191406 224.335938 319.289062 C 225.683594 319.730469 227.167969 319.511719 228.539062 319.136719 C 231.410156 318.359375 234.117188 316.929688 236.378906 314.992188 C 237.269531 314.226562 238.132812 313.320312 238.441406 312.191406 C 238.746094 311.054688 238.3125 309.644531 237.226562 309.195312 C 236.730469 308.992188 236.175781 309.007812 235.644531 309.066406 C 231.929688 309.515625 228.554688 312.222656 226.164062 314.929688 C 225.308594 315.90625 224.535156 316.945312 223.871094 318.050781 Z M 223.871094 318.050781 " fill-opacity="1" fill-rule="nonzero"/><path fill="#dec8ff" d="M 221.25 319.96875 C 221.460938 320.097656 221.707031 320.21875 221.949219 320.15625 C 222.234375 320.082031 222.394531 319.773438 222.484375 319.484375 C 222.910156 318.125 222.664062 316.65625 222.273438 315.28125 C 221.460938 312.417969 219.992188 309.734375 218.015625 307.503906 C 217.234375 306.621094 216.320312 305.773438 215.179688 305.488281 C 214.042969 305.199219 212.636719 305.65625 212.203125 306.75 C 212.007812 307.242188 212.03125 307.796875 212.097656 308.328125 C 212.601562 312.035156 215.347656 315.371094 218.097656 317.722656 C 219.078125 318.5625 220.132812 319.316406 221.257812 319.96875 Z M 221.25 319.96875 " fill-opacity="1" fill-rule="nonzero"/><path fill="#dec8ff" d="M 222.015625 322.160156 C 223.691406 317.015625 225.644531 313.582031 227.554688 310.257812 C 229.4375 306.980469 231.203125 303.875 232.585938 299.375 C 235.660156 289.371094 234.632812 284.445312 234.589844 284.242188 L 233.875 284.398438 C 233.882812 284.445312 234.894531 289.363281 231.890625 299.15625 C 230.539062 303.582031 228.785156 306.644531 226.925781 309.890625 C 224.980469 313.304688 222.96875 316.820312 221.257812 322.160156 L 222.03125 322.160156 Z M 222.015625 322.160156 " fill-opacity="1" fill-rule="nonzero"/><path fill="#7fbdbc" d="M 312.285156 169.546875 C 312.285156 169.546875 311.183594 159.933594 305.960938 150.589844 C 300.742188 141.25 294.964844 140.703125 291.394531 142.902344 C 287.820312 145.105469 290.023438 153.894531 295.511719 158.011719 C 301.011719 162.128906 304.582031 173.671875 303.757812 177.511719 Z M 312.285156 169.546875 " fill-opacity="1" fill-rule="nonzero"/><path fill="#000000" d="M 310.914062 175.042969 C 310.863281 175.042969 310.808594 175.027344 310.765625 174.996094 C 306.972656 172.472656 305.234375 166.472656 303.699219 161.183594 C 303.179688 159.386719 302.691406 157.6875 302.144531 156.183594 C 300 150.304688 294.628906 147.296875 294.570312 147.265625 C 294.4375 147.191406 294.390625 147.027344 294.46875 146.890625 C 294.542969 146.757812 294.703125 146.710938 294.835938 146.785156 C 294.890625 146.816406 300.449219 149.933594 302.660156 156.003906 C 303.214844 157.523438 303.707031 159.230469 304.230469 161.035156 C 305.738281 166.238281 307.453125 172.128906 311.078125 174.546875 C 311.207031 174.628906 311.238281 174.804688 311.15625 174.929688 C 311.101562 175.011719 311.011719 175.050781 310.921875 175.050781 Z M 310.914062 175.042969 " fill-opacity="1" fill-rule="nonzero"/><path fill="#95ccd5" d="M 308.769531 172.261719 C 307.878906 168.273438 306.664062 164.363281 305.136719 160.570312 C 303.109375 155.53125 300.523438 150.707031 298.839844 145.554688 C 297.152344 140.394531 296.394531 134.703125 298.105469 129.550781 C 298.628906 127.976562 299.410156 126.429688 300.667969 125.335938 C 301.925781 124.25 303.726562 123.691406 305.300781 124.234375 C 306.402344 124.617188 307.363281 125.503906 308.523438 125.496094 C 309.558594 125.488281 310.425781 124.777344 311.257812 124.152344 C 312.675781 123.09375 314.253906 122.1875 315.992188 121.84375 C 317.730469 121.496094 319.65625 121.789062 321.027344 122.90625 C 322.605469 124.183594 323.234375 126.3125 323.464844 128.332031 C 324.066406 133.46875 322.707031 138.597656 322.058594 143.726562 C 321.410156 148.855469 321.582031 154.492188 324.730469 158.59375 L 308.765625 172.253906 Z M 308.769531 172.261719 " fill-opacity="1" fill-rule="nonzero"/><path fill="#8b95c9" d="M 323.824219 158.289062 C 323.824219 158.289062 316.402344 153.070312 316.132812 145.652344 C 315.855469 138.230469 321.90625 134.382812 319.707031 126.972656 C 317.503906 119.550781 311.738281 114.882812 315.585938 110.484375 C 319.4375 106.089844 323.554688 107.734375 326.582031 112.683594 C 329.609375 117.632812 332.601562 124.476562 331.253906 129.71875 C 328.785156 139.332031 321.640625 144.003906 330.976562 153.347656 L 323.832031 158.296875 Z M 323.824219 158.289062 " fill-opacity="1" fill-rule="nonzero"/><path fill="#000000" d="M 328.777344 155.261719 C 328.734375 155.261719 328.6875 155.253906 328.652344 155.230469 C 328.480469 155.140625 324.402344 152.90625 322.738281 146.539062 C 321.722656 142.640625 322.972656 138.09375 324.078125 134.082031 C 324.800781 131.464844 325.480469 128.992188 325.480469 126.972656 C 325.480469 121.894531 319.8125 113.472656 319.761719 113.390625 C 319.679688 113.261719 319.707031 113.089844 319.835938 113.007812 C 319.960938 112.925781 320.136719 112.957031 320.21875 113.082031 C 320.457031 113.433594 326.035156 121.730469 326.035156 126.972656 C 326.035156 129.066406 325.347656 131.574219 324.613281 134.230469 C 323.527344 138.175781 322.296875 142.652344 323.277344 146.402344 C 324.875 152.523438 328.875 154.730469 328.914062 154.742188 C 329.046875 154.820312 329.101562 154.984375 329.027344 155.117188 C 328.972656 155.207031 328.882812 155.261719 328.785156 155.261719 Z M 328.777344 155.261719 " fill-opacity="1" fill-rule="nonzero"/><path fill="#e5fff5" d="M 343.15625 146.808594 C 342.871094 146.628906 336.183594 142.21875 333.667969 130.886719 C 331.015625 118.953125 337.863281 104.886719 340.65625 101.113281 L 341.246094 101.546875 C 338.507812 105.253906 331.785156 119.042969 334.386719 130.730469 C 336.835938 141.746094 343.496094 146.148438 343.5625 146.195312 L 343.164062 146.808594 Z M 343.15625 146.808594 " fill-opacity="1" fill-rule="nonzero"/><path fill="#e5fff5" d="M 340.039062 102.515625 C 340.039062 102.515625 339.453125 100.363281 341.507812 96.34375 C 343.570312 92.324219 345.441406 92.519531 346.589844 93.625 C 347.734375 94.722656 345.441406 101.253906 340.039062 102.515625 Z M 340.039062 102.515625 " fill-opacity="1" fill-rule="nonzero"/><path fill="#e5fff5" d="M 336.09375 110.277344 C 336.09375 110.277344 334.671875 109.960938 333.847656 105.949219 C 333.023438 101.933594 333.609375 99.292969 335.234375 98.683594 C 336.859375 98.078125 337.675781 106.46875 336.089844 110.277344 Z M 336.09375 110.277344 " fill-opacity="1" fill-rule="nonzero"/><path fill="#e5fff5" d="M 335.839844 111.921875 C 335.839844 111.921875 338.074219 108.574219 340.84375 106.628906 C 343.613281 104.683594 345.300781 105.265625 344.875 107.195312 C 344.445312 109.128906 335.839844 111.921875 335.839844 111.921875 Z M 335.839844 111.921875 " fill-opacity="1" fill-rule="nonzero"/><path fill="#e5fff5" d="M 334.058594 118.5625 C 334.058594 118.5625 336.269531 115.320312 338.761719 114.160156 C 341.253906 113.007812 343.351562 112.191406 342.960938 114.445312 C 342.574219 116.699219 334.066406 118.554688 334.066406 118.554688 Z M 334.058594 118.5625 " fill-opacity="1" fill-rule="nonzero"/><path fill="#e5fff5" d="M 329.039062 114.363281 C 328.328125 113.046875 327.910156 111.539062 328.058594 110.050781 C 328.113281 109.527344 328.285156 108.941406 328.753906 108.695312 C 329.4375 108.34375 330.230469 108.921875 330.71875 109.511719 C 330.867188 109.691406 331 109.878906 331.136719 110.066406 C 331.972656 111.261719 332.535156 112.640625 332.917969 114.050781 C 333.121094 114.796875 333.226562 115.589844 333.398438 116.351562 C 333.488281 116.765625 333.585938 117.175781 333.691406 117.589844 C 333.726562 117.738281 333.871094 118.730469 333.988281 118.773438 C 333.136719 118.445312 332.332031 117.988281 331.613281 117.425781 C 331.261719 117.148438 330.925781 116.839844 330.621094 116.519531 C 330.496094 116.375 330.359375 116.261719 330.21875 116.136719 C 329.707031 115.679688 329.371094 114.957031 329.046875 114.363281 Z M 329.039062 114.363281 " fill-opacity="1" fill-rule="nonzero"/><path fill="#e5fff5" d="M 331.507812 121.183594 C 330.367188 119.578125 328.761719 118.226562 326.84375 117.769531 C 326.46875 117.679688 326.027344 117.632812 325.726562 117.875 C 325.453125 118.097656 325.375 118.488281 325.375 118.839844 C 325.375 119.832031 325.789062 120.792969 326.394531 121.578125 C 327.003906 122.367188 327.78125 123.003906 328.582031 123.582031 C 329.273438 124.070312 329.984375 124.535156 330.71875 124.960938 C 331.097656 125.1875 331.480469 125.398438 331.875 125.601562 C 332.207031 125.773438 332.582031 126.027344 332.941406 126.109375 C 334.070312 126.378906 333.105469 123.953125 332.941406 123.609375 C 332.527344 122.765625 332.070312 121.9375 331.523438 121.175781 Z M 331.507812 121.183594 " fill-opacity="1" fill-rule="nonzero"/><path fill="#e5fff5" d="M 339.453125 123.28125 C 340.011719 122.554688 340.519531 121.757812 340.730469 120.867188 C 340.851562 120.351562 340.828125 119.707031 340.386719 119.414062 C 340.054688 119.199219 339.625 119.253906 339.25 119.359375 C 337.496094 119.828125 336.019531 121.109375 335.0625 122.652344 C 334.574219 123.4375 334.207031 124.289062 333.9375 125.171875 C 333.800781 125.613281 333.691406 126.058594 333.601562 126.515625 C 333.53125 126.835938 333.34375 127.332031 333.601562 127.609375 C 333.878906 127.90625 334.246094 127.621094 334.523438 127.472656 C 334.890625 127.269531 335.242188 127.0625 335.585938 126.835938 C 336.28125 126.378906 336.949219 125.871094 337.570312 125.308594 C 338.253906 124.6875 338.882812 124.011719 339.453125 123.28125 Z M 339.453125 123.28125 " fill-opacity="1" fill-rule="nonzero"/><path fill="#e5fff5" d="M 330.621094 128.75 C 329.640625 127.734375 328.570312 126.664062 327.183594 126.386719 C 326.523438 126.25 325.75 126.355469 325.324219 126.882812 C 325.015625 127.261719 324.957031 127.789062 325.015625 128.269531 C 325.136719 129.246094 325.683594 130.128906 326.402344 130.804688 C 327.121094 131.476562 328 131.949219 328.890625 132.347656 C 330.21875 132.933594 331.675781 133.390625 333.152344 133.28125 C 333.539062 133.25 333.996094 133.207031 334.355469 133.039062 C 334.183594 132.46875 333.839844 132.09375 333.433594 131.664062 C 332.84375 131.050781 332.242188 130.429688 331.652344 129.816406 C 331.308594 129.460938 330.96875 129.101562 330.628906 128.75 Z M 330.621094 128.75 " fill-opacity="1" fill-rule="nonzero"/><path fill="#e5fff5" d="M 338.582031 127.105469 C 339.152344 126.519531 340.046875 126.042969 340.753906 126.460938 C 341.425781 126.867188 341.464844 127.832031 341.246094 128.578125 C 340.984375 129.492188 340.476562 130.308594 339.945312 131.089844 C 339.003906 132.460938 337.953125 133.757812 336.816406 134.972656 C 336.492188 135.316406 336.171875 135.691406 335.8125 135.984375 C 335.832031 135.316406 335.984375 134.628906 336.050781 133.960938 C 336.09375 133.519531 336.132812 133.078125 336.207031 132.636719 C 336.394531 131.449219 336.753906 130.21875 337.257812 129.117188 C 337.59375 128.375 338.027344 127.683594 338.597656 127.105469 Z M 338.582031 127.105469 " fill-opacity="1" fill-rule="nonzero"/><path fill="#e5fff5" d="M 328.433594 135.003906 C 327.773438 134.914062 327.09375 134.855469 326.460938 135.070312 C 325.832031 135.289062 325.285156 135.859375 325.285156 136.523438 C 325.285156 137.164062 325.773438 137.703125 326.269531 138.125 C 326.761719 138.542969 327.308594 138.933594 327.9375 139.082031 C 328.605469 139.242188 329.304688 139.121094 329.976562 139 C 330.976562 138.820312 331.972656 138.648438 332.976562 138.46875 C 333.472656 138.378906 333.960938 138.296875 334.453125 138.207031 C 334.917969 138.125 335.519531 138.117188 335.953125 137.9375 C 336.117188 137.871094 336.132812 137.898438 335.996094 137.765625 C 335.886719 137.644531 335.652344 137.5625 335.519531 137.480469 C 335.105469 137.238281 334.695312 137.015625 334.265625 136.808594 C 333.40625 136.382812 332.507812 136.023438 331.585938 135.730469 C 330.5625 135.402344 329.503906 135.160156 328.433594 135.011719 Z M 328.433594 135.003906 " fill-opacity="1" fill-rule="nonzero"/><path fill="#e5fff5" d="M 341.308594 134.480469 C 341.785156 134.042969 342.410156 133.648438 343.039062 133.789062 C 343.652344 133.933594 344.050781 134.582031 344.085938 135.222656 C 344.125 135.859375 343.878906 136.464844 343.605469 137.039062 C 343.128906 138.035156 342.550781 138.984375 341.882812 139.863281 C 341.546875 140.3125 341.1875 140.738281 340.804688 141.152344 C 340.527344 141.441406 340.242188 141.828125 339.804688 141.835938 C 339.046875 141.851562 338.613281 140.957031 338.605469 140.304688 C 338.605469 139.300781 338.90625 138.238281 339.296875 137.324219 C 339.757812 136.253906 340.4375 135.265625 341.300781 134.480469 Z M 341.308594 134.480469 " fill-opacity="1" fill-rule="nonzero"/><path fill="#e5fff5" d="M 332.597656 141.449219 C 331.839844 141.589844 331.015625 141.90625 330.726562 142.617188 C 330.472656 143.230469 330.726562 143.972656 331.226562 144.40625 C 331.726562 144.84375 332.417969 145 333.074219 144.976562 C 333.734375 144.953125 334.378906 144.765625 335.015625 144.585938 L 337.640625 143.824219 C 338.074219 143.695312 338.507812 143.574219 338.933594 143.449219 C 339.199219 143.367188 339.40625 143.269531 339.300781 142.953125 C 339.09375 142.324219 338.199219 142.039062 337.652344 141.84375 C 336.890625 141.574219 336.089844 141.394531 335.269531 141.324219 C 334.355469 141.242188 333.488281 141.324219 332.582031 141.449219 Z M 332.597656 141.449219 " fill-opacity="1" fill-rule="nonzero"/><path fill="#a9d5d7" d="M 330.96875 153.339844 C 330.96875 153.339844 323.824219 149.492188 325.195312 136.855469 C 326.566406 124.214844 336.46875 119 341.6875 115.148438 C 346.910156 111.300781 353.507812 114.328125 352.128906 119.542969 C 350.757812 124.761719 345.261719 124.492188 340.308594 128.886719 C 335.359375 133.28125 332.339844 140.980469 338.109375 147.296875 L 330.960938 153.339844 Z M 330.96875 153.339844 " fill-opacity="1" fill-rule="nonzero"/><path fill="#000000" d="M 333.996094 151.78125 C 333.871094 151.78125 333.75 151.71875 333.683594 151.601562 C 332.160156 149.070312 328.613281 143.15625 330.890625 133.46875 C 332.050781 128.535156 335.789062 124.84375 338.71875 122.613281 C 341.875 120.207031 344.722656 118.984375 344.84375 118.929688 C 345.03125 118.847656 345.25 118.929688 345.324219 119.125 C 345.40625 119.3125 345.324219 119.527344 345.128906 119.601562 C 345.015625 119.652344 333.726562 124.589844 331.597656 133.632812 C 329.394531 143.027344 332.835938 148.765625 334.304688 151.21875 C 334.410156 151.390625 334.347656 151.617188 334.175781 151.71875 C 334.117188 151.757812 334.050781 151.773438 333.988281 151.773438 Z M 333.996094 151.78125 " fill-opacity="1" fill-rule="nonzero"/><path fill="#cebcff" d="M 318.007812 165.464844 C 317.632812 165.242188 308.769531 159.925781 307.316406 151.617188 C 306.507812 146.988281 306.785156 144.003906 307.054688 141.113281 C 307.265625 138.835938 307.46875 136.683594 307.109375 133.878906 C 306.304688 127.691406 304.515625 125.21875 304.492188 125.195312 L 305.078125 124.753906 C 305.152344 124.859375 307.003906 127.375 307.828125 133.78125 C 308.203125 136.667969 307.992188 138.859375 307.773438 141.175781 C 307.511719 144.019531 307.234375 146.957031 308.03125 151.480469 C 309.421875 159.453125 318.277344 164.777344 318.367188 164.828125 L 317.992188 165.460938 Z M 318.007812 165.464844 " fill-opacity="1" fill-rule="nonzero"/><path fill="#cebcff" d="M 305.203125 125.59375 C 305.203125 125.59375 301.703125 124.769531 299.84375 121.265625 C 297.984375 117.761719 298.195312 114.882812 301.078125 114.671875 C 303.960938 114.460938 306.230469 122.5 305.195312 125.59375 Z M 305.203125 125.59375 " fill-opacity="1" fill-rule="nonzero"/><path fill="#cebcff" d="M 311.175781 120.066406 C 312.710938 120.207031 313.152344 122.007812 312.804688 123.25 C 312.539062 124.226562 311.941406 125.105469 311.417969 125.960938 C 310.871094 126.859375 309.859375 127.601562 308.957031 128.109375 C 308.292969 128.480469 307.296875 128.691406 306.875 128.050781 C 307.046875 126.605469 307.210938 125.144531 307.667969 123.769531 C 308.164062 122.238281 309.242188 119.894531 311.175781 120.066406 Z M 311.175781 120.066406 " fill-opacity="1" fill-rule="nonzero"/><path fill="#cebcff" d="M 313.039062 128.625 C 314.542969 128.945312 314.769531 130.789062 314.28125 131.980469 C 313.894531 132.921875 313.203125 133.714844 312.585938 134.5 C 311.933594 135.324219 310.847656 135.949219 309.886719 136.34375 C 309.175781 136.636719 308.164062 136.726562 307.828125 136.039062 C 308.164062 134.621094 308.507812 133.199219 309.125 131.875 C 309.796875 130.421875 311.148438 128.210938 313.039062 128.617188 Z M 313.039062 128.625 " fill-opacity="1" fill-rule="nonzero"/><path fill="#cebcff" d="M 298.9375 126.582031 C 298.507812 126.535156 298.058594 126.527344 297.683594 126.722656 C 297.011719 127.070312 296.800781 127.988281 297.046875 128.707031 C 297.289062 129.425781 297.878906 129.964844 298.480469 130.421875 C 299.582031 131.238281 300.824219 131.859375 302.136719 132.242188 C 302.796875 132.4375 303.46875 132.570312 304.140625 132.644531 C 304.738281 132.710938 305.542969 132.84375 306.125 132.644531 C 307.40625 132.210938 306.5 130.820312 305.953125 130.203125 C 305.113281 129.261719 304.109375 128.457031 303.003906 127.855469 C 301.746094 127.164062 300.359375 126.714844 298.929688 126.582031 Z M 298.9375 126.582031 " fill-opacity="1" fill-rule="nonzero"/><path fill="#cebcff" d="M 300.367188 133.65625 C 299.957031 133.535156 299.511719 133.445312 299.109375 133.566406 C 298.382812 133.78125 298.007812 134.652344 298.121094 135.402344 C 298.230469 136.148438 298.703125 136.792969 299.222656 137.34375 C 300.152344 138.347656 301.265625 139.179688 302.488281 139.804688 C 303.101562 140.109375 303.734375 140.371094 304.386719 140.566406 C 304.964844 140.746094 305.730469 141.023438 306.335938 140.925781 C 307.667969 140.730469 307.03125 139.195312 306.613281 138.492188 C 305.960938 137.414062 305.121094 136.441406 304.140625 135.648438 C 303.035156 134.742188 301.746094 134.042969 300.367188 133.65625 Z M 300.367188 133.65625 " fill-opacity="1" fill-rule="nonzero"/><path fill="#cebcff" d="M 307.566406 146.457031 C 307.550781 146.605469 307.535156 146.769531 307.632812 146.890625 C 307.746094 147.035156 307.960938 147.046875 308.140625 147.027344 C 309.011719 146.929688 309.78125 146.433594 310.457031 145.878906 C 311.875 144.714844 313.015625 143.230469 313.789062 141.566406 C 314.09375 140.910156 314.34375 140.191406 314.230469 139.480469 C 314.109375 138.769531 313.511719 138.085938 312.792969 138.109375 C 312.464844 138.117188 312.160156 138.265625 311.882812 138.4375 C 309.917969 139.636719 308.710938 142.003906 308.066406 144.121094 C 307.835938 144.878906 307.667969 145.667969 307.578125 146.449219 Z M 307.566406 146.457031 " fill-opacity="1" fill-rule="nonzero"/><path fill="#cebcff" d="M 306.589844 148.195312 C 306.742188 148.210938 306.90625 148.21875 307.027344 148.128906 C 307.167969 148.015625 307.175781 147.796875 307.152344 147.617188 C 307.046875 146.75 306.539062 145.984375 305.96875 145.320312 C 304.785156 143.929688 303.28125 142.796875 301.613281 142.046875 C 300.953125 141.753906 300.226562 141.507812 299.511719 141.636719 C 298.800781 141.761719 298.136719 142.371094 298.164062 143.097656 C 298.179688 143.425781 298.328125 143.726562 298.507812 144.003906 C 299.730469 145.945312 302.121094 147.117188 304.246094 147.738281 C 305.007812 147.960938 305.789062 148.113281 306.582031 148.195312 Z M 306.589844 148.195312 " fill-opacity="1" fill-rule="nonzero"/><path fill="#cebcff" d="M 307.59375 154.3125 C 307.746094 154.289062 307.910156 154.253906 308 154.125 C 308.105469 153.976562 308.058594 153.765625 307.992188 153.601562 C 307.65625 152.792969 306.964844 152.191406 306.238281 151.707031 C 304.726562 150.679688 302.984375 149.992188 301.167969 149.714844 C 300.457031 149.605469 299.695312 149.566406 299.042969 149.882812 C 298.390625 150.191406 297.902344 150.957031 298.136719 151.644531 C 298.238281 151.960938 298.464844 152.207031 298.703125 152.433594 C 300.40625 153.984375 303.011719 154.476562 305.226562 154.5 C 306.019531 154.507812 306.816406 154.449219 307.601562 154.320312 Z M 307.59375 154.3125 " fill-opacity="1" fill-rule="nonzero"/><path fill="#cebcff" d="M 312.449219 161.5 C 312.578125 161.417969 312.714844 161.320312 312.742188 161.167969 C 312.777344 160.988281 312.652344 160.816406 312.527344 160.691406 C 311.894531 160.082031 311.027344 159.804688 310.164062 159.640625 C 308.367188 159.296875 306.484375 159.355469 304.71875 159.820312 C 304.019531 160 303.304688 160.269531 302.832031 160.816406 C 302.359375 161.363281 302.21875 162.257812 302.699219 162.796875 C 302.914062 163.042969 303.222656 163.183594 303.539062 163.289062 C 305.707031 164.035156 308.300781 163.457031 310.34375 162.609375 C 311.078125 162.300781 311.785156 161.933594 312.449219 161.5 Z M 312.449219 161.5 " fill-opacity="1" fill-rule="nonzero"/><path fill="#cebcff" d="M 310.398438 156.902344 C 310.425781 157.050781 310.472656 157.210938 310.601562 157.292969 C 310.757812 157.390625 310.960938 157.335938 311.125 157.253906 C 311.910156 156.878906 312.480469 156.160156 312.933594 155.410156 C 313.894531 153.847656 314.492188 152.074219 314.679688 150.25 C 314.753906 149.535156 314.753906 148.773438 314.417969 148.136719 C 314.074219 147.5 313.285156 147.046875 312.617188 147.3125 C 312.308594 147.429688 312.070312 147.671875 311.859375 147.917969 C 310.390625 149.6875 310.023438 152.3125 310.097656 154.53125 C 310.128906 155.320312 310.226562 156.117188 310.398438 156.886719 Z M 310.398438 156.902344 " fill-opacity="1" fill-rule="nonzero"/><path fill="#cebcff" d="M 315.820312 163.367188 C 315.878906 163.503906 315.960938 163.652344 316.097656 163.714844 C 316.269531 163.78125 316.457031 163.683594 316.605469 163.570312 C 317.300781 163.050781 317.707031 162.226562 318 161.402344 C 318.613281 159.679688 318.832031 157.816406 318.644531 155.996094 C 318.570312 155.277344 318.410156 154.53125 317.945312 153.984375 C 317.480469 153.429688 316.613281 153.160156 316.007812 153.550781 C 315.730469 153.730469 315.542969 154.011719 315.390625 154.296875 C 314.320312 156.324219 314.507812 158.972656 315.039062 161.132812 C 315.234375 161.902344 315.488281 162.660156 315.820312 163.375 Z M 315.820312 163.367188 " fill-opacity="1" fill-rule="nonzero"/><path fill="#e5fff5" d="M 305.007812 175.941406 C 304.90625 175.90625 294.761719 172.019531 288.316406 158.167969 C 281.523438 143.574219 286.335938 123.535156 288.863281 117.890625 L 289.527344 118.1875 C 287.042969 123.753906 282.292969 143.492188 288.972656 157.859375 C 295.289062 171.417969 305.160156 175.214844 305.257812 175.253906 L 305.003906 175.941406 Z M 305.007812 175.941406 " fill-opacity="1" fill-rule="nonzero"/><path fill="#e5fff5" d="M 288.375 119.828125 C 288.375 119.828125 287.003906 117.214844 288.507812 111.449219 C 290.023438 105.679688 292.496094 105.410156 294.285156 106.5 C 296.074219 107.601562 294.972656 116.667969 288.375 119.828125 Z M 288.375 119.828125 " fill-opacity="1" fill-rule="nonzero"/><path fill="#e5fff5" d="M 285.488281 130.953125 C 285.488281 130.953125 283.558594 130.953125 281.363281 126.003906 C 279.167969 121.054688 279.160156 117.484375 281.085938 116.25 C 283.011719 115.011719 286.449219 125.59375 285.488281 130.945312 Z M 285.488281 130.953125 " fill-opacity="1" fill-rule="nonzero"/><path fill="#e5fff5" d="M 285.625 133.144531 C 285.625 133.144531 287.550781 128.195312 290.578125 124.902344 C 293.605469 121.609375 295.9375 121.878906 295.9375 124.492188 C 295.9375 127.105469 285.632812 133.144531 285.632812 133.144531 Z M 285.625 133.144531 " fill-opacity="1" fill-rule="nonzero"/><path fill="#e5fff5" d="M 285.214844 142.210938 C 285.214844 142.210938 287.136719 137.40625 290.023438 135.207031 C 292.910156 133.003906 295.382812 131.359375 295.519531 134.382812 C 295.65625 137.40625 285.214844 142.210938 285.214844 142.210938 Z M 285.214844 142.210938 " fill-opacity="1" fill-rule="nonzero"/><path fill="#e5fff5" d="M 277.542969 138.214844 C 276.257812 136.71875 275.285156 134.898438 275.058594 132.933594 C 274.976562 132.242188 275.035156 131.449219 275.578125 131 C 276.355469 130.347656 277.535156 130.863281 278.335938 131.5 C 278.578125 131.695312 278.808594 131.890625 279.035156 132.101562 C 280.457031 133.40625 281.574219 135.019531 282.464844 136.726562 C 282.9375 137.628906 283.296875 138.625 283.734375 139.5625 C 283.972656 140.074219 284.210938 140.574219 284.460938 141.078125 C 284.550781 141.265625 285.007812 142.488281 285.179688 142.511719 C 283.988281 142.332031 282.820312 141.972656 281.730469 141.449219 C 281.199219 141.195312 280.683594 140.898438 280.1875 140.558594 C 279.980469 140.417969 279.777344 140.304688 279.558594 140.183594 C 278.773438 139.742188 278.128906 138.902344 277.542969 138.230469 Z M 277.542969 138.214844 " fill-opacity="1" fill-rule="nonzero"/><path fill="#e5fff5" d="M 282.675781 146.308594 C 280.742188 144.570312 278.285156 143.285156 275.6875 143.230469 C 275.179688 143.222656 274.601562 143.289062 274.28125 143.6875 C 273.980469 144.054688 273.996094 144.578125 274.101562 145.035156 C 274.378906 146.3125 275.1875 147.4375 276.191406 148.285156 C 277.191406 149.132812 278.375 149.722656 279.582031 150.246094 C 280.609375 150.6875 281.664062 151.082031 282.730469 151.429688 C 283.285156 151.609375 283.84375 151.773438 284.40625 151.921875 C 284.878906 152.050781 285.433594 152.269531 285.917969 152.273438 C 287.453125 152.304688 285.515625 149.445312 285.203125 149.050781 C 284.429688 148.074219 283.605469 147.136719 282.675781 146.308594 Z M 282.675781 146.308594 " fill-opacity="1" fill-rule="nonzero"/><path fill="#e5fff5" d="M 293.507812 146.757812 C 294.023438 145.667969 294.453125 144.496094 294.472656 143.285156 C 294.488281 142.578125 294.273438 141.761719 293.621094 141.507812 C 293.140625 141.324219 292.59375 141.515625 292.136719 141.753906 C 290.007812 142.863281 288.472656 144.933594 287.671875 147.191406 C 287.265625 148.34375 287.035156 149.550781 286.9375 150.761719 C 286.882812 151.367188 286.867188 151.976562 286.875 152.582031 C 286.875 153.015625 286.777344 153.707031 287.199219 154 C 287.632812 154.304688 288.039062 153.839844 288.351562 153.5625 C 288.765625 153.203125 289.160156 152.828125 289.542969 152.441406 C 290.316406 151.652344 291.027344 150.804688 291.664062 149.902344 C 292.367188 148.90625 292.992188 147.859375 293.515625 146.757812 Z M 293.507812 146.757812 " fill-opacity="1" fill-rule="nonzero"/><path fill="#e5fff5" d="M 283.679688 156.324219 C 282.121094 155.289062 280.441406 154.214844 278.570312 154.253906 C 277.679688 154.269531 276.710938 154.617188 276.320312 155.410156 C 276.027344 155.988281 276.101562 156.683594 276.320312 157.292969 C 276.742188 158.511719 277.699219 159.5 278.816406 160.15625 C 279.933594 160.816406 281.199219 161.183594 282.464844 161.445312 C 284.347656 161.835938 286.359375 162.007812 288.226562 161.445312 C 288.71875 161.296875 289.296875 161.109375 289.707031 160.792969 C 289.328125 160.097656 288.773438 159.714844 288.128906 159.28125 C 287.183594 158.65625 286.238281 158.027344 285.304688 157.402344 C 284.765625 157.042969 284.226562 156.683594 283.679688 156.324219 Z M 283.679688 156.324219 " fill-opacity="1" fill-rule="nonzero"/><path fill="#e5fff5" d="M 293.46875 151.945312 C 294.039062 151.03125 295.054688 150.15625 296.082031 150.5 C 297.0625 150.828125 297.386719 152.066406 297.316406 153.09375 C 297.234375 154.34375 296.816406 155.539062 296.34375 156.699219 C 295.519531 158.738281 294.542969 160.710938 293.417969 162.601562 C 293.101562 163.132812 292.796875 163.707031 292.414062 164.191406 C 292.25 163.328125 292.25 162.398438 292.144531 161.523438 C 292.078125 160.9375 292 160.351562 291.972656 159.769531 C 291.882812 158.175781 291.996094 156.496094 292.316406 154.929688 C 292.535156 153.886719 292.902344 152.867188 293.46875 151.953125 Z M 293.46875 151.945312 " fill-opacity="1" fill-rule="nonzero"/><path fill="#e5fff5" d="M 282.632812 165.003906 C 281.753906 165.070312 280.855469 165.1875 280.105469 165.652344 C 279.363281 166.117188 278.816406 167.003906 279.003906 167.851562 C 279.183594 168.683594 279.972656 169.238281 280.71875 169.636719 C 281.476562 170.042969 282.292969 170.378906 283.148438 170.394531 C 284.046875 170.410156 284.917969 170.054688 285.746094 169.710938 C 286.980469 169.195312 288.226562 168.683594 289.460938 168.167969 C 290.066406 167.914062 290.683594 167.667969 291.289062 167.414062 C 291.867188 167.175781 292.636719 166.996094 293.148438 166.644531 C 293.34375 166.507812 293.367188 166.546875 293.164062 166.410156 C 292.984375 166.289062 292.660156 166.246094 292.457031 166.179688 C 291.867188 165.984375 291.261719 165.8125 290.652344 165.660156 C 289.417969 165.355469 288.15625 165.144531 286.890625 165.03125 C 285.480469 164.90625 284.046875 164.890625 282.625 164.996094 Z M 282.632812 165.003906 " fill-opacity="1" fill-rule="nonzero"/><path fill="#e5fff5" d="M 299.085938 160.667969 C 299.582031 159.96875 300.269531 159.28125 301.125 159.289062 C 301.964844 159.296875 302.660156 160.03125 302.886719 160.832031 C 303.109375 161.640625 302.976562 162.503906 302.78125 163.3125 C 302.449219 164.730469 301.972656 166.117188 301.363281 167.445312 C 301.058594 168.117188 300.710938 168.765625 300.335938 169.402344 C 300.066406 169.859375 299.804688 170.4375 299.242188 170.574219 C 298.269531 170.804688 297.453125 169.769531 297.265625 168.933594 C 296.980469 167.640625 297.0625 166.1875 297.308594 164.898438 C 297.601562 163.382812 298.203125 161.925781 299.09375 160.660156 Z M 299.085938 160.667969 " fill-opacity="1" fill-rule="nonzero"/><path fill="#e5fff5" d="M 289.835938 172.128906 C 288.90625 172.523438 287.933594 173.160156 287.753906 174.167969 C 287.59375 175.027344 288.140625 175.910156 288.90625 176.332031 C 289.671875 176.746094 290.617188 176.753906 291.460938 176.539062 C 292.308594 176.324219 293.089844 175.90625 293.851562 175.484375 C 294.90625 174.90625 295.953125 174.339844 297.011719 173.761719 C 297.535156 173.476562 298.058594 173.199219 298.578125 172.90625 C 298.898438 172.726562 299.140625 172.539062 298.914062 172.164062 C 298.464844 171.417969 297.234375 171.308594 296.480469 171.210938 C 295.414062 171.074219 294.332031 171.074219 293.269531 171.210938 C 292.0625 171.359375 290.96875 171.726562 289.835938 172.136719 Z M 289.835938 172.128906 " fill-opacity="1" fill-rule="nonzero"/><path fill="#1f0a19" d="M 416.726562 133.011719 C 416.726562 133.011719 429.648438 139.878906 429.09375 163.238281 C 428.539062 186.59375 424.417969 223.675781 424.417969 223.675781 L 330.695312 166.261719 C 330.695312 166.261719 344.4375 139.617188 365.601562 121.753906 C 376.898438 112.214844 408.75 111.035156 416.71875 133.019531 Z M 416.726562 133.011719 " fill-opacity="1" fill-rule="nonzero"/><path fill="#e9a68e" d="M 423.324219 161.3125 L 406.832031 183.292969 C 400.144531 191.09375 388.519531 194.746094 380.910156 187.84375 L 379.074219 186.171875 C 374.402344 181.367188 368.902344 170.925781 376.601562 159.941406 L 387.597656 148.128906 C 394.980469 157.066406 411.507812 159.941406 423.324219 161.3125 Z M 423.324219 161.3125 " fill-opacity="1" fill-rule="nonzero"/><path fill="#000000" d="M 400.242188 162.503906 C 400.242188 162.503906 400.21875 162.503906 400.203125 162.503906 C 394.226562 161.933594 393.292969 157.03125 393.285156 156.984375 C 393.246094 156.78125 393.382812 156.59375 393.582031 156.558594 C 393.785156 156.519531 393.972656 156.65625 394.011719 156.847656 C 394.039062 157.03125 394.867188 161.25 400.277344 161.769531 C 400.480469 161.792969 400.628906 161.964844 400.609375 162.164062 C 400.59375 162.351562 400.429688 162.496094 400.242188 162.496094 Z M 400.242188 162.503906 " fill-opacity="1" fill-rule="nonzero"/><path fill="#000000" d="M 412.882812 170.738281 C 412.882812 170.738281 412.867188 170.738281 412.859375 170.738281 C 408.234375 170.445312 407.3125 165.820312 407.304688 165.765625 C 407.265625 165.5625 407.394531 165.375 407.59375 165.339844 C 407.796875 165.300781 407.984375 165.4375 408.023438 165.632812 C 408.050781 165.796875 408.855469 169.75 412.90625 170.003906 C 413.105469 170.019531 413.257812 170.191406 413.25 170.394531 C 413.234375 170.589844 413.078125 170.738281 412.882812 170.738281 Z M 412.882812 170.738281 " fill-opacity="1" fill-rule="nonzero"/><path fill="#000000" d="M 403.261719 174.039062 C 403.1875 174.039062 403.109375 174.015625 403.042969 173.972656 L 398.089844 170.402344 C 397.925781 170.28125 397.886719 170.054688 398.007812 169.890625 C 398.128906 169.726562 398.351562 169.6875 398.515625 169.808594 L 402.960938 173.011719 L 403.984375 164.289062 C 404.007812 164.085938 404.195312 163.945312 404.386719 163.96875 C 404.589844 163.992188 404.734375 164.171875 404.710938 164.371094 L 403.609375 173.714844 C 403.59375 173.84375 403.511719 173.957031 403.394531 174.007812 C 403.351562 174.03125 403.296875 174.039062 403.246094 174.039062 Z M 403.261719 174.039062 " fill-opacity="1" fill-rule="nonzero"/><path fill="#000000" d="M 417.550781 166.710938 C 417.25 166.710938 416.972656 166.53125 416.859375 166.238281 C 415.390625 162.332031 411.574219 161.785156 411.410156 161.761719 C 411.011719 161.707031 410.726562 161.339844 410.78125 160.945312 C 410.832031 160.546875 411.191406 160.261719 411.597656 160.308594 C 411.792969 160.332031 416.449219 160.96875 418.238281 165.722656 C 418.382812 166.105469 418.1875 166.523438 417.8125 166.664062 C 417.730469 166.695312 417.640625 166.710938 417.558594 166.710938 Z M 417.550781 166.710938 " fill-opacity="1" fill-rule="nonzero"/><path fill="#000000" d="M 399.335938 180.3125 C 396.425781 180.3125 394.09375 179.519531 392.390625 177.9375 C 389.746094 175.5 389.621094 172.09375 389.613281 171.953125 C 389.605469 171.601562 389.882812 171.300781 390.234375 171.292969 C 390.234375 171.292969 390.25 171.292969 390.257812 171.292969 C 390.601562 171.292969 390.886719 171.570312 390.902344 171.914062 C 390.902344 171.914062 391.027344 174.9375 393.285156 177.003906 C 394.882812 178.476562 397.183594 179.152344 400.121094 179.003906 C 400.472656 178.980469 400.78125 179.257812 400.796875 179.609375 C 400.808594 179.960938 400.539062 180.269531 400.1875 180.285156 C 399.902344 180.300781 399.625 180.308594 399.347656 180.308594 Z M 399.335938 180.3125 " fill-opacity="1" fill-rule="nonzero"/><path fill="#1f0a19" d="M 449.710938 284.109375 C 449.710938 284.933594 461.53125 322.019531 461.53125 322.019531 L 362.03125 322.019531 Z M 449.710938 284.109375 " fill-opacity="1" fill-rule="nonzero"/><path fill="#e6b3c8" d="M 388.421875 187.003906 C 388.421875 187.003906 416.589844 198.117188 431.847656 220.375 C 445.59375 250.867188 453.5625 287.679688 453.5625 287.679688 L 381.824219 318.449219 L 363.40625 309.382812 L 341.6875 227.238281 L 388.414062 187.003906 Z M 388.421875 187.003906 " fill-opacity="1" fill-rule="nonzero"/><path fill="#4b3c00" d="M 304.035156 173.671875 L 299.917969 176.964844 L 298.546875 206.914062 L 334.550781 238.503906 L 388.976562 189.605469 C 388.976562 189.605469 384.582031 167.078125 368.90625 152.792969 C 353.238281 138.507812 343.621094 138.230469 343.621094 138.230469 L 304.042969 173.671875 Z M 304.035156 173.671875 " fill-opacity="1" fill-rule="nonzero"/><path fill="#1f0a19" d="M 346.363281 197.023438 L 354.886719 216.253906 L 385.394531 189.058594 L 357.914062 164.882812 Z M 346.363281 197.023438 " fill-opacity="1" fill-rule="nonzero"/><path fill="#de9399" d="M 361.484375 169.546875 C 359.71875 165.054688 353.832031 158.746094 348.34375 153.519531 C 348.125 153.316406 347.914062 153.113281 347.699219 152.910156 C 346.125 153.644531 337.203125 157.351562 327.773438 152.386719 L 304.035156 173.671875 C 304.035156 173.671875 318.050781 191.527344 329.324219 198.402344 C 340.59375 205.265625 352.46875 201.140625 359.003906 194.007812 C 365.054688 187.410156 365.054688 178.621094 361.480469 169.554688 Z M 361.484375 169.546875 " fill-opacity="1" fill-rule="nonzero"/><path fill="#000000" d="M 320.808594 184.199219 C 320.621094 184.199219 320.464844 184.058594 320.449219 183.871094 C 320.425781 183.667969 320.578125 183.488281 320.773438 183.464844 C 320.972656 183.441406 325.773438 182.867188 327.332031 177.675781 C 327.390625 177.480469 327.59375 177.375 327.789062 177.429688 C 327.984375 177.488281 328.097656 177.691406 328.035156 177.886719 C 326.335938 183.546875 320.90625 184.183594 320.855469 184.191406 C 320.839844 184.191406 320.824219 184.191406 320.816406 184.191406 Z M 320.808594 184.199219 " fill-opacity="1" fill-rule="nonzero"/><path fill="#000000" d="M 337.292969 171.839844 C 337.113281 171.839844 336.964844 171.710938 336.933594 171.53125 C 336.90625 171.328125 337.039062 171.144531 337.242188 171.113281 C 337.292969 171.105469 342.289062 170.257812 344.109375 166.105469 C 344.191406 165.917969 344.410156 165.832031 344.589844 165.917969 C 344.777344 166 344.859375 166.214844 344.777344 166.394531 C 342.789062 170.925781 337.570312 171.792969 337.355469 171.832031 C 337.332031 171.832031 337.316406 171.832031 337.292969 171.832031 Z M 337.292969 171.839844 " fill-opacity="1" fill-rule="nonzero"/><path fill="#000000" d="M 316.132812 178.523438 C 316.132812 178.523438 316.097656 178.523438 316.082031 178.523438 C 315.683594 178.492188 315.375 178.148438 315.398438 177.75 C 315.414062 177.558594 315.789062 172.855469 323.285156 169.972656 C 323.660156 169.832031 324.085938 170.019531 324.230469 170.394531 C 324.371094 170.769531 324.183594 171.195312 323.808594 171.335938 C 317.25 173.859375 316.867188 177.683594 316.859375 177.847656 C 316.832031 178.230469 316.507812 178.523438 316.132812 178.523438 Z M 316.132812 178.523438 " fill-opacity="1" fill-rule="nonzero"/><path fill="#000000" d="M 331.246094 166.164062 C 331.246094 166.164062 331.21875 166.164062 331.203125 166.164062 C 330.800781 166.140625 330.496094 165.789062 330.523438 165.382812 C 330.539062 165.183594 330.910156 160.488281 338.410156 157.605469 C 338.785156 157.464844 339.210938 157.652344 339.355469 158.027344 C 339.496094 158.402344 339.308594 158.828125 338.933594 158.964844 C 332.304688 161.523438 331.980469 165.4375 331.980469 165.472656 C 331.960938 165.863281 331.636719 166.164062 331.253906 166.164062 Z M 331.246094 166.164062 " fill-opacity="1" fill-rule="nonzero"/><path fill="#000000" d="M 336.199219 186.675781 C 336.074219 186.675781 335.945312 186.609375 335.886719 186.496094 L 329.019531 174.683594 C 328.914062 174.511719 328.972656 174.285156 329.152344 174.179688 C 329.324219 174.074219 329.550781 174.136719 329.65625 174.316406 L 336.199219 185.566406 L 339.46875 179.550781 C 339.566406 179.371094 339.789062 179.308594 339.960938 179.398438 C 340.136719 179.496094 340.207031 179.714844 340.109375 179.894531 L 336.539062 186.488281 C 336.476562 186.609375 336.351562 186.675781 336.222656 186.683594 Z M 336.199219 186.675781 " fill-opacity="1" fill-rule="nonzero"/><path fill="#000000" d="M 338.980469 192.058594 C 338.386719 192.058594 338 191.976562 337.960938 191.96875 C 337.5625 191.878906 337.316406 191.488281 337.40625 191.09375 C 337.496094 190.695312 337.886719 190.449219 338.277344 190.539062 C 338.367188 190.554688 340.265625 190.933594 342.167969 189.53125 C 344.257812 187.988281 345.519531 184.941406 345.914062 180.472656 C 345.953125 180.066406 346.296875 179.773438 346.710938 179.804688 C 347.113281 179.84375 347.40625 180.195312 347.375 180.597656 C 346.941406 185.515625 345.472656 188.929688 343.007812 190.726562 C 341.496094 191.835938 339.949219 192.050781 338.980469 192.050781 Z M 338.980469 192.058594 " fill-opacity="1" fill-rule="nonzero"/><path fill="#de9399" d="M 346.550781 154.847656 C 346.550781 154.847656 350.847656 146.832031 357.242188 150.769531 C 363.628906 154.699219 361.449219 164.207031 359.066406 167.386719 L 346.550781 154.855469 Z M 346.550781 154.847656 " fill-opacity="1" fill-rule="nonzero"/><path fill="#000000" d="M 355.164062 162.773438 C 355.0625 162.773438 354.957031 162.726562 354.882812 162.636719 C 354.746094 162.480469 351.644531 158.714844 352.136719 155.441406 C 352.324219 154.214844 353 153.210938 354.140625 152.476562 C 354.304688 152.371094 354.535156 152.417969 354.648438 152.589844 C 354.761719 152.761719 354.707031 152.988281 354.535156 153.097656 C 353.585938 153.714844 353.023438 154.542969 352.863281 155.554688 C 352.414062 158.5 355.414062 162.136719 355.441406 162.171875 C 355.570312 162.332031 355.554688 162.5625 355.398438 162.691406 C 355.332031 162.75 355.246094 162.773438 355.164062 162.773438 Z M 355.164062 162.773438 " fill-opacity="1" fill-rule="nonzero"/><path fill="#000000" d="M 358.179688 160.578125 C 358.019531 160.578125 357.871094 160.464844 357.824219 160.292969 C 357.390625 158.402344 356.65625 157.230469 355.628906 156.820312 C 354.304688 156.289062 352.902344 157.210938 352.886719 157.214844 C 352.722656 157.328125 352.492188 157.285156 352.378906 157.113281 C 352.265625 156.945312 352.3125 156.714844 352.484375 156.601562 C 352.550781 156.558594 354.222656 155.464844 355.898438 156.128906 C 357.167969 156.632812 358.050781 157.980469 358.535156 160.121094 C 358.578125 160.316406 358.457031 160.515625 358.257812 160.5625 C 358.226562 160.5625 358.203125 160.570312 358.175781 160.570312 Z M 358.179688 160.578125 " fill-opacity="1" fill-rule="nonzero"/><path fill="#4b3c00" d="M 359.828125 165.976562 C 359.828125 165.976562 365.464844 186.578125 363.40625 201.832031 L 389.792969 194.410156 C 389.792969 194.410156 390.203125 185.34375 379.074219 165.5625 C 363.40625 166.386719 359.828125 165.976562 359.828125 165.976562 Z M 359.828125 165.976562 " fill-opacity="1" fill-rule="nonzero"/><path fill="#e9a68e" d="M 392.542969 259.664062 L 402.984375 248.125 L 398.324219 227.785156 C 397.96875 226.242188 398.398438 224.628906 399.46875 223.460938 C 401.640625 221.089844 405.46875 221.472656 407.132812 224.214844 L 410.128906 229.164062 L 414.800781 217.347656 L 412.597656 201.140625 C 412.597656 201.140625 420.292969 198.394531 421.394531 205.535156 C 428.539062 204.433594 430.464844 212.128906 430.464844 212.128906 C 435.414062 213.777344 437.886719 218.171875 438.15625 224.222656 C 438.433594 230.261719 435.953125 248.949219 434.035156 257.183594 C 432.109375 265.429688 416.441406 284.933594 416.441406 284.933594 L 392.535156 259.660156 Z M 392.542969 259.664062 " fill-opacity="1" fill-rule="nonzero"/><path fill="#1f0a19" d="M 398.039062 253.890625 L 418.929688 281.640625 L 392.542969 259.664062 Z M 398.039062 253.890625 " fill-opacity="1" fill-rule="nonzero"/><path fill="#8b95c9" d="M 286.71875 206.636719 L 294.550781 201.417969 C 305.234375 190.898438 322.386719 190.867188 333.105469 201.367188 L 333.398438 201.652344 C 337.683594 205.84375 340.902344 210.988281 342.796875 216.667969 L 363.964844 282.46875 L 391.726562 254.722656 L 421.410156 284.394531 L 387.597656 322.027344 L 310.089844 322.027344 L 279.027344 210.492188 L 286.71875 206.644531 Z M 286.71875 206.636719 " fill-opacity="1" fill-rule="nonzero"/><path fill="#1f0a19" d="M 363.957031 282.460938 L 346.09375 301.972656 L 361.34375 275.183594 Z M 363.957031 282.460938 " fill-opacity="1" fill-rule="nonzero"/><path fill="#000000" d="M 422.5 224.402344 C 422.5 224.402344 422.445312 224.402344 422.425781 224.402344 C 422.019531 224.359375 421.726562 224 421.773438 223.601562 L 422.3125 218.464844 L 420.675781 205.640625 C 420.621094 205.234375 420.90625 204.867188 421.3125 204.824219 C 421.710938 204.777344 422.078125 205.054688 422.125 205.460938 L 423.773438 218.375 C 423.773438 218.433594 423.78125 218.488281 423.773438 218.546875 L 423.226562 223.765625 C 423.1875 224.140625 422.867188 224.425781 422.5 224.425781 Z M 422.5 224.402344 " fill-opacity="1" fill-rule="nonzero"/><path fill="#000000" d="M 431.292969 230.171875 C 431.292969 230.171875 431.261719 230.171875 431.246094 230.171875 C 430.84375 230.152344 430.539062 229.796875 430.5625 229.402344 L 431.105469 220.421875 L 429.746094 212.257812 C 429.679688 211.859375 429.949219 211.480469 430.34375 211.421875 C 430.738281 211.355469 431.121094 211.625 431.179688 212.015625 L 432.550781 220.261719 C 432.558594 220.316406 432.566406 220.375 432.558594 220.429688 L 432.011719 229.492188 C 431.988281 229.878906 431.667969 230.179688 431.285156 230.179688 Z M 431.292969 230.171875 " fill-opacity="1" fill-rule="nonzero"/><path fill="#eddaff" d="M 268.164062 321.703125 C 267.984375 321.703125 267.828125 321.578125 267.804688 321.394531 C 266.09375 309.800781 268.921875 298.429688 275.203125 291.707031 C 281.148438 285.335938 283.304688 279.953125 286.410156 267.96875 C 288.585938 259.589844 293.84375 255.5625 300.503906 250.457031 C 303.246094 248.351562 306.351562 245.972656 309.566406 243.019531 C 320.1875 233.253906 320.75 218.234375 320.75 218.074219 C 320.75 217.875 320.929688 217.722656 321.125 217.722656 C 321.328125 217.722656 321.484375 217.894531 321.476562 218.097656 C 321.476562 218.253906 320.914062 233.574219 310.054688 243.558594 C 306.824219 246.535156 303.699219 248.929688 300.945312 251.042969 C 294.398438 256.054688 289.230469 260.015625 287.125 268.15625 C 283.980469 280.269531 281.792969 285.726562 275.734375 292.207031 C 269.605469 298.777344 266.84375 309.914062 268.523438 321.289062 C 268.554688 321.492188 268.421875 321.675781 268.21875 321.695312 C 268.203125 321.695312 268.179688 321.695312 268.164062 321.695312 Z M 268.164062 321.703125 " fill-opacity="1" fill-rule="nonzero"/><path fill="#de9399" d="M 332.894531 234.65625 L 318.328125 251.964844 L 283.972656 217.078125 L 294.40625 203.332031 C 295.363281 202.070312 295.273438 200.292969 294.191406 199.140625 C 292.953125 197.824219 290.878906 197.765625 289.566406 199.003906 L 286.441406 201.972656 L 279.402344 202.28125 C 275.839844 202.4375 272.519531 204.113281 270.285156 206.898438 L 260.03125 219.671875 C 258.191406 221.96875 257.773438 225.097656 258.9375 227.800781 L 263.351562 237.96875 L 305.46875 293.085938 C 313.089844 302.179688 326.71875 303.222656 335.636719 295.382812 L 363.398438 267.90625 L 332.886719 234.664062 Z M 332.894531 234.65625 " fill-opacity="1" fill-rule="nonzero"/><path fill="#1f0a19" d="M 328.222656 239.875 L 353.507812 277.523438 L 361.484375 269.824219 Z M 328.222656 239.875 " fill-opacity="1" fill-rule="nonzero"/><path fill="#eecbd6" d="M 339.21875 222.019531 L 360.585938 195.765625 C 370.445312 184.160156 387.949219 183.023438 399.230469 193.242188 C 410.503906 203.460938 411.078125 220.972656 400.511719 231.910156 L 362.855469 272.296875 L 326.304688 237.953125 L 339.226562 222.019531 Z M 339.21875 222.019531 " fill-opacity="1" fill-rule="nonzero"/><path fill="#1f0a19" d="M 283.972656 217.078125 L 278.75 212.683594 L 288.375 211.03125 Z M 283.972656 217.078125 " fill-opacity="1" fill-rule="nonzero"/><path fill="#a9d5d7" d="M 364.699219 259.449219 C 366.207031 261.773438 368 264.285156 367.597656 267.015625 C 367.34375 268.703125 366.28125 270.128906 365.511719 271.652344 C 363.839844 274.914062 363.507812 278.828125 364.527344 282.347656 L 387.085938 259.417969 C 386.570312 257.917969 386.050781 256.390625 386.320312 254.859375 C 386.832031 251.964844 389.859375 250.222656 391.050781 247.550781 C 392.234375 244.886719 391.425781 241.773438 390.242188 239.097656 C 389.066406 236.433594 387.511719 233.832031 387.222656 230.929688 C 386.855469 227.308594 388.503906 223.820312 390.054688 220.523438 C 391.613281 217.230469 393.15625 213.664062 392.570312 210.074219 C 392.070312 206.929688 388.996094 203.578125 385.550781 204.050781 C 384.625 204.179688 383.613281 204.898438 382.871094 205.453125 C 381.214844 206.683594 379.917969 208.394531 379.230469 210.34375 C 378.4375 212.578125 378.210938 215.382812 376.152344 216.570312 C 374.820312 217.339844 373.082031 217.152344 371.800781 218.007812 C 370.886719 218.613281 370.5625 219.558594 370.015625 220.449219 C 369.515625 221.257812 369.082031 221.75 368.90625 222.730469 C 368.472656 225.222656 368.847656 227.777344 369.101562 230.269531 C 369.449219 233.691406 369.417969 237.527344 367.113281 240.0625 C 366.101562 241.171875 364.753906 241.921875 363.695312 242.980469 C 361.597656 245.09375 360.886719 248.3125 361.292969 251.261719 C 361.6875 254.214844 363.082031 256.945312 364.691406 259.449219 Z M 364.699219 259.449219 " fill-opacity="1" fill-rule="nonzero"/><path fill="#a9d5d7" d="M 434.042969 322.296875 C 434.042969 322.296875 433.628906 302.519531 446.824219 287.265625 C 460.011719 272.019531 464.140625 271.195312 470.316406 257.597656 C 476.503906 244 477.328125 224.222656 495.054688 227.105469 C 512.785156 229.984375 501.246094 266.253906 501.246094 266.253906 C 509.078125 264.605469 511.140625 280.261719 505.363281 289.328125 C 499.589844 298.394531 495.054688 302.921875 490.519531 309.515625 C 485.984375 316.113281 484.746094 322.289062 484.746094 322.289062 C 484.746094 322.289062 433.414062 321.667969 434.035156 322.289062 Z M 434.042969 322.296875 " fill-opacity="1" fill-rule="nonzero"/><path fill="#dd4547" d="M 443.800781 165.976562 L 436.296875 156.84375 C 434.949219 155.019531 435.21875 152.46875 436.929688 150.972656 C 438.855469 149.289062 441.792969 149.617188 443.308594 151.675781 L 445.039062 154.027344 L 448.164062 151.292969 C 450.027344 149.664062 452.886719 149.992188 454.335938 151.996094 C 455.765625 153.984375 455.210938 156.765625 453.121094 158.042969 Z M 443.800781 165.976562 " fill-opacity="1" fill-rule="nonzero"/><path fill="#e6b3c8" d="M 425.347656 122.710938 L 420.351562 116.625 C 419.453125 115.410156 419.632812 113.710938 420.773438 112.714844 C 422.050781 111.589844 424.011719 111.808594 425.023438 113.179688 L 426.179688 114.746094 L 428.261719 112.925781 C 429.503906 111.839844 431.40625 112.054688 432.371094 113.390625 C 433.324219 114.714844 432.957031 116.5625 431.5625 117.417969 L 425.355469 122.703125 Z M 425.347656 122.710938 " fill-opacity="1" fill-rule="nonzero"/><path fill="#8b95c9" d="M 265.578125 177.445312 L 259.484375 170.035156 C 258.390625 168.558594 258.617188 166.484375 259.996094 165.273438 C 261.554688 163.90625 263.949219 164.171875 265.171875 165.839844 L 266.574219 167.75 L 269.101562 165.535156 C 270.617188 164.207031 272.9375 164.476562 274.117188 166.105469 C 275.277344 167.714844 274.828125 169.972656 273.125 171.007812 L 265.570312 177.445312 Z M 265.578125 177.445312 " fill-opacity="1" fill-rule="nonzero"/></svg>