<?xml version="1.0" encoding="UTF-8"?>
<svg id="OBJECTS" xmlns="http://www.w3.org/2000/svg" viewBox="0 0 750 500">
  <defs>
    <style>
      .cls-1 {
        fill: #fff;
      }

      .cls-2 {
        fill: #a9d5d7;
      }

      .cls-3 {
        fill: #95ccd5;
      }

      .cls-4 {
        fill: #e9a68e;
      }

      .cls-5 {
        fill: #dec8ff;
      }

      .cls-6 {
        fill: #e6b3c8;
      }

      .cls-7 {
        fill: #eecbd6;
      }

      .cls-8 {
        fill: #eddaff;
      }

      .cls-9 {
        fill: #e5fff5;
      }

      .cls-10 {
        fill: #7fbdbc;
      }

      .cls-11 {
        fill: #de9399;
      }

      .cls-12 {
        fill: #cebcff;
      }

      .cls-13 {
        fill: #4b3c00;
      }

      .cls-14 {
        fill: #8b95c9;
      }

      .cls-15 {
        fill: #1f0a19;
      }

      .cls-16 {
        fill: #dd4547;
      }
    </style>
  </defs>
  <rect class="cls-1" x="69.89" y="78.35" width="626.4" height="352.35"/>
  <g>
    <path class="cls-5" d="M406.44,316.46c-6.94,3.26-15.33,1.07-21.83-3.01-6.49-4.07-11.73-9.83-17.79-14.53-3.09-2.39-6.48-4.55-10.3-5.37-9.55-2.06-18.95,4.76-24.37,12.89-5.43,8.12-8.32,17.72-13.69,25.88-2.09,3.17-4.62,6.17-7.93,8.04-4.48,2.53-9.87,2.74-14.81,4.19-8.59,2.52-15.88,9.11-19.26,17.4-1.63,4.01-2.4,8.38-4.59,12.11-4.39,7.47-13.28,10.71-20.59,15.36-13.69,8.73-22.84,24.18-23.93,40.37h203.55l-24.47-113.35Z"/>
    <g>
      <path class="cls-5" d="M565.22,410.05s27.52-32.48,40.18-66.6c12.66-34.13,9.91-50.09,9.36-64.95-.55-14.86,8.26-38.53,14.31-49.54,6.05-11.01-7.16-18.71-16.51-7.71-9.36,11.01-15.41,30.27-16.51,45.69-1.1,15.41,1.1,34.68-1.65,45.14-2.75,10.46-9.91,28.07-24.22,47.34-14.31,19.27-34.13,42.93-34.13,42.93l29.17,7.71Z"/>
      <path class="cls-5" d="M583.2,363.88c-.06,0-.12-.02-.17-.06-.1-.09-.1-.25-.01-.35,19.74-21.39,21.42-60.19,22.64-88.53,.14-3.15,.26-6.12,.41-8.93,1.46-27.67,16.44-42.22,16.59-42.36,.1-.09,.25-.09,.34,0,.09,.1,.09,.25,0,.35-.15,.14-14.99,14.57-16.44,42.04-.15,2.81-.28,5.78-.41,8.93-1.23,28.41-2.91,67.32-22.77,88.84-.05,.05-.11,.08-.18,.08Z"/>
    </g>
    <g>
      <path class="cls-5" d="M559.31,405.21s19.19-29.2,26.1-58.27c6.91-29.07,3.08-41.8,1.15-53.85-1.93-12.05,2.89-32.21,6.72-41.79,3.84-9.57-7.69-14.53-14.22-4.63-6.53,9.9-9.54,26.2-8.9,38.87,.64,12.67,4.35,28.14,3.15,36.94-1.2,8.79-5.27,23.86-15.01,40.98-9.74,17.12-23.53,38.38-23.53,38.38l24.54,3.37Z"/>
      <path class="cls-5" d="M569.34,365.85s-.1-.02-.14-.05c-.11-.08-.13-.23-.06-.34,13.94-19.38,11.44-51.15,9.62-74.35-.2-2.57-.39-5.02-.55-7.32-1.57-22.7,9.19-36.07,9.3-36.2,.09-.1,.24-.12,.34-.03,.1,.09,.12,.24,.03,.34-.11,.13-10.75,13.36-9.19,35.85,.16,2.3,.35,4.75,.55,7.31,1.83,23.28,4.34,55.15-9.71,74.67-.05,.07-.12,.1-.2,.1Z"/>
    </g>
    <g>
      <path class="cls-5" d="M570.72,420.94c-.13,0-.26-.03-.39-.08-.5-.21-.72-.79-.51-1.28,.1-.24,10.59-24.45,18.82-35.96,7.92-11.08,24.48-41.2,31.81-59.25,7.03-17.3,13.09-60.97,13.15-61.41,.07-.53,.57-.92,1.1-.84,.54,.07,.91,.57,.84,1.1-.25,1.8-6.15,44.36-13.27,61.88-7.38,18.16-24.06,48.48-32.04,59.65-8.1,11.34-18.51,35.36-18.61,35.6-.16,.37-.52,.59-.9,.59Z"/>
      <path class="cls-5" d="M633.84,268.59s-4.4-7.71-1.83-19.45c2.57-11.74,6.97-9.17,8.44-5.87,1.47,3.3-6.61,25.32-6.61,25.32Z"/>
      <path class="cls-5" d="M645.3,260.77c2.05-.72,4.25-.99,4.39,2.24,.01,.27,.01,.55,0,.82-.17,3.16-1.99,4.96-3.9,7.21-1.41,1.66-2.89,3.25-4.45,4.77-1.43,1.39-2.99,2.22-4.52,3.45-.92,.74-1.87,1.44-2.85,2.1-.46,.31-2.58,1.22-2.73,1.68l2.29-6.99c1.13-3.47,2.3-6.99,4.43-9.95,1.44-1.99,3.37-3.7,5.66-4.65,.52-.21,1.1-.46,1.69-.67Z"/>
      <path class="cls-5" d="M646.45,282.36c2.17-.21,4.36,.05,3.73,3.22-.05,.27-.12,.53-.2,.79-.92,3.03-3.11,4.34-5.5,6.08-1.76,1.28-3.58,2.47-5.46,3.57-1.72,1.01-3.43,1.44-5.21,2.27-1.07,.5-2.16,.96-3.27,1.36-.52,.19-2.79,.57-3.05,.98,1.29-2.08,2.59-4.17,3.88-6.25,1.92-3.1,3.89-6.25,6.67-8.61,1.87-1.59,4.16-2.8,6.6-3.17,.55-.08,1.18-.19,1.8-.25Z"/>
      <path class="cls-5" d="M621.36,324.74s6.61-13.94,13.94-16.51c7.34-2.57,9.91,2.94,9.17,5.87-.73,2.94-23.12,10.64-23.12,10.64Z"/>
      <path class="cls-5" d="M625.03,311.89s-3.3-4.04-7.71-13.94c-4.4-9.91-5.5-16.15-.37-15.05,5.14,1.1,9.54,18.71,8.07,28.99Z"/>
      <path class="cls-5" d="M583.57,392.99s-3.3-4.04-7.71-13.94c-4.4-9.91-5.5-16.15-.37-15.05s9.54,18.71,8.07,28.99Z"/>
      <path class="cls-5" d="M629.43,285.47s-6.97-10.64-9.17-15.78c-2.2-5.14-1.1-10.27,2.57-10.64,3.67-.37,8.44,17.61,6.61,26.42Z"/>
      <path class="cls-5" d="M614.39,337.21s-4.04-7.71-8.07-16.88c-4.04-9.17-3.3-14.68,2.57-14.68s5.5,31.56,5.5,31.56Z"/>
      <path class="cls-5" d="M604.85,357.39s-4.04-6.72-8.07-14.72c-4.04-8-3.3-12.8,2.57-12.8s5.5,27.52,5.5,27.52Z"/>
      <path class="cls-5" d="M593.84,377.21s-4.04-6.72-8.07-14.72-3.3-12.8,2.57-12.8,5.5,27.52,5.5,27.52Z"/>
      <path class="cls-5" d="M609.62,350.06s16.88-12.48,25.32-11.74c8.44,.73-4.04,15.78-25.32,11.74Z"/>
      <path class="cls-5" d="M583.57,394.09s16.88-12.48,25.32-11.74c8.44,.73-4.04,15.78-25.32,11.74Z"/>
      <path class="cls-5" d="M598.98,369.5s16.88-12.48,25.32-11.74c8.44,.73-4.04,15.78-25.32,11.74Z"/>
    </g>
    <g>
      <path class="cls-5" d="M345.38,416.96s-.07,0-.11,0c-.54-.06-.92-.54-.86-1.08,.03-.26,2.89-26.28,1.48-40.14-1.39-13.65-.85-48.26,1.74-67.68,2.5-18.75,18.47-58.64,19.14-60.33,.2-.5,.77-.75,1.27-.54,.5,.2,.74,.77,.54,1.27-.17,.41-16.55,41.35-19.02,59.86-2.58,19.31-3.12,53.68-1.73,67.23,1.44,14.07-1.45,40.29-1.48,40.56-.06,.5-.48,.87-.97,.87Z"/>
      <path class="cls-5" d="M365.59,253.23s7.64-4.51,11.23-15.98c3.59-11.47-1.51-11.42-4.42-9.28-2.91,2.14-6.81,25.26-6.81,25.26Z"/>
      <path class="cls-5" d="M359.51,240.76c-1.42-1.65-3.2-2.96-4.92-.23-.15,.23-.28,.47-.4,.71-1.42,2.83-.73,5.29-.19,8.2,.4,2.14,.9,4.26,1.5,6.35,.55,1.91,1.5,3.41,2.22,5.23,.43,1.1,.91,2.18,1.43,3.24,.25,.5,1.63,2.34,1.54,2.81,.49-2.4,.99-4.8,1.48-7.21,.73-3.57,1.47-7.21,1.09-10.84-.26-2.44-1.09-4.89-2.61-6.84-.34-.44-.72-.94-1.14-1.42Z"/>
      <path class="cls-5" d="M347.81,258.93c-1.77-1.26-3.81-2.12-4.83,.95-.09,.26-.16,.52-.22,.79-.71,3.09,.55,5.31,1.77,8.01,.9,1.98,1.89,3.92,2.97,5.81,.99,1.73,2.27,2.95,3.4,4.56,.68,.96,1.4,1.9,2.16,2.8,.36,.42,2.14,1.88,2.16,2.36-.09-2.45-.18-4.9-.28-7.35-.14-3.64-.29-7.35-1.52-10.78-.83-2.31-2.23-4.49-4.17-6.02-.44-.35-.93-.74-1.44-1.11Z"/>
      <path class="cls-5" d="M348.59,308.18s1.17-15.38-3.93-21.25c-5.1-5.87-10.06-2.36-10.88,.55-.82,2.91,14.8,20.7,14.8,20.7Z"/>
      <path class="cls-5" d="M351.77,295.2s4.87-1.87,13.6-8.29c8.74-6.42,12.78-11.3,7.78-12.89-5.01-1.59-17.56,11.53-21.38,21.18Z"/>
      <path class="cls-5" d="M347.59,386.19s4.87-1.87,13.6-8.29c8.74-6.42,12.78-11.3,7.78-12.89-5.01-1.59-17.56,11.53-21.38,21.18Z"/>
      <path class="cls-5" d="M361.04,270.07s11.33-5.79,15.79-9.16c4.46-3.37,6.05-8.38,3.04-10.52-3.01-2.14-16.06,11.11-18.83,19.67Z"/>
      <path class="cls-5" d="M348.47,322.47s7.33-4.69,15.38-10.66c8.05-5.97,10.14-11.11,5.04-14.02-5.1-2.91-20.42,24.68-20.42,24.68Z"/>
      <path class="cls-5" d="M346.75,344.73s6.84-3.84,14.31-8.78c7.47-4.95,9.21-9.48,4.11-12.39-5.1-2.91-18.42,21.18-18.42,21.18Z"/>
      <path class="cls-5" d="M346.49,367.39s6.84-3.84,14.31-8.78c7.47-4.95,9.21-9.48,4.11-12.39-5.1-2.91-18.42,21.18-18.42,21.18Z"/>
      <path class="cls-5" d="M346.24,335.99s-8.48-19.2-16.17-22.75c-7.69-3.55-4.31,15.71,16.17,22.75Z"/>
      <path class="cls-5" d="M347.05,387.15s-8.48-19.2-16.17-22.75-4.31,15.71,16.17,22.75Z"/>
      <path class="cls-5" d="M345.85,358.15s-8.48-19.2-16.17-22.75c-7.69-3.55-4.31,15.71,16.17,22.75Z"/>
    </g>
    <g>
      <path class="cls-5" d="M312.64,380.92s-6.2-4.78-6.72-13.39c-.52-8.61,2.48-14.14,8.38-11.95,5.9,2.19,3.17,20.14-1.65,25.34Z"/>
      <path class="cls-5" d="M329.44,375.32c2.91,1.66,2.17,5.61,.37,7.77-1.42,1.7-3.38,2.89-5.19,4.12-1.89,1.28-4.56,1.86-6.8,2.05-1.66,.15-3.82-.34-4.07-1.99,1.63-2.71,3.28-5.44,5.42-7.78,2.36-2.57,6.59-6.26,10.26-4.18Z"/>
      <path class="cls-5" d="M325.43,393.96c2.7,1.99,1.48,5.83-.56,7.76-1.61,1.52-3.7,2.47-5.64,3.47-2.03,1.05-4.74,1.3-6.99,1.23-1.67-.05-3.75-.79-3.8-2.46,1.95-2.5,3.91-5.01,6.31-7.08,2.65-2.27,7.29-5.43,10.69-2.93Z"/>
      <path class="cls-5" d="M299.33,377.24c-.8-.46-1.69-.89-2.61-.84-1.64,.09-2.89,1.71-3.05,3.35-.16,1.64,.51,3.24,1.3,4.68,1.44,2.61,3.35,4.95,5.61,6.9,1.13,.97,2.34,1.85,3.62,2.62,1.13,.67,2.59,1.66,3.93,1.79,2.92,.28,2.38-3.29,1.86-5-.81-2.63-2.08-5.11-3.73-7.31-1.86-2.49-4.22-4.63-6.92-6.19Z"/>
      <path class="cls-5" d="M295.81,392.54c-.71-.6-1.5-1.18-2.42-1.3-1.63-.21-3.15,1.16-3.61,2.74-.46,1.58-.09,3.28,.43,4.84,.94,2.83,2.4,5.48,4.26,7.8,.93,1.16,1.96,2.25,3.08,3.23,.99,.87,2.24,2.1,3.54,2.47,2.82,.81,2.94-2.8,2.73-4.58-.32-2.73-1.12-5.4-2.34-7.86-1.38-2.79-3.31-5.32-5.68-7.34Z"/>
      <path class="cls-5" d="M298.56,424.38c-.17,.28-.34,.6-.26,.92,.09,.39,.5,.6,.88,.73,1.8,.59,3.78,.3,5.61-.2,3.84-1.04,7.45-2.95,10.47-5.54,1.19-1.02,2.34-2.23,2.75-3.74,.41-1.52-.17-3.4-1.62-4-.66-.27-1.4-.25-2.11-.17-4.96,.6-9.47,4.21-12.66,7.83-1.14,1.3-2.17,2.69-3.06,4.17Z"/>
      <path class="cls-5" d="M295.06,426.94c.28,.17,.61,.33,.93,.25,.39-.1,.6-.51,.72-.9,.57-1.81,.24-3.78-.28-5.61-1.09-3.83-3.05-7.41-5.69-10.39-1.04-1.18-2.26-2.31-3.78-2.69-1.52-.39-3.4,.22-3.98,1.68-.26,.66-.23,1.4-.14,2.11,.67,4.95,4.34,9.41,8.01,12.55,1.31,1.12,2.72,2.13,4.22,3Z"/>
      <path class="cls-5" d="M296.08,429.87c2.24-6.88,4.85-11.46,7.4-15.9,2.51-4.38,4.87-8.53,6.72-14.54,4.1-13.36,2.73-19.94,2.67-20.21l-.95,.21c.01,.06,1.36,6.63-2.65,19.71-1.81,5.91-4.15,10-6.63,14.34-2.6,4.56-5.28,9.25-7.57,16.39h1.03Z"/>
    </g>
  </g>
  <path class="cls-10" d="M416.6,226.02s-1.47-12.84-8.44-25.32c-6.97-12.48-14.68-13.21-19.45-10.27-4.77,2.94-1.83,14.68,5.5,20.18,7.34,5.5,12.11,20.92,11.01,26.05l11.38-10.64Z"/>
  <path d="M414.77,233.36c-.07,0-.14-.02-.2-.06-5.06-3.37-7.38-11.39-9.43-18.45-.7-2.4-1.35-4.67-2.08-6.68-2.86-7.85-10.03-11.87-10.11-11.91-.18-.1-.24-.32-.14-.5,.1-.18,.32-.24,.5-.14,.07,.04,7.49,4.2,10.44,12.31,.74,2.03,1.4,4.31,2.1,6.72,2.01,6.95,4.3,14.82,9.14,18.05,.17,.11,.21,.34,.1,.51-.07,.11-.19,.16-.31,.16Z"/>
  <path class="cls-3" d="M411.91,229.65c-1.19-5.33-2.81-10.55-4.85-15.62-2.71-6.73-6.16-13.17-8.41-20.06s-3.26-14.49-.98-21.37c.7-2.11,1.74-4.17,3.42-5.63,1.68-1.45,4.09-2.2,6.19-1.47,1.47,.51,2.75,1.69,4.3,1.68,1.38-.01,2.54-.96,3.65-1.79,1.89-1.42,4-2.63,6.32-3.09,2.32-.46,4.89-.07,6.72,1.42,2.11,1.71,2.95,4.55,3.26,7.25,.8,6.86-1.01,13.71-1.88,20.56-.87,6.85-.64,14.38,3.57,19.86l-21.32,18.25Z"/>
  <g>
    <path class="cls-14" d="M432.01,210.98s-9.91-6.97-10.27-16.88c-.37-9.91,7.71-15.05,4.77-24.95-2.94-9.91-10.64-16.15-5.5-22.02,5.14-5.87,10.64-3.67,14.68,2.94s8.04,15.75,6.24,22.75c-3.3,12.84-12.84,19.08-.37,31.56l-9.54,6.61Z"/>
    <path d="M438.62,206.94c-.06,0-.12-.01-.17-.04-.23-.12-5.67-3.11-7.89-11.61-1.36-5.21,.31-11.28,1.79-16.64,.96-3.5,1.87-6.8,1.87-9.5,0-6.78-7.57-18.03-7.64-18.14-.11-.17-.07-.4,.1-.51,.17-.11,.4-.07,.51,.1,.32,.47,7.77,11.55,7.77,18.55,0,2.8-.92,6.15-1.9,9.7-1.45,5.27-3.09,11.25-1.78,16.26,2.13,8.17,7.47,11.12,7.52,11.14,.18,.1,.25,.32,.15,.5-.07,.12-.19,.19-.32,.19Z"/>
  </g>
  <g>
    <path class="cls-9" d="M457.82,195.65c-.38-.24-9.31-6.13-12.67-21.27-3.54-15.94,5.6-34.73,9.33-39.77l.79,.58c-3.66,4.95-12.63,23.37-9.16,38.98,3.27,14.72,12.16,20.6,12.25,20.66l-.53,.82Z"/>
    <path class="cls-9" d="M453.66,136.49s-.79-2.88,1.96-8.25c2.75-5.37,5.25-5.11,6.78-3.63,1.53,1.47-1.53,10.19-8.74,11.88Z"/>
    <path class="cls-9" d="M448.39,146.85s-1.9-.42-3-5.78c-1.1-5.36-.32-8.89,1.85-9.7s3.26,10.4,1.14,15.48Z"/>
    <path class="cls-9" d="M448.05,149.05s2.98-4.47,6.68-7.07c3.7-2.6,5.95-1.82,5.38,.76-.57,2.58-12.06,6.31-12.06,6.31Z"/>
    <path class="cls-9" d="M445.67,157.92s2.95-4.33,6.28-5.88c3.33-1.54,6.13-2.63,5.61,.38s-11.88,5.49-11.88,5.49Z"/>
    <path class="cls-9" d="M438.97,152.31c-.95-1.76-1.51-3.77-1.31-5.76,.07-.7,.3-1.48,.93-1.81,.91-.47,1.97,.3,2.62,1.09,.2,.24,.38,.49,.56,.74,1.12,1.6,1.87,3.44,2.38,5.32,.27,1,.41,2.06,.64,3.08,.12,.55,.25,1.1,.39,1.65,.05,.2,.24,1.52,.4,1.58-1.14-.44-2.21-1.05-3.17-1.8-.47-.37-.92-.78-1.33-1.21-.17-.19-.35-.34-.54-.51-.68-.61-1.13-1.58-1.56-2.37Z"/>
    <path class="cls-9" d="M442.27,161.42c-1.53-2.14-3.67-3.95-6.23-4.56-.5-.12-1.09-.18-1.49,.14-.37,.3-.47,.82-.47,1.29,0,1.33,.55,2.61,1.36,3.66,.81,1.05,1.85,1.9,2.92,2.67,.92,.66,1.87,1.28,2.85,1.85,.51,.3,1.02,.58,1.55,.85,.44,.23,.94,.57,1.42,.68,1.51,.36,.22-2.88,0-3.34-.55-1.13-1.16-2.23-1.89-3.25Z"/>
    <path class="cls-9" d="M452.87,164.22c.75-.97,1.43-2.03,1.71-3.22,.16-.69,.13-1.55-.46-1.94-.44-.29-1.02-.22-1.52-.08-2.34,.63-4.31,2.34-5.59,4.4-.65,1.05-1.14,2.19-1.5,3.37-.18,.59-.33,1.18-.45,1.79-.09,.43-.34,1.09,0,1.46,.37,.4,.86,.02,1.23-.18,.49-.27,.96-.55,1.42-.85,.93-.61,1.82-1.29,2.65-2.04,.91-.83,1.75-1.73,2.51-2.71Z"/>
    <path class="cls-9" d="M441.08,171.53c-1.31-1.36-2.74-2.79-4.59-3.16-.88-.18-1.91-.04-2.48,.66-.41,.51-.49,1.21-.41,1.86,.16,1.3,.89,2.48,1.85,3.38,.96,.9,2.13,1.53,3.32,2.06,1.77,.79,3.72,1.4,5.69,1.25,.52-.04,1.13-.1,1.61-.32-.23-.77-.69-1.27-1.23-1.84-.79-.82-1.59-1.65-2.38-2.47-.46-.47-.91-.95-1.37-1.42Z"/>
    <path class="cls-9" d="M451.71,169.33c.76-.78,1.96-1.42,2.9-.86,.9,.54,.95,1.83,.66,2.83-.35,1.22-1.03,2.31-1.74,3.35-1.26,1.83-2.66,3.57-4.18,5.19-.43,.46-.86,.96-1.34,1.35,.03-.89,.23-1.81,.32-2.7,.06-.59,.11-1.18,.21-1.77,.25-1.59,.73-3.23,1.4-4.7,.45-.99,1.03-1.92,1.79-2.69Z"/>
    <path class="cls-9" d="M438.16,179.88c-.88-.12-1.79-.2-2.63,.09-.84,.29-1.57,1.05-1.57,1.94,0,.86,.65,1.58,1.31,2.14,.66,.56,1.39,1.08,2.23,1.28,.89,.21,1.82,.05,2.72-.11,1.34-.24,2.67-.47,4.01-.71,.66-.12,1.31-.23,1.97-.35,.62-.11,1.42-.12,2-.36,.22-.09,.24-.05,.06-.23-.15-.16-.46-.27-.64-.38-.55-.32-1.1-.62-1.67-.9-1.15-.57-2.35-1.05-3.58-1.44-1.37-.44-2.78-.76-4.21-.96Z"/>
    <path class="cls-9" d="M455.35,179.18c.64-.58,1.47-1.11,2.31-.92,.82,.19,1.35,1.06,1.4,1.91,.05,.85-.28,1.66-.64,2.43-.64,1.33-1.41,2.6-2.3,3.77-.45,.6-.93,1.17-1.44,1.72-.37,.39-.75,.91-1.34,.92-1.01,.02-1.59-1.18-1.6-2.05,0-1.34,.4-2.76,.92-3.98,.62-1.43,1.53-2.75,2.68-3.8Z"/>
    <path class="cls-9" d="M443.72,188.49c-1.01,.19-2.11,.61-2.5,1.56-.34,.82,0,1.81,.67,2.39,.67,.58,1.59,.79,2.47,.76,.88-.03,1.74-.28,2.59-.52l3.5-1.02c.58-.17,1.16-.33,1.73-.5,.35-.11,.63-.24,.49-.66-.28-.84-1.47-1.22-2.2-1.48-1.02-.36-2.09-.6-3.18-.7-1.22-.11-2.38,0-3.59,.17Z"/>
  </g>
  <g>
    <path class="cls-2" d="M441.55,204.37s-9.54-5.14-7.71-22.02,15.05-23.85,22.02-28.99c6.97-5.14,15.78-1.1,13.94,5.87-1.83,6.97-9.17,6.61-15.78,12.48s-10.64,16.15-2.94,24.59l-9.54,8.07Z"/>
    <path d="M445.59,202.29c-.17,0-.33-.08-.42-.24-2.03-3.38-6.77-11.28-3.73-24.22,1.55-6.59,6.54-11.52,10.45-14.5,4.22-3.21,8.02-4.85,8.18-4.92,.25-.11,.54,0,.64,.26,.11,.25,0,.54-.26,.64-.15,.07-15.22,6.66-18.06,18.74-2.95,12.55,1.65,20.21,3.61,23.49,.14,.23,.06,.53-.17,.67-.08,.05-.17,.07-.25,.07Z"/>
  </g>
  <g>
    <path class="cls-12" d="M424.24,220.57c-.5-.3-12.33-7.4-14.27-18.5-1.08-6.18-.71-10.17-.35-14.03,.28-3.04,.55-5.92,.07-9.66-1.07-8.27-3.46-11.57-3.49-11.6l.78-.59c.1,.14,2.57,3.5,3.67,12.06,.5,3.85,.22,6.78-.07,9.87-.35,3.8-.72,7.73,.34,13.77,1.86,10.65,13.68,17.76,13.8,17.83l-.5,.84Z"/>
    <path class="cls-12" d="M407.15,167.31s-4.68-1.1-7.16-5.78c-2.48-4.68-2.2-8.53,1.65-8.81s6.88,10.46,5.5,14.59Z"/>
    <path class="cls-12" d="M415.12,159.93c2.05,.19,2.64,2.59,2.18,4.25-.36,1.31-1.16,2.48-1.86,3.62-.73,1.2-2.08,2.19-3.28,2.87-.89,.5-2.22,.78-2.78-.08,.23-1.93,.45-3.88,1.06-5.72,.66-2.04,2.1-5.17,4.68-4.94Z"/>
    <path class="cls-12" d="M417.61,171.36c2.01,.43,2.31,2.89,1.66,4.48-.52,1.26-1.44,2.32-2.27,3.37-.87,1.1-2.32,1.93-3.6,2.46-.95,.39-2.3,.51-2.75-.41,.45-1.89,.91-3.79,1.73-5.56,.9-1.94,2.7-4.89,5.23-4.35Z"/>
    <path class="cls-12" d="M398.78,168.63c-.57-.06-1.17-.07-1.67,.19-.9,.46-1.18,1.69-.85,2.65,.32,.96,1.11,1.68,1.91,2.29,1.47,1.09,3.13,1.92,4.88,2.43,.88,.26,1.78,.44,2.68,.54,.8,.09,1.87,.27,2.65,0,1.71-.58,.5-2.44-.23-3.26-1.12-1.26-2.46-2.33-3.94-3.14-1.68-.92-3.53-1.52-5.44-1.7Z"/>
    <path class="cls-12" d="M400.69,178.08c-.55-.16-1.14-.28-1.68-.12-.97,.29-1.47,1.45-1.32,2.45s.78,1.86,1.47,2.6c1.24,1.34,2.73,2.45,4.36,3.28,.82,.41,1.67,.76,2.54,1.02,.77,.24,1.79,.61,2.6,.48,1.78-.26,.93-2.31,.37-3.25-.87-1.44-1.99-2.74-3.3-3.8-1.48-1.21-3.2-2.14-5.04-2.66Z"/>
    <path class="cls-12" d="M410.3,195.18c-.02,.2-.04,.42,.09,.58,.15,.19,.44,.21,.68,.18,1.16-.13,2.19-.79,3.09-1.53,1.89-1.56,3.42-3.54,4.45-5.76,.41-.88,.74-1.84,.59-2.79-.16-.95-.96-1.86-1.92-1.83-.44,.01-.85,.21-1.22,.44-2.62,1.6-4.23,4.76-5.09,7.59-.31,1.01-.53,2.06-.65,3.11Z"/>
    <path class="cls-12" d="M409,197.5c.2,.02,.42,.03,.58-.09,.19-.15,.2-.44,.17-.68-.14-1.16-.82-2.18-1.58-3.07-1.58-1.86-3.59-3.37-5.82-4.37-.88-.39-1.85-.72-2.8-.55-.95,.17-1.84,.98-1.8,1.95,.02,.44,.22,.84,.46,1.21,1.63,2.6,4.82,4.16,7.66,4.99,1.02,.3,2.06,.5,3.12,.61Z"/>
    <path class="cls-12" d="M410.34,205.67c.2-.03,.42-.08,.54-.25,.14-.2,.08-.48-.01-.7-.45-1.08-1.37-1.88-2.34-2.53-2.02-1.37-4.35-2.29-6.77-2.66-.95-.15-1.97-.2-2.84,.22-.87,.42-1.52,1.44-1.21,2.36,.14,.42,.44,.75,.76,1.05,2.27,2.07,5.75,2.73,8.71,2.76,1.06,.01,2.12-.07,3.17-.24Z"/>
    <path class="cls-12" d="M416.82,215.27c.17-.11,.35-.24,.39-.44,.05-.24-.12-.47-.29-.64-.84-.81-2-1.18-3.15-1.4-2.4-.46-4.91-.38-7.27,.24-.93,.24-1.89,.6-2.52,1.33-.63,.73-.82,1.92-.18,2.64,.29,.33,.7,.52,1.12,.66,2.9,1,6.36,.23,9.09-.91,.98-.41,1.92-.9,2.81-1.48Z"/>
    <path class="cls-12" d="M414.08,209.13c.04,.2,.1,.41,.27,.52,.21,.13,.48,.06,.7-.05,1.05-.5,1.81-1.46,2.42-2.46,1.28-2.09,2.08-4.46,2.33-6.89,.1-.96,.1-1.98-.35-2.83-.46-.85-1.51-1.45-2.41-1.1-.41,.16-.73,.48-1.01,.81-1.96,2.36-2.45,5.87-2.35,8.83,.04,1.06,.17,2.12,.4,3.15Z"/>
    <path class="cls-12" d="M421.32,217.77c.08,.18,.19,.38,.37,.46,.23,.09,.48-.04,.68-.19,.93-.7,1.47-1.8,1.86-2.9,.82-2.3,1.11-4.79,.86-7.22-.1-.96-.31-1.96-.93-2.69-.62-.74-1.78-1.1-2.59-.58-.37,.24-.62,.62-.82,1-1.43,2.71-1.18,6.25-.47,9.13,.26,1.03,.6,2.04,1.04,3Z"/>
  </g>
  <g>
    <path class="cls-9" d="M406.89,234.56c-.14-.05-13.68-5.24-22.29-23.74-9.07-19.49-2.64-46.26,.73-53.8l.89,.4c-3.32,7.43-9.66,33.8-.74,52.99,8.43,18.11,21.61,23.18,21.74,23.23l-.34,.92Z"/>
    <path class="cls-9" d="M384.68,159.61s-1.83-3.49,.18-11.19c2.02-7.71,5.32-8.07,7.71-6.61,2.39,1.47,.92,13.58-7.89,17.8Z"/>
    <path class="cls-9" d="M380.82,174.47s-2.57,0-5.5-6.61-2.94-11.38-.37-13.03c2.57-1.65,7.16,12.48,5.87,19.63Z"/>
    <path class="cls-9" d="M381.01,177.4s2.57-6.61,6.61-11.01c4.04-4.4,7.16-4.04,7.16-.55s-13.76,11.56-13.76,11.56Z"/>
    <path class="cls-9" d="M380.46,189.51s2.57-6.42,6.42-9.36c3.85-2.94,7.16-5.14,7.34-1.1,.18,4.04-13.76,10.46-13.76,10.46Z"/>
    <path class="cls-9" d="M370.22,184.17c-1.72-2-3.02-4.43-3.32-7.05-.11-.93-.03-1.99,.69-2.59,1.04-.87,2.62-.18,3.69,.67,.32,.26,.63,.52,.93,.8,1.9,1.75,3.39,3.9,4.58,6.18,.63,1.21,1.11,2.54,1.69,3.79,.32,.68,.64,1.35,.97,2.02,.12,.25,.73,1.89,.96,1.92-1.59-.24-3.15-.72-4.6-1.42-.71-.34-1.4-.74-2.06-1.19-.28-.19-.55-.34-.84-.5-1.05-.59-1.91-1.71-2.69-2.61Z"/>
    <path class="cls-9" d="M377.07,194.98c-2.58-2.32-5.86-4.04-9.33-4.11-.68-.01-1.45,.08-1.88,.61-.4,.49-.38,1.19-.24,1.8,.37,1.71,1.45,3.21,2.79,4.34,1.34,1.13,2.92,1.92,4.53,2.62,1.37,.59,2.78,1.12,4.2,1.58,.74,.24,1.49,.46,2.24,.66,.63,.17,1.37,.46,2.02,.47,2.05,.04-.54-3.78-.96-4.31-1.03-1.3-2.13-2.55-3.37-3.66Z"/>
    <path class="cls-9" d="M391.53,195.58c.69-1.46,1.26-3.02,1.29-4.64,.02-.94-.27-2.03-1.14-2.37-.64-.25-1.37,.01-1.98,.33-2.84,1.48-4.89,4.24-5.96,7.26-.54,1.54-.85,3.15-.98,4.77-.07,.81-.09,1.62-.08,2.43,0,.58-.13,1.5,.43,1.89,.58,.41,1.12-.21,1.54-.58,.55-.48,1.08-.98,1.59-1.5,1.03-1.05,1.98-2.18,2.83-3.39,.94-1.33,1.77-2.73,2.47-4.2Z"/>
    <path class="cls-9" d="M378.41,208.36c-2.08-1.38-4.32-2.82-6.82-2.77-1.19,.02-2.48,.49-3.01,1.55-.39,.77-.29,1.7,0,2.51,.57,1.63,1.85,2.95,3.34,3.83,1.49,.88,3.18,1.37,4.87,1.72,2.51,.52,5.2,.75,7.69,0,.66-.2,1.43-.45,1.98-.87-.51-.93-1.25-1.44-2.11-2.02-1.26-.84-2.52-1.68-3.77-2.51-.72-.48-1.44-.96-2.17-1.44Z"/>
    <path class="cls-9" d="M391.48,202.51c.76-1.22,2.12-2.39,3.49-1.93,1.31,.44,1.74,2.09,1.65,3.46-.11,1.67-.67,3.27-1.3,4.82-1.1,2.72-2.41,5.36-3.91,7.88-.42,.71-.83,1.48-1.34,2.13-.22-1.16-.22-2.4-.36-3.57-.09-.78-.19-1.56-.23-2.34-.12-2.13,.03-4.37,.46-6.46,.29-1.4,.78-2.76,1.54-3.98Z"/>
    <path class="cls-9" d="M377.01,219.95c-1.17,.09-2.37,.25-3.37,.87-.99,.62-1.72,1.8-1.47,2.94,.24,1.11,1.29,1.85,2.29,2.38,1.01,.54,2.1,.99,3.24,1.01,1.2,.02,2.36-.45,3.47-.91,1.65-.69,3.31-1.37,4.96-2.06,.81-.34,1.63-.67,2.44-1.01,.77-.32,1.8-.56,2.48-1.03,.26-.18,.29-.13,.02-.31-.24-.16-.67-.22-.94-.31-.79-.26-1.6-.49-2.41-.69-1.65-.41-3.33-.69-5.02-.84-1.89-.17-3.8-.19-5.7-.05Z"/>
    <path class="cls-9" d="M398.98,214.16c.66-.93,1.58-1.85,2.72-1.84,1.12,.01,2.05,.99,2.35,2.06,.3,1.08,.12,2.23-.14,3.31-.44,1.9-1.08,3.75-1.89,5.52-.41,.9-.87,1.77-1.37,2.62-.36,.61-.71,1.38-1.46,1.56-1.3,.31-2.39-1.07-2.64-2.19-.38-1.73-.27-3.67,.06-5.39,.39-2.02,1.19-3.97,2.38-5.66Z"/>
    <path class="cls-9" d="M386.63,229.47c-1.24,.53-2.54,1.38-2.78,2.72-.21,1.15,.52,2.33,1.54,2.89,1.02,.56,2.28,.57,3.41,.28,1.13-.29,2.17-.85,3.19-1.41,1.41-.77,2.81-1.53,4.22-2.3,.7-.38,1.4-.75,2.09-1.14,.43-.24,.75-.49,.45-.99-.6-1-2.24-1.15-3.25-1.28-1.42-.18-2.87-.18-4.29,0-1.61,.2-3.07,.69-4.58,1.24Z"/>
  </g>
  <g>
    <path class="cls-15" d="M556.04,177.22s17.25,9.17,16.51,40.37-6.24,80.73-6.24,80.73l-125.13-76.69s18.35-35.59,46.6-59.45c15.09-12.74,57.61-14.31,68.25,15.05Z"/>
    <g>
      <path class="cls-4" d="M564.85,215.02l-22.02,29.36c-8.93,10.42-24.45,15.3-34.61,6.08l-2.45-2.23c-6.24-6.42-13.58-20.37-3.3-35.04l14.68-15.78c9.86,11.94,31.92,15.78,47.7,17.61Z"/>
      <path d="M534.03,216.61s-.03,0-.05,0c-7.98-.76-9.23-7.31-9.24-7.37-.05-.27,.13-.52,.4-.57,.27-.05,.52,.13,.57,.39,.04,.24,1.15,5.88,8.37,6.57,.27,.03,.47,.26,.44,.53-.02,.25-.24,.44-.49,.44Z"/>
      <path d="M550.91,227.61s-.02,0-.03,0c-6.18-.39-7.41-6.57-7.42-6.64-.05-.27,.12-.52,.39-.57,.27-.05,.52,.13,.57,.39,.04,.22,1.11,5.5,6.52,5.84,.27,.02,.47,.25,.46,.52-.02,.26-.23,.46-.49,.46Z"/>
      <path d="M538.06,232.02c-.1,0-.2-.03-.29-.09l-6.61-4.77c-.22-.16-.27-.46-.11-.68,.16-.22,.46-.27,.68-.11l5.93,4.28,1.37-11.65c.03-.27,.28-.46,.54-.43,.27,.03,.46,.27,.43,.54l-1.47,12.48c-.02,.17-.13,.32-.29,.39-.06,.03-.13,.04-.2,.04Z"/>
      <path d="M557.14,222.23c-.4,0-.77-.24-.92-.63-1.96-5.22-7.06-5.95-7.28-5.98-.53-.07-.91-.56-.84-1.09,.07-.53,.55-.91,1.09-.85,.26,.03,6.48,.88,8.87,7.23,.19,.51-.07,1.07-.57,1.26-.11,.04-.23,.06-.34,.06Z"/>
      <path d="M532.82,240.4c-3.88,0-7-1.06-9.27-3.17-3.53-3.26-3.7-7.81-3.71-8-.01-.47,.36-.87,.83-.88,0,0,.02,0,.03,0,.46,0,.84,.37,.86,.83h0s.17,4.04,3.18,6.8c2.14,1.97,5.21,2.87,9.13,2.67,.47-.03,.88,.34,.9,.81,.02,.47-.34,.88-.81,.9-.38,.02-.75,.03-1.12,.03Z"/>
    </g>
  </g>
  <g>
    <path class="cls-15" d="M600.08,379.04c0,1.1,15.78,50.64,15.78,50.64h-132.84l117.06-50.64Z"/>
    <path class="cls-6" d="M518.25,249.34s37.61,14.84,57.98,44.57c18.35,40.73,28.99,89.9,28.99,89.9l-95.78,41.1-24.59-12.11-28.99-109.72,62.38-53.74Z"/>
  </g>
  <path class="cls-13" d="M405.59,231.53l-5.5,4.4-1.83,40,48.07,42.2,72.66-65.32s-5.87-30.09-26.79-49.17c-20.92-19.08-33.76-19.45-33.76-19.45l-52.84,47.34Z"/>
  <polygon class="cls-15" points="462.1 262.72 473.48 288.41 514.21 252.08 477.52 219.79 462.1 262.72"/>
  <g>
    <path class="cls-11" d="M482.29,226.02c-2.36-6-10.22-14.43-17.55-21.41-.29-.27-.57-.54-.86-.81-2.1,.98-14.01,5.93-26.6-.7l-31.69,28.43s18.71,23.85,33.76,33.03c15.05,9.17,30.9,3.66,39.63-5.87,8.07-8.81,8.07-20.55,3.3-32.66Z"/>
    <path d="M427.98,245.59c-.25,0-.46-.19-.48-.44-.03-.27,.17-.51,.43-.54,.27-.03,6.68-.8,8.76-7.73,.08-.26,.35-.4,.61-.33,.26,.08,.41,.35,.33,.61-2.27,7.56-9.52,8.41-9.59,8.42-.02,0-.04,0-.05,0Z"/>
    <path d="M449.99,229.08c-.24,0-.44-.17-.48-.41-.04-.27,.14-.52,.41-.56,.07-.01,6.74-1.14,9.17-6.69,.11-.25,.4-.36,.64-.25,.25,.11,.36,.4,.25,.64-2.65,6.05-9.62,7.21-9.91,7.26-.03,0-.05,0-.08,0Z"/>
    <path d="M421.74,238.01s-.05,0-.07,0c-.53-.04-.94-.5-.91-1.03,.02-.26,.52-6.54,10.53-10.39,.5-.19,1.07,.06,1.26,.56,.19,.5-.06,1.07-.56,1.26-8.76,3.37-9.27,8.48-9.28,8.7-.04,.51-.47,.9-.97,.9Z"/>
    <path d="M441.92,221.5s-.04,0-.06,0c-.54-.03-.95-.5-.91-1.04,.02-.27,.52-6.54,10.53-10.39,.5-.19,1.07,.06,1.26,.56,.19,.5-.06,1.07-.56,1.26-8.85,3.41-9.28,8.64-9.28,8.69-.03,.52-.46,.92-.97,.92Z"/>
    <path d="M448.53,248.9c-.17,0-.34-.09-.42-.24l-9.17-15.78c-.14-.23-.06-.53,.18-.67,.23-.14,.53-.06,.67,.18l8.74,15.03,4.36-8.04c.13-.24,.43-.32,.66-.2,.24,.13,.33,.42,.2,.66l-4.77,8.81c-.08,.16-.25,.25-.42,.26h0Z"/>
    <path d="M452.24,256.09c-.79,0-1.31-.11-1.36-.12-.53-.12-.86-.64-.74-1.17,.12-.53,.64-.86,1.16-.74,.12,.02,2.66,.53,5.2-1.35,2.79-2.06,4.47-6.13,5-12.1,.05-.54,.51-.93,1.06-.89,.54,.05,.93,.52,.89,1.06-.58,6.57-2.54,11.13-5.83,13.53-2.02,1.48-4.08,1.77-5.38,1.77Z"/>
    <g>
      <path class="cls-11" d="M462.35,206.39s5.74-10.71,14.27-5.45c8.53,5.25,5.62,17.95,2.44,22.19l-16.71-16.73Z"/>
      <g>
        <path d="M473.85,216.97c-.14,0-.28-.06-.38-.18-.18-.21-4.32-5.24-3.66-9.61,.25-1.64,1.15-2.98,2.67-3.96,.22-.14,.53-.08,.68,.15,.15,.23,.08,.53-.15,.68-1.27,.82-2.02,1.93-2.23,3.28-.6,3.93,3.4,8.79,3.44,8.84,.17,.21,.15,.52-.06,.69-.09,.08-.2,.11-.31,.11Z"/>
        <path d="M477.88,214.04c-.22,0-.42-.15-.48-.38-.58-2.53-1.56-4.09-2.93-4.64-1.77-.71-3.64,.52-3.66,.53-.22,.15-.53,.09-.68-.14-.15-.22-.09-.53,.14-.68,.09-.06,2.32-1.52,4.56-.63,1.69,.67,2.87,2.47,3.52,5.33,.06,.26-.1,.53-.37,.59-.04,0-.07,.01-.11,.01Z"/>
      </g>
    </g>
  </g>
  <path class="cls-13" d="M480.08,221.25s7.52,27.52,4.77,47.89l35.23-9.91s.55-12.11-14.31-38.53c-20.92,1.1-25.69,.55-25.69,.55Z"/>
  <g>
    <path class="cls-4" d="M523.75,346.39l13.94-15.41-6.22-27.17c-.47-2.06,.1-4.22,1.53-5.78h0c2.9-3.16,8.01-2.65,10.23,1.01l4,6.61,6.24-15.78-2.94-21.65s10.27-3.67,11.74,5.87c9.54-1.47,12.11,8.81,12.11,8.81,6.61,2.2,9.91,8.07,10.27,16.15,.37,8.07-2.94,33.03-5.5,44.03-2.57,11.01-23.49,37.06-23.49,37.06l-31.92-33.76Z"/>
    <polygon class="cls-15" points="531.09 338.68 558.98 375.74 523.75 346.39 531.09 338.68"/>
    <path class="cls-14" d="M382.47,275.56l10.45-6.97h0c14.27-14.05,37.17-14.09,51.48-.07l.39,.38c5.72,5.6,10.02,12.47,12.55,20.06l28.26,87.89,37.06-37.06,39.63,39.63-45.14,50.27h-103.48l-41.47-148.98,10.27-5.14Z"/>
    <polygon class="cls-15" points="485.59 376.84 461.74 402.9 482.1 367.12 485.59 376.84"/>
    <path d="M563.75,299.29s-.07,0-.1,0c-.54-.06-.93-.54-.87-1.07l.72-6.86-2.19-17.13c-.07-.54,.31-1.03,.85-1.09,.54-.06,1.03,.31,1.09,.85l2.2,17.25c0,.08,.01,.15,0,.23l-.73,6.97c-.05,.5-.48,.88-.97,.88Z"/>
    <path d="M575.49,307s-.04,0-.06,0c-.54-.03-.95-.5-.92-1.03l.73-12-1.82-10.9c-.09-.53,.27-1.04,.8-1.12,.53-.09,1.04,.27,1.12,.8l1.83,11.01c.01,.07,.02,.15,.01,.22l-.73,12.11c-.03,.52-.46,.92-.97,.92Z"/>
  </g>
  <path class="cls-1" d="M334.04,429.87c-3.6-10.01-7.16-23.79-6.52-34.41s5.29-21.43,14.11-27.37c3.53-2.38,7.63-3.94,10.79-6.79,5.93-5.36,7.29-13.96,9.03-21.77,1.85-8.27,4.8-16.79,11.25-22.28,10.57-9.01,28.5-8.22,35.72-20.08,2.42-3.97,3.13-8.74,4.88-13.05,1.75-4.31,5.23-8.56,9.87-8.76,3.79-.17,7.13,2.4,9.74,5.15,8.32,8.78,12.89,21.02,12.35,33.11-.54,12.09-6.17,23.87-15.25,31.88-3.86,3.41-8.48,6.38-10.5,11.12-2.73,6.42,.22,13.72,.1,20.69-.15,9.46-5.9,17.78-11.06,25.71-5.16,7.94-9.03,17.52-7.37,26.84h-67.15Z"/>
  <path class="cls-8" d="M357.7,429.26c-.24,0-.45-.17-.48-.42-2.29-15.48,1.49-30.67,9.87-39.65,7.94-8.51,10.82-15.7,14.97-31.71,2.9-11.19,9.92-16.57,18.81-23.39,3.66-2.81,7.81-5.99,12.1-9.93,14.18-13.05,14.93-33.11,14.93-33.32,0-.27,.24-.47,.5-.47,.27,0,.48,.23,.47,.5,0,.21-.75,20.67-15.25,34.01-4.31,3.97-8.48,7.17-12.16,9.99-8.74,6.7-15.64,11.99-18.45,22.86-4.2,16.18-7.12,23.47-15.21,32.13-8.18,8.77-11.87,23.65-9.62,38.84,.04,.27-.14,.52-.41,.55-.02,0-.05,0-.07,0Z"/>
  <g>
    <path class="cls-11" d="M444.12,312.99l-19.45,23.12-45.87-46.6,13.93-18.36c1.28-1.69,1.16-4.06-.29-5.6h0c-1.65-1.76-4.42-1.84-6.17-.18l-4.17,3.96-9.4,.41c-4.76,.21-9.19,2.45-12.17,6.17l-13.69,17.06c-2.46,3.07-3.02,7.25-1.46,10.86l5.89,13.58,56.23,73.62c10.18,12.15,28.37,13.54,40.28,3.07l37.06-36.7-40.73-44.4Z"/>
    <polygon class="cls-15" points="437.88 319.96 471.64 370.24 482.29 359.96 437.88 319.96"/>
    <path class="cls-7" d="M452.56,296.11l28.53-35.07c13.16-15.5,36.53-17.02,51.59-3.37h0c15.05,13.65,15.82,37.04,1.71,51.65l-50.27,53.94-48.8-45.87,17.25-21.28Z"/>
    <polygon class="cls-15" points="378.8 289.51 371.83 283.64 384.68 281.43 378.8 289.51"/>
  </g>
  <g>
    <g>
      <path class="cls-2" d="M486.58,346.1c2.01,3.11,4.41,6.46,3.87,10.11-.34,2.25-1.76,4.16-2.79,6.19-2.23,4.36-2.67,9.59-1.31,14.29l30.12-30.63c-.69-2-1.38-4.04-1.02-6.09,.68-3.86,4.72-6.19,6.31-9.76,1.58-3.56,.5-7.72-1.08-11.29-1.57-3.56-3.64-7.03-4.03-10.91-.49-4.84,1.71-9.5,3.78-13.9,2.08-4.4,4.14-9.16,3.36-13.96-.67-4.2-4.77-8.67-9.37-8.04-1.24,.17-2.59,1.13-3.58,1.87-2.21,1.64-3.94,3.93-4.86,6.53-1.06,2.99-1.36,6.73-4.11,8.32-1.78,1.03-4.1,.78-5.81,1.92-1.22,.81-1.65,2.07-2.38,3.26-.67,1.08-1.25,1.74-1.48,3.05-.58,3.33-.08,6.74,.26,10.07,.46,4.57,.42,9.69-2.66,13.08-1.35,1.48-3.15,2.48-4.56,3.9-2.8,2.82-3.75,7.12-3.21,11.06,.53,3.94,2.39,7.59,4.54,10.93Z"/>
      <path class="cls-1" d="M503.21,360c-.22,0-.42-.15-.48-.38-.47-2.04-1.13-4.1-1.78-6.1-1.63-5.02-3.31-10.22-1.85-15.36,.74-2.62,2.26-4.99,3.73-7.28,2.03-3.17,3.95-6.16,3.9-9.67-.03-2.37-.98-4.57-1.98-6.9-1.02-2.38-2.08-4.83-2.05-7.48,.04-4.69,3.44-8.54,6.43-11.93l.68-.77c4.25-4.85,5.75-9.08,4.48-12.58-.09-.25,.04-.53,.29-.63,.25-.09,.53,.04,.63,.29,1.41,3.86-.16,8.42-4.66,13.56l-.68,.78c-3.02,3.42-6.15,6.97-6.19,11.29-.02,2.44,.95,4.69,1.97,7.08,.99,2.31,2.02,4.7,2.06,7.27,.05,3.81-2.03,7.07-4.05,10.21-1.43,2.23-2.91,4.54-3.61,7.02-1.38,4.86,.18,9.68,1.84,14.79,.65,2.02,1.33,4.1,1.8,6.18,.06,.26-.1,.52-.37,.59-.04,0-.07,.01-.11,.01Z"/>
    </g>
    <g>
      <path class="cls-2" d="M579.16,430.05s-.55-26.42,17.06-46.79c17.61-20.37,23.12-21.47,31.37-39.63,8.26-18.16,9.36-44.58,33.03-40.73,23.67,3.85,8.26,52.29,8.26,52.29,10.46-2.2,13.21,18.71,5.5,30.82-7.71,12.11-13.76,18.16-19.82,26.97-6.05,8.81-7.71,17.06-7.71,17.06,0,0-68.53-.83-67.7,0Z"/>
      <path class="cls-1" d="M607.05,429.81s-.04,0-.07,0c-.27-.04-.46-.28-.42-.55,3.05-22.39,17.3-43.67,28.75-60.76,5.19-7.75,9.68-14.45,12.39-20.11,8.64-18,8.03-30.1,8.03-30.22-.02-.27,.19-.5,.46-.52,.26-.03,.5,.19,.52,.46,0,.12,.64,12.45-8.12,30.7-2.75,5.72-7.25,12.45-12.46,20.23-11.39,17.01-25.57,38.19-28.59,60.35-.03,.25-.24,.42-.48,.42Z"/>
      <path class="cls-1" d="M616.22,401.55c-.17,0-.33-.09-.42-.24-.14-.23-.06-.53,.17-.67,13.51-8.03,38.46-11.77,38.71-11.81,.26-.03,.51,.15,.55,.41,.04,.27-.15,.52-.41,.56-.25,.04-25.01,3.75-38.35,11.68-.08,.05-.17,.07-.25,.07Z"/>
      <path class="cls-1" d="M634.21,371.83c-.21,0-.4-.13-.47-.34-.08-.26,.06-.53,.32-.61l27.89-8.81c.26-.08,.53,.06,.61,.32,.08,.26-.06,.53-.32,.61l-27.89,8.81s-.1,.02-.15,.02Z"/>
      <path class="cls-1" d="M651.08,342.47c-.18,0-.36-.1-.44-.28-.12-.24-.01-.54,.23-.65l13.94-6.61c.24-.11,.53-.01,.65,.23,.12,.24,.01,.54-.23,.65l-13.94,6.61c-.07,.03-.14,.05-.21,.05Z"/>
      <path class="cls-1" d="M646.68,352.01c-.2,0-.39-.13-.46-.33l-6.61-19.08c-.09-.25,.05-.53,.3-.62,.25-.09,.53,.05,.62,.3l6.61,19.08c.09,.25-.05,.53-.3,.62-.05,.02-.11,.03-.16,.03Z"/>
      <path class="cls-1" d="M623.2,387.97c-.24,0-.45-.18-.48-.43-.35-2.84-6.87-18.8-6.94-18.96-.1-.25,.02-.54,.27-.64,.25-.1,.54,.02,.64,.27,.27,.66,6.63,16.24,7,19.21,.03,.27-.16,.51-.42,.55-.02,0-.04,0-.06,0Z"/>
      <path class="cls-1" d="M608.52,420.26c-.15,0-.3-.07-.4-.2-3.67-5.14-11.12-27.08-11.44-28.02-.09-.26,.05-.53,.31-.62,.26-.08,.53,.05,.62,.31,.08,.23,7.72,22.74,11.31,27.76,.16,.22,.11,.53-.11,.68-.09,.06-.19,.09-.28,.09Z"/>
    </g>
  </g>
  <g>
    <path class="cls-16" d="M592.19,221.25l-10.02-12.2c-1.8-2.43-1.44-5.84,.84-7.84h0c2.57-2.25,6.5-1.81,8.52,.94l2.31,3.14,4.17-3.65c2.49-2.18,6.31-1.74,8.24,.94h0c1.91,2.65,1.17,6.37-1.62,8.07l-12.44,10.6Z"/>
    <path class="cls-6" d="M567.55,163.46l-6.67-8.13c-1.2-1.62-.96-3.89,.56-5.22h0c1.71-1.5,4.33-1.21,5.68,.62l1.54,2.09,2.78-2.43c1.66-1.45,4.2-1.16,5.49,.62h0c1.27,1.77,.78,4.24-1.08,5.38l-8.29,7.06Z"/>
    <path class="cls-14" d="M354.24,236.57l-8.13-9.9c-1.46-1.97-1.16-4.74,.68-6.36h0c2.08-1.82,5.28-1.47,6.91,.76l1.87,2.55,3.38-2.96c2.02-1.77,5.12-1.41,6.69,.76h0c1.55,2.15,.95,5.17-1.32,6.55l-10.09,8.6Z"/>
  </g>
</svg>