<?xml version="1.0" encoding="UTF-8"?>
<svg id="OBJECTS" xmlns="http://www.w3.org/2000/svg" viewBox="0 0 280.95 366.04">
  <defs>
    <style>
      .cls-1 {
        fill: #fff;
      }

      .cls-2 {
        fill: #e5a398;
      }

      .cls-3 {
        fill: #d38476;
      }

      .cls-4 {
        fill: #d67676;
      }

      .cls-5 {
        fill: #c7e580;
      }

      .cls-6 {
        fill: #282435;
      }

      .cls-7 {
        fill: #d1caff;
      }

      .cls-8 {
        fill: #db8f83;
      }

      .cls-9 {
        fill: #dd9c83;
      }

      .cls-10 {
        fill: #9485ba;
      }

      .cls-11 {
        fill: #554a6a;
      }

      .cls-12 {
        fill: #3c354c;
      }

      .cls-13 {
        fill: #a6d9e2;
      }
    </style>
  </defs>
  <g>
    <g>
      <path class="cls-13" d="M142.08,13.91c-.74-.3-7.42,2.71-7.62,3.21-.2,.49,10.4,25.91,11.01,26.17,.62,.25,7.42-2.72,7.62-3.21,.2-.49-11.01-26.17-11.01-26.17Z"/>
      <path class="cls-13" d="M158.39,26.99c.3-.74-2.72-7.42-3.21-7.62-.49-.2-25.92,10.4-26.17,11.01-.25,.62,2.72,7.42,3.21,7.62,.49,.2,26.17-11.01,26.17-11.01Z"/>
    </g>
    <g>
      <path class="cls-13" d="M162.27,47.56c-.2-.35-3.79-1.3-4.03-1.17-.24,.13-4.17,13.53-4,13.82,.16,.3,3.79,1.3,4.03,1.17,.24-.13,4-13.82,4-13.82Z"/>
      <path class="cls-13" d="M164.53,57.92c.35-.2,1.3-3.79,1.17-4.03-.13-.24-13.53-4.17-13.82-4-.3,.16-1.3,3.79-1.17,4.03,.13,.24,13.82,4,13.82,4Z"/>
    </g>
  </g>
  <path class="cls-1" d="M267.47,261.98c.83-4.05-1.32-7.91-4.67-10.13-.26-.17-.02-.59,.26-.46,4.1,1.6,6.74,6.56,4.92,10.74-.11,.29-.57,.16-.51-.15h0Z"/>
  <path class="cls-11" d="M244.41,164.58c1.32-2.91,11.19-28.86,4.42-42.39-6.77-13.54-14.12-11-17.21-13.82-3.09-2.82-5.35-13.54-12.4-13.54s-9.02,7.33-10.43,7.05c-1.41-.28-15.79-19.17-28.2-16.36-12.41,2.82-13.25,15.51-14.66,15.51s-.56-11.84-7.33-10.72c-6.77,1.13-8.46,7.61-10.72,7.9-2.26,.28-4.79-4.51-11.56-2.26-6.77,2.26-7.33,9.02-8.46,9.59-1.13,.56-8.44-6.11-14.08-3.57-5.64,2.54-9.32,11.75-9.89,12.6-.56,.85-13.54-2.82-17.77,7.61-4.23,10.43-.28,21.15-1.69,23.12-1.41,1.97-15.51,.28-20.3,13.82-4.79,13.54,2.82,18.89,2.54,20.87-.28,1.97-6.2,1.97-6.2,5.08s4.79,5.08,4.51,6.2c-.28,1.13-6.2,5.08-4.51,8.46,1.69,3.38,4.79,3.95,4.51,5.36-.28,1.41-5.36,12.41-.28,22,5.08,9.59,10.72,5.92,11.28,7.05,.56,1.13-4.51,8.74,1.97,12.69,6.49,3.95,21.71,8.5,23.12,11.58,1.41,3.08,6.67,43.97,6.67,43.97l53.95-27.64,82.72-110.16Z"/>
  <path class="cls-12" d="M216.33,174.45c1.26,5.46-1.89,9.99-6.7,12.87-1.42,.71-2.9,1.32-4.41,1.82,3.99-4.39,6.77-10.7,11.1-14.69Z"/>
  <path class="cls-12" d="M163.76,136.98c-4.51-4.46-4.7-9.84,3.95-9.82,12.41-.51,14.29,12.8,19.93,8.34,9.55-5.78,19.09-3.37,28.36,1.28,11.2,7.17,18.95,17.53,27.16,27.27l-2.56,2.7c-7.11-2-14.81-1.82-21.38,1.78-.83,.41-1.6,.89-2.33,1.42-.22-.75-.55-1.52-1.05-2.31,.5,.79,.84,1.56,1.05,2.31-4.34,3.16-7.12,8.15-11.1,11.63-5.68,1.49-11.91,1.76-18.15,.35-2.76-.78-5.27-1.72-7.58-2.81,1.02-12.97-6.56-30.93-16.29-42.14Z"/>
  <path class="cls-12" d="M64.97,191.27c.28-1.13-4.51-3.1-4.51-6.2s5.92-3.1,6.2-5.08c.1-.72-.83-1.88-1.84-3.72,2.33-1.48,4.86-2.96,7.2-2.49,7.9,0,12.41,9.02,7.9,16.92,2.26-4.51,7.9-6.77,9.02-1.13,2.26,5.64,1.13,12.41,6.77,14.66,2.26,1.13,5.64-1.13,7.9-2.26,6.77-11.28,3.38-33.84,22.56-21.43,3.38,1.13,3.38-5.64,6.77-4.51,1.13,1.13,2.26,3.38,3.38,5.64,3.38,4.51,13.54,2.26,14.66-4.51,0-6.77,1.13-13.54,4.51-19.17,7.9,13.54,15.79,25.94,31.58,31.58,6.24,1.78,12.47,1.45,18.15-.44-2.63,2.89-5.78,4.95-10.25,4.95h1.13s-1.13,0-1.13,0c4.48,0,7.63-2.06,10.25-4.95,1.51-.5,2.99-1.11,4.41-1.82,4.81-2.88,7.96-7.41,6.7-12.87,.73-.67,1.5-1.28,2.33-1.79,6.57-4.55,14.27-4.79,21.38-2.25l-78.34,104.33-53.95,27.64s-5.26-40.89-6.67-43.97c-1.41-3.08-16.64-7.63-23.12-11.58-6.49-3.95-1.41-11.56-1.97-12.69-.56-1.13-6.2,2.54-11.28-7.05-5.08-9.59,0-20.59,.28-22,.28-1.41-2.82-1.97-4.51-5.36-1.69-3.38,4.23-7.33,4.51-8.46Z"/>
  <path class="cls-2" d="M190.17,364.41c-.03,.52-.04,1.07-.05,1.63H97.59c2.71-5.95,5.49-12.15,6.2-14.04,1.5-3.95,3.95-48.5,3.95-49.63s34.4-28.39,35.34-28.95c.94-.56,6.77-19.93,5.45-21.81-1.32-1.88-9.59,2.44-17.67,2.26-8.08-.19-22-24.06-18.8-41.36,3.2-17.29,18.24-22.18,22.56-19.93,4.32,2.26,13.77,27.33,14.78,27.83,1.83,.91,5.53,3,6.47,2.44,.94-.56,3.2-12.03,3.01-16.36-.19-4.32-5.08-51.32-2.82-52.83,2.26-1.5,10.15,4.32,13.35,1.32,3.2-3.01,.56-6.96,2.26-7.9,1.69-.94,70.87,14.48,72.75,17.48,1.88,3.01,7.33,38.35,7.14,42.49-.19,4.14-2.26,12.78-3.38,17.48s11.47,20.87,11.47,20.87c2.82,4.14,10.72,6.2,9.78,16.17-.94,9.96-15.23,11.28-16.73,12.22-1.5,.94,4.7,7.71,4.51,11.47-.19,3.76-6.39,10.9-7.9,12.6-1.5,1.69,4.89,5.64,3.76,10.9-1.13,5.26-8.08,9.02-10.53,10.73-2.44,1.7,8.65,22.36-5.26,29.07-12.8,6.17-27.29-3.14-37.98-4.07-4.33-.38-8.83,14.29-9.12,19.93Z"/>
  <path class="cls-9" d="M241.21,261.77c9.08-4.13,19.97,1.4,28.26-1.52,0,.43-.01,.87-.06,1.34-.94,9.96-15.23,11.28-16.73,12.22-.39,.24-.25,.89,.15,1.76-6.31-.07-12.24-1.27-17.25-5.89-3.38-2.26,2.26-6.77,5.64-7.9Z"/>
  <path class="cls-8" d="M190.17,364.41c-.03,.52-.04,1.07-.05,1.63h-54.81c1.09-15.51,3.88-30.9,10.02-45.62,3.38-6.77,12.41-11.28,19.18-6.77,10.16,8.13,28.39,24.31,38.47,31.62-1.34-.41-2.59-.7-3.69-.79-4.33-.38-8.83,14.29-9.12,19.93Z"/>
  <path class="cls-8" d="M112.06,212.51c3.2-17.29,18.24-22.18,22.56-19.93,4.32,2.26,13.77,27.33,14.78,27.83,1.83,.91,5.53,3,6.47,2.44,.81-.49,2.59-9.04,2.95-14.17,1.75,15.16-4.83,40.3-11.04,42.51-2.52-.5-9.79,2.84-16.92,2.67-8.08-.19-22-24.06-18.8-41.36Z"/>
  <path class="cls-3" d="M242.53,319.49c2.49-1.64,9.4-5.46,10.53-10.73,1.13-5.26-5.26-9.21-3.76-10.9,1.5-1.69,7.71-8.84,7.9-12.6,.19-3.76-6.02-10.53-4.51-11.47,0,0-27.82,18.14-27.54,28.01,.28,9.87,14.36,19.69,17.39,17.68Z"/>
  <path class="cls-6" d="M146.06,236.4c-7.21-.89-13.58-9.97-4.28-13.44,0,0-.29,.58-.29,.58-1.94-5.5-4.75-10.87-8.19-15.59-4.06-5.53-9.08-8.69-12.54-.6-.05,.12-.2,.18-.32,.12-.12-.05-.17-.19-.12-.31,1.04-2.7,3.25-6.21,6.65-5.41,6.93,1.83,13.2,15.08,15.43,21.52,.08,.24-.05,.5-.29,.58-3.1,1.02-5.3,3.71-3.5,6.85,1.51,2.72,4.46,4.66,7.52,5.23,.29,.04,.23,.52-.07,.47h0Z"/>
  <path class="cls-6" d="M145.98,240.55c-5.06-2.65-5.62,1.66-9.66,3.15-7.33,2.18-10.57-7-12.07-12.49-.08-.28,.35-.42,.45-.14,1.91,4.85,4.6,13.54,11.32,11.73,2.41-.69,3.74-3.49,6.45-3.76,1.4-.11,2.64,.48,3.73,1.11,.26,.14,.04,.56-.23,.41h0Z"/>
  <path class="cls-12" d="M245.05,207.69c1.07-.95-3.38-23.73-4.79-24.98-1.41-1.25-27.92,3.75-33.56,7.99-5.64,4.25-14.66,15.24-13.82,16.49,.85,1.25,30.46-3,32.15-3s18.05,5.25,20.02,3.5Z"/>
  <path class="cls-12" d="M235.58,220.21c-1.54-1.24-3.56,6.41-6.77,6.59-1.42,.08-22.28-5.93-23.69-5.36-1.41,.56,21.71,19.46,29.41,11.35,1.42-1.5,3.02-10.99,1.04-12.58Z"/>
  <path class="cls-6" d="M255.88,267.36c-5.93,.51-12.52,.94-17.03,5.28-.2,.2-.53-.09-.35-.32,4.12-5.01,11.31-5.68,17.37-5.44,.28,.01,.29,.45,0,.47h0Z"/>
  <path class="cls-6" d="M246.86,298.66c-9.34,1.5-18.28,5.02-27.27,7.88-.27,.1-.45-.32-.18-.44,6.57-2.84,13.38-5.1,20.32-6.83,.48-.17,8.77-1.9,7.12-.61h0Z"/>
  <path class="cls-6" d="M178.6,325.36c-15.49-12.19-21.02-23.84-23.78-43.06,0,0-2.5-16.61-2.5-16.61-.02-.13,.07-.25,.2-.27,.13-.02,.24,.07,.27,.19,1.05,5.5,1.94,11.04,2.9,16.55,3.02,19.22,8.19,30.13,23.22,42.84,.23,.18-.06,.57-.3,.36h0Z"/>
  <path class="cls-6" d="M247.18,207.05c0-7.99-1.48-15.81-3.09-23.62-.06-.28,.38-.4,.46-.12,2.31,7.65,3.84,15.74,3.11,23.76-.02,.28-.47,.27-.47-.02h0Z"/>
  <path class="cls-6" d="M170.32,146.07c-2.07-3.22-4.41-6.2-7.09-8.95-.09-.09-.09-.24,0-.34,.08-.08,.21-.09,.3-.02,2.41,1.67,4.42,3.93,5.91,6.46,.19,.35,2.07,3.53,.87,2.85h0Z"/>
  <path class="cls-6" d="M154.7,152.59c-3.67-.25-7.41,.14-10.73,1.85-.24,.13-.48-.22-.26-.39,3.05-2.42,7.38-2.94,11.07-1.92,.26,.07,.19,.49-.08,.46h0Z"/>
  <path class="cls-6" d="M103.37,258.4c-.62-4.12-3.13-5.74-7.25-5.42-.28,.02-.34-.4-.08-.47,4.24-1.3,8.1,1.28,7.79,5.86,0,.28-.43,.3-.47,.03h0Z"/>
  <path class="cls-6" d="M236.47,158.05c-2.37-8-7.26-14.84-12.36-21.33-.18-.22,.16-.53,.36-.31,5.67,6.05,10.78,13.26,12.46,21.53,.06,.28-.38,.39-.46,.11h0Z"/>
  <path class="cls-6" d="M145.96,171.37c-2.73-1.46-6.01-1.66-7.01,1.87-.07,.26-.49,.18-.46-.09,.27-4.32,5.05-4.72,7.74-2.17,.21,.18-.03,.52-.27,.39h0Z"/>
  <path class="cls-6" d="M114.72,169.22c-2.27-1.75-6.15-.56-6.75,2.31-.02,.27-.45,.27-.47,0-.22-3.71,5.34-5.54,7.54-2.65,.18,.21-.11,.51-.33,.34h0Z"/>
  <path class="cls-1" d="M248.85,136.81c.36-8.34-3.57-17.62-11.12-21.71-.3-.13-.1-.61,.21-.49,8.18,3.32,12.78,13.83,11.44,22.28-.06,.32-.56,.26-.53-.07h0Z"/>
  <path class="cls-1" d="M227.71,107.03c-1.26-2.88-2.84-5.55-4.73-8.06-.09-.12-.06-.29,.06-.38,.1-.07,.23-.07,.32,0,1.94,1.51,3.4,3.62,4.25,5.91,.28,.77,.5,1.56,.61,2.38,.02,.15-.09,.28-.23,.3-.12,.01-.23-.05-.28-.15h0Z"/>
  <path class="cls-1" d="M186.19,87.48c-2.17,.09-4.25,.41-6.32,1.1-.14,.04-.3-.04-.34-.18-.03-.1,0-.22,.08-.28,1.81-1.48,4.45-1.93,6.65-1.16,.27,.09,.2,.51-.08,.53h0Z"/>
  <path class="cls-1" d="M159.25,91.98c-.67,.67-1.71,.88-2.6,.58-.22-.08-.25-.39-.07-.52,.32-.4,3.19-1.11,2.67-.06h0Z"/>
  <path class="cls-6" d="M233.65,220.03c-.27-3.29-.17-6.59,.28-9.87,.02-.13,.14-.22,.27-.2,.11,.01,.19,.11,.2,.21,.22,2.47,.17,4.94,0,7.41-.07,.82-.14,1.64-.27,2.46-.04,.27-.45,.25-.47-.02h0Z"/>
  <path class="cls-6" d="M240.04,204.84c-.55-2.64-1.26-6.35-1.84-8.94-.61-2.98-1.35-5.92-2.1-8.87-.03-.13,.04-.26,.17-.29,.12-.03,.23,.03,.28,.14,1.71,4.28,2.74,8.8,3.45,13.33,.22,1.52,.41,3.04,.51,4.57,.03,.28-.41,.35-.47,.06h0Z"/>
  <path class="cls-6" d="M233.84,200.51c-.74-2.7-1.11-5.47-1.13-8.27,0-.13,.11-.24,.24-.24,.6-.23,2.12,10.22,.89,8.51h0Z"/>
  <path class="cls-6" d="M134.55,286.79c-6.46,4.19-12.37,9.11-18.67,13.53-2.11,1.48-4.27,2.87-6.52,4.14-.25,.15-.5-.24-.25-.4,2.13-1.42,4.2-2.93,6.25-4.45,3.64-2.73,8.67-6.62,12.37-9.16,2.12-1.45,4.3-2.84,6.57-4.06,.25-.14,.49,.25,.24,.41h0Z"/>
  <path class="cls-6" d="M126.28,300.33c-3.15,2.18-6.4,4.16-9.76,6-.12,.06-.26,.02-.32-.1-.05-.1-.03-.22,.06-.29,2.22-1.85,4.65-3.41,7.19-4.77,.85-.45,1.71-.88,2.6-1.25,.25-.11,.46,.26,.23,.41h0Z"/>
  <path class="cls-4" d="M194.77,231.15c-2.97,6.25-7.01,13.86-10.32,19.97-1.2,2.19-2.43,4.37-3.68,6.53-.07,.11-.21,.15-.32,.09-.11-.06-.15-.2-.09-.31,1.08-2.25,2.19-4.49,3.32-6.72,1.69-3.33,5.2-9.98,7-13.25,1.2-2.19,2.42-4.37,3.68-6.53,.14-.25,.55-.05,.42,.22h0Z"/>
  <path class="cls-4" d="M187.27,228.63c-2.58,6.75-5.77,13.25-9.07,19.67-1.11,2.14-2.25,4.25-3.44,6.35-.06,.11-.21,.15-.32,.09-.11-.06-.15-.2-.1-.31,1.01-2.18,2.03-4.36,3.08-6.52,1.98-4.13,7.35-15.2,9.42-19.46,.12-.26,.54-.09,.43,.18h0Z"/>
  <path class="cls-4" d="M179.26,229.66c-1.07,2.27-3.26,6.8-4.36,9.05-1.51,2.99-2.99,6-4.63,8.93-.13,.25-.54,.06-.43-.2,2.6-6.2,5.48-12.29,9.01-18.01,.15-.24,.54-.03,.41,.23h0Z"/>
  <path class="cls-4" d="M199.73,243.2c-2.1,2.92-3.94,5.97-5.96,8.95-.15,.23-.52,.04-.42-.22,1.04-2.54,2.44-4.91,4.14-7.05,.26-.29,2.43-3.02,2.24-1.68h0Z"/>
  <g>
    <path class="cls-4" d="M53.95,188.71c-.47-.5-34.92,10.23-32.44,17.16,2.48,6.93,12.82-.94,13.4-.47,.57,.46-7.59,11.12-1.89,13.94,8.28,4.1,21.71-29.81,20.93-30.63Z"/>
    <path class="cls-6" d="M52.44,190.8c-2,5.76-5.04,11.16-8.69,16.04-.17,.23-.54-.01-.39-.26,3.04-5.25,5.99-10.51,8.65-15.96,.12-.25,.53-.09,.44,.18h0Z"/>
  </g>
  <g>
    <path class="cls-5" d="M247.32,49.07s8.64-11.17,17.3-11.43c8.66-.26,16.33,12.69,16.33,12.69,0,0-12.41,6.84-17.95,5.29-5.54-1.55-15.69-6.55-15.69-6.55Z"/>
    <path class="cls-5" d="M223.83,69.25s13.57-3.92,20.72,.98c7.15,4.9,5.7,19.88,5.7,19.88,0,0-14.05-1.8-17.62-6.32-3.56-4.52-8.8-14.54-8.8-14.54Z"/>
    <path class="cls-5" d="M231.5,58.95s12.57-8.08,13.48-16.73c.91-8.65-12.37-16.97-12.37-16.97,0,0-8.21,12.06-6.96,17.68,1.25,5.62,5.85,16.02,5.85,16.02Z"/>
    <path class="cls-6" d="M271.36,47.18c-6.65-1.32-13.69-2.53-20.25-.23-.27,.1-.45-.31-.18-.44,6.44-3.05,13.99-1.86,20.55,.21,.27,.08,.17,.52-.12,.46h0Z"/>
    <path class="cls-6" d="M232.28,58.18c3.92-6.6,6.04-14.71,3.77-22.23-.09-.27,.34-.43,.44-.16,3.05,7.49,.84,16.31-3.83,22.65-.17,.23-.55-.01-.39-.26h0Z"/>
    <path class="cls-6" d="M242.17,81.19c-4.86-5.56-11.59-8.94-18.18-12.08-.26-.11-.1-.54,.17-.44,6.92,2.49,14.02,6.11,18.38,12.23,.16,.24-.19,.51-.38,.28h0Z"/>
    <path class="cls-12" d="M252.81,46.05c.13-.63-16.09,7.48-24.37,15.15-8.28,7.67-16.38,21.11-16.24,21.94,.14,.83,1.78,2.52,2.66,2.2,.89-.32,11.58-20.23,17.67-24.64,6.09-4.41,19.87-12.67,20.28-14.64Z"/>
    <path class="cls-1" d="M267.66,39.35c-3.52-.15-6.97,.45-10.18,1.97-.12,.05-.26,0-.31-.12-.05-.1-.01-.22,.07-.29,2.92-2.21,6.96-2.96,10.49-2.03,.27,.07,.21,.48-.07,.47h0Z"/>
    <path class="cls-1" d="M241,71.02c-2.73,.05-5.46-.4-8.02-1.34-.25-.09-.16-.49,.1-.46,.53,.02,9.66,1.04,7.92,1.8h0Z"/>
    <path class="cls-1" d="M241.52,35.61c-1.83-1.44-3.62-3.01-5.3-4.64-.19-.18,.04-.5,.27-.38,2.14,1.08,4.02,2.71,5.37,4.7,.15,.21-.14,.48-.34,.32h0Z"/>
  </g>
  <g>
    <path class="cls-4" d="M195.19,75.26c1.4-.18,25.56-70.48,11.03-74.79-14.53-4.31-14.07,22.44-15.54,22.83-1.47,.39-9.22-26.16-20.86-20.13-16.9,8.75,23.07,72.38,25.37,72.09Z"/>
    <path class="cls-6" d="M193.32,70.52c-4.58-8.32-10.19-17.37-14.5-25.84-1.5-2.94-2.89-5.94-4.13-9-.11-.26,.31-.47,.43-.19,4.23,8.92,9.34,17.37,14.09,26.01,1.58,2.89,3.11,5.81,4.53,8.79,.13,.26-.28,.48-.42,.22h0Z"/>
    <path class="cls-1" d="M207.76,9.05c-.21-.76-.45-1.8-.65-2.56,0,0-.71-2.55-.71-2.55-.04-.13,.04-.26,.17-.3,.09-.03,.19,0,.25,.08,1.17,1.46,1.72,3.45,1.41,5.3-.04,.25-.41,.26-.47,.02h0Z"/>
  </g>
  <g>
    <path class="cls-10" d="M98.53,80.73c1.63-.23-6.77-20.87-6.77-22.84s12.97-11.84,12.97-13.25-10.43-31.58-12.97-32.43c-2.54-.85-22.84,13.82-22.84,14.95s13.54,15.51,13.82,16.64c.28,1.13-12.41,11-12.12,13.25,.28,2.26,25.94,23.97,27.92,23.69Z"/>
    <path class="cls-6" d="M102.4,44.2c-1.9,2.31-3.94,4.5-5.98,6.68-2.08,2.15-4.15,4.3-6.36,6.32-.1,.09-.25,.08-.33-.02-.08-.09-.08-.22,0-.31,1.9-2.32,3.94-4.49,5.97-6.68,2.08-2.15,4.15-4.3,6.36-6.32,.2-.2,.53,.1,.34,.32h0Z"/>
    <path class="cls-6" d="M93.22,74.88c-2.48-2.07-4.83-4.27-7.18-6.47-2.31-2.24-4.63-4.47-6.81-6.85-.09-.09-.09-.24,0-.33,.09-.08,.22-.08,.31-.01,2.48,2.07,4.83,4.28,7.19,6.48,2.32,2.24,4.64,4.48,6.82,6.86,.2,.21-.12,.54-.33,.33h0Z"/>
    <path class="cls-1" d="M97.64,32.69c-1.15-2.47-2.47-6.17-3.44-8.75-1.06-2.94-2.21-5.83-3.49-8.67-.05-.12,0-.26,.12-.31,.11-.05,.24,0,.3,.09,2.5,4.03,4.06,8.53,5.54,13,.48,1.49,.96,2.98,1.41,4.48,.09,.27-.33,.43-.44,.17h0Z"/>
  </g>
  <g>
    <path class="cls-7" d="M79.76,123.62c.77-1.45-14-27.99-13.28-28.94,.73-.95,13.33-27.89-16.77-44.37C19.61,33.83-11.39,74.13,4.14,105.05c15.54,30.92,48.41,10.85,49.95,11.78,1.55,.93,24.53,8.94,25.67,6.79Z"/>
    <g>
      <path class="cls-7" d="M51.87,113.5c-10.24,9.15-28.02,8.03-38.94,.52"/>
      <path class="cls-6" d="M52.03,113.68c-10.59,9.64-27.99,8.48-39.24,.54-.23-.17,.01-.56,.27-.39,8.68,5.45,19.79,7.21,29.65,4.29,3.26-1,6.37-2.58,9-4.8,.21-.19,.54,.15,.31,.35h0Z"/>
    </g>
    <g>
      <path class="cls-7" d="M65.59,119.23c-2.53-1.12-5.44-2.29-8.18-3.27"/>
      <path class="cls-6" d="M65.49,119.44c-2.85-.75-5.57-1.85-8.16-3.27-.12-.06-.17-.21-.1-.33,.07-.65,10.48,3.42,8.26,3.6h0Z"/>
    </g>
    <g>
      <path class="cls-7" d="M66.1,75.44c-.82-9.17-7.27-17.85-16.19-20.36"/>
      <path class="cls-1" d="M65.86,75.46c-1.19-8.94-7.31-17.31-16.02-20.15-.28-.08-.16-.53,.13-.45,9.2,2.19,15.93,11.26,16.36,20.57,.01,.29-.43,.34-.47,.04h0Z"/>
    </g>
    <g>
      <path class="cls-7" d="M42.05,91.37c3.84-2.75,7.58-10.59,2.7-14.45-7.05-5.56-6.58,7.49-10.65,10.08-13.07,8.31-14.12-10.95-3.27-14.28,9.13-.34,1.86,44.67,22,28.06,5.5-4.54,6.65-15.91-.69-19.56-9.67-4.8-12.34,9.93-19.36,11.79-20.82,5.51-8.1-30.76,7.15-27.52,30.79,6.54-20.04,52.78-20.95,16.55-.66-26.36,43.87-24.82,38.37,.82-5.18,24.14-34.33,3.41-40.57,12.93-9.54,14.55,42.97,14.62,27.98-9.21-13.27-21.1-19.99,14.74-26.81,15.5-13.33,1.47-11.57-23.71-4.64-29.12,11.14-8.68,28.11,7.97,19.6,18.93-13.68,17.62-24.84-11.68-14.51-23.91,14.84-17.55,34.33,10.6,18.48,22.41"/>
      <path class="cls-6" d="M41.91,91.17c3.73-2.89,6.89-9.25,3.39-13.39-1.21-1.18-3.18-2.69-4.85-1.57-2.91,2.65-2.78,7.32-5.4,10.31-1.45,1.35-3.44,2.22-5.38,2.67-2.85,.69-5.65-1.03-6.26-3.94-1.22-5.3,2.05-11.24,7.33-12.81,5.09-.24,5.61,12.43,6.5,16.16,.5,2.96,1.01,5.92,1.9,8.77,2.29,7.85,6.83,8.54,12.92,3.6,7.06-5.12,6.83-19.48-3.39-20.35-7.2,.28-8.9,9.93-15.08,12.49-3.54,1.18-8.41,1.52-10.74-2.04-4.24-7.5,2.21-19.76,8.77-24.13,4.02-2.86,9.03-2.4,13.24-.21,6.7,3.19,6.36,10.56,2.89,16.08-4.15,6.91-13.96,15.45-22.56,12.84-5.44-2.09-6.57-8.68-6.67-13.84-.33-7.02,3.68-13.89,10.05-16.91,15.17-7.33,35.05,2.23,28.46,20.82-2.03,6.52-7.55,9.87-14.21,9.82-6.13,.12-12.04-1.55-17.96-1.96-2.74-.14-6.14-.03-7.75,2.49-.77,1.2-1.29,2.6-.96,3.92,1.44,4.17,7.19,4.9,11.08,5.28,7.73,.49,20.72-2.04,19.72-12.08-.54-4.27-5.51-12.79-10.33-12.86-7.28,.6-11.35,15.42-16.04,20.43-.51,.58-1.13,1.11-1.9,1.47-.76,.23-1.61,.28-2.39,.21-5.07-.16-7.8-5.32-8.37-9.8-.8-6.54,.05-14.42,4.61-19.5,4.07-3.87,10.55-3.72,15.07-.76,6.52,3.79,10.8,13.17,5.54,19.67-1.66,2.07-3.62,4.08-6.14,5.08-5.26,2.18-9.68-2.88-11.27-7.42-2.12-5.68-2.33-12.2-.03-17.85,2.38-5.48,7.96-10.36,14.23-9.73,7.79,1.05,13.05,9.11,13.06,16.59,.11,4.64-2.29,9.09-5.99,11.81-.24,.19-.53-.19-.29-.37,7.83-5.54,7.22-17.05,.83-23.47-8.7-9.26-20.96-1.16-22.56,9.66-1.04,6.74,.34,16.12,6.59,19.98,2.65,1.47,5.86,.42,8-1.46,2.22-1.9,4.3-4.25,4.99-7.1,2.39-10.12-10.49-20.94-19.81-15.41-5.93,3.56-6.99,13.9-6.12,20.18,.65,5.09,3.99,10.31,9.77,9,1.92-1,3-3.12,4.14-4.93,3.09-5.15,5.3-11.04,9.78-15.22,4.46-4.06,8.9-.73,11.7,3.36,2.6,3.61,4.99,8.45,3.25,12.97-3.89,9.16-21.16,10.42-28.95,6.1-1.33-.78-2.63-1.97-3.04-3.63-.67-3.3,1.85-6.63,5.01-7.23,7.54-1.25,15.07,1.98,22.51,1.63,2.94-.06,5.93-.63,8.33-2.25,4.84-3.3,6.51-10.02,6.06-15.6-.54-5.99-5.39-10.62-10.99-12.27-11.21-3.69-25.82,2.23-26.69,15.12-.2,4.3,.09,9.07,2.65,12.68,7.05,8.54,20.94-2.85,24.86-9.89,3.24-5.14,3.7-11.99-2.53-14.93-5.98-3.1-11.28-1.94-15.76,3.02-4.63,4.54-11.02,19.82-1.84,22.48,2.74,.52,6.02,.11,8.29-1.63,4.57-3.46,6.88-11.32,13.53-11.42,10.87,.9,11.34,16.06,3.76,21.56-3.65,3.01-9.02,5.39-12.08,.27-3.7-6.69-3.56-14.65-5.29-21.93-.66-2.35-1.27-6.64-4.26-6.82-4.64,1.29-8.13,7.14-6.89,12.11,1.12,4.65,5.85,4.21,9.18,2.14,4.51-1.74,3.83-12.47,9.09-11.9,1.37,.26,2.49,1.15,3.45,2.09,1.92,2.04,1.95,5.15,1.07,7.66-.87,2.52-2.39,4.84-4.56,6.46-.25,.19-.53-.21-.27-.38h0Z"/>
    </g>
  </g>
  <g>
    <path class="cls-10" d="M28.9,138.96s1.11-7.75,4.21-7.75,19.6,.42,21.29,25.24c1.69,24.82-13.82,31.16-17.77,31.87-3.95,.71-7.47-.14-7.75-2.54-.28-2.4-.56-8.6-.99-8.6s-.12,7.97-.56,9.17c-.85,2.28-6.68,3.33-12.82,1.19-6.34-2.21-12-11.63-11.15-33.62,.85-22,21.15-23.69,22.84-22.7,1.69,.99,2.7,7.75,2.7,7.75Z"/>
    <path class="cls-6" d="M27.65,172.26c-1.03-7.15-.6-14.42,.22-21.56,.28-2.38,.64-4.75,1.05-7.11,.02-.13,.14-.21,.27-.19,.12,.02,.21,.13,.2,.25-.62,6.92-1.4,14.51-1.44,21.42-.03,2.38,.03,4.76,.17,7.14,.02,.28-.43,.34-.47,.05h0Z"/>
    <path class="cls-6" d="M30.62,142c1.12-5.15,3.78-5.77,7.69-2.49,1.52,1.09,3.54,3.18,5.23,1.44,1.33-1.47-.16-4.22-1.92-4.68-.95-.32-1.99,.19-2.69,1.01-.19,.23-.55-.07-.37-.3,2.8-4.05,8.42,1.21,5.67,4.61-4.07,4.27-8.41-6.27-11.75-2.4-.66,.81-1.05,1.88-1.41,2.93-.08,.28-.52,.16-.45-.12h0Z"/>
    <path class="cls-6" d="M51.41,149.13c-6.13-7.03-8.9,2.98-13.59,5.94-2.06,1.4-5.24,1.31-6.98-.63-2.81-3.52,6.72-10.58,5.75-3.74-.04,.31-.52,.23-.47-.07,.86-6.19-8.97,2.91-2.85,4.21,6.62,1.91,8.38-9.82,14.7-8.85,1.61,.41,2.76,1.62,3.79,2.82,.19,.23-.15,.54-.36,.31h0Z"/>
    <path class="cls-6" d="M30.73,161.32c4.4-2.86,16.95-3.9,11.9,4.58-1.19,2.1-3.17,3.65-4.83,5.29-.8,.81-1.43,1.72-1.29,2.68,.11,.51,.32,.98,.6,1.43,2.19,4.2,11.61,1.82,11.4-2.89-.08-4.14-6.76-3.49-4.9,.71,.07,.12,.03,.27-.1,.34-.12,.06-.28,0-.33-.13-.59-1.14-.66-2.67,.4-3.58,4.22-3.08,7.8,2.8,4.36,6.1-2.97,2.91-9.16,3.99-11.67-.02-3.03-4.49,3.89-6.87,5.55-10.41,1.18-1.89,1.95-4.33-.82-5.1-3.29-.82-7.05-.1-10.05,1.41-.26,.15-.5-.27-.23-.41h0Z"/>
    <path class="cls-6" d="M25.12,142.13c-3.23-10.43-8.14,4.26-13.07-.54-2.25-2.55,1.18-7.31,4.29-5.79,.56,.28,1,.72,1.35,1.18,.08,.1,.06,.25-.04,.33-.1,.08-.24,.06-.32-.03-.69-.82-1.72-1.32-2.67-1.01-1.75,.46-3.21,3.21-1.91,4.67,1.68,1.75,3.68-.35,5.19-1.44,1.72-1.42,4.69-3.35,6.38-.74,.68,1.01,1.01,2.13,1.26,3.24,.03,.13-.05,.25-.18,.28-.12,.03-.24-.04-.28-.16h0Z"/>
    <path class="cls-6" d="M4.57,148.82c8.66-10.67,11.64,11.59,20.05,5.06,1.94-2.37-5.23-8.66-4.52-3.25,.05,.31-.43,.38-.47,.07-.96-6.83,8.48,.21,5.73,3.72-1.17,1.39-2.93,1.67-4.63,1.56-4.07-.8-5.88-5.08-8.57-7.69-1.01-1.04-2.3-1.89-3.67-1.58-1.42,.28-2.58,1.38-3.56,2.41-.19,.23-.56-.08-.36-.31h0Z"/>
    <path class="cls-6" d="M25.23,161.72c-2.9-1.49-8.59-2.81-11.33-.63-1.69,2,1.22,5.49,2.7,7,3.16,2.95,6.32,5.17,2.12,9.19-4.24,3.24-14.18-.77-11.13-6.78,1.32-2.43,5.78-1.97,5.94,1,.07,.64-.18,1.24-.42,1.83-.05,.12-.18,.18-.3,.14-.13-.05-.19-.2-.13-.32,1.88-4.21-4.76-4.89-4.85-.74-.22,4.7,9.14,7.11,11.32,2.9,.27-.45,.48-.92,.59-1.42,.14-.96-.48-1.87-1.27-2.68-2.49-2.47-5.77-4.97-5.96-8.83,.6-5.14,10.06-2.9,12.98-1.04,.26,.16,.02,.57-.24,.4h0Z"/>
    <path class="cls-6" d="M23.29,186.6c-4.26,1.55-9.43,.17-12.55-3.05-.2-.2,.09-.52,.31-.35,3.49,2.51,7.87,3.68,12.11,2.95,.27-.06,.39,.36,.13,.45h0Z"/>
    <path class="cls-1" d="M38.47,133.56c-1.87-.29-3.65-.51-5.56-.58-.13,0-.23-.12-.23-.25,0-.1,.07-.18,.16-.21,1.41-.51,3.01-.46,4.43-.01,.33,.1,2.18,.76,1.2,1.06h0Z"/>
    <path class="cls-6" d="M35.46,183.26c-4.5-1.44-5.79-7.68-2.94-11.17,.17-.22,.53,0,.4,.25-1.91,3.63-.97,8.47,2.73,10.49,.25,.13,.07,.52-.19,.43h0Z"/>
    <path class="cls-6" d="M23.78,171.47c1.56,3.63,.87,9.05-3.11,10.78-.25,.11-.45-.27-.22-.42,3.25-2.23,3.57-6.65,2.89-10.22-.06-.27,.35-.4,.45-.14h0Z"/>
  </g>
  <g>
    <path class="cls-13" d="M122.16,50.42c-15.4,2.54-17.34,14.86-15.32,24.56,2.02,9.7,11.84,20.89,26.78,13.77,14.94-7.12,11.58-19.36,9.64-25.84-1.94-6.48-7.64-14.7-21.1-12.48Z"/>
    <path class="cls-6" d="M129.56,64.26c-.8,.24,.55,5.29,1.5,5.01,.95-.28-.7-5.25-1.5-5.01Z"/>
    <path class="cls-6" d="M119.73,67.2c-.8,.24,.55,5.29,1.5,5.01,.95-.28-.7-5.25-1.5-5.01Z"/>
    <path class="cls-6" d="M137.32,67.05c-1.52,9.24-17.76,14.92-23.71,6.87-.17-.24,.19-.52,.38-.29,4.94,5.51,13.96,3.14,19.06-.98,1.79-1.48,3.28-3.4,3.81-5.69,.05-.29,.51-.21,.46,.08h0Z"/>
    <path class="cls-6" d="M143.12,67.35c.8,4.97,.37,10.45-2.36,14.8-.15,.24-.53,.03-.41-.22,2.03-4.57,2.36-9.59,2.31-14.53,0-.28,.43-.32,.47-.04h0Z"/>
    <path class="cls-1" d="M137.63,56.2c-5.28-4.87-13.64-4.98-19.96-2.2-.26,.13-.48-.27-.22-.42,6.24-3.61,15.58-3.38,20.54,2.3,.18,.22-.14,.52-.35,.32h0Z"/>
  </g>
</svg>